<svg xmlns="http://www.w3.org/2000/svg" xmlns:xlink="http://www.w3.org/1999/xlink" width="336" zoomAndPan="magnify" viewBox="0 0 252 143.999998" height="192" preserveAspectRatio="xMidYMid meet" version="1.0"><defs><g/></defs><g fill="#000000" fill-opacity="1"><g transform="translate(88.546871, 91.749995)"><g><path d="M 6.464844 -15.582031 C 6.496094 -15.550781 6.496094 -15.515625 6.527344 -15.484375 C 6.527344 -15.453125 6.527344 -15.421875 6.527344 -15.390625 C 6.558594 -15.324219 6.621094 -15.199219 6.6875 -15.003906 C 6.71875 -14.941406 6.75 -14.878906 6.78125 -14.78125 L 6.976562 -14.269531 C 7.007812 -14.238281 7.039062 -14.171875 7.070312 -14.046875 C 7.136719 -13.949219 7.167969 -13.855469 7.167969 -13.789062 C 7.292969 -13.5 7.359375 -13.308594 7.359375 -13.277344 C 7.453125 -13.054688 7.519531 -12.894531 7.550781 -12.765625 C 7.613281 -12.671875 7.648438 -12.511719 7.679688 -12.316406 L 5.824219 -12.316406 C 5.855469 -12.351562 5.855469 -12.382812 5.855469 -12.414062 L 5.917969 -12.605469 C 5.949219 -12.765625 5.984375 -12.925781 6.015625 -13.085938 L 6.046875 -13.214844 C 6.109375 -13.40625 6.144531 -13.597656 6.175781 -13.820312 C 6.238281 -14.078125 6.269531 -14.332031 6.304688 -14.589844 C 6.367188 -14.78125 6.398438 -15.039062 6.429688 -15.359375 L 6.429688 -15.390625 C 6.464844 -15.421875 6.464844 -15.484375 6.464844 -15.582031 Z M 10.335938 -12.414062 C 10.335938 -12.476562 10.300781 -12.574219 10.238281 -12.703125 C 10.207031 -12.828125 10.175781 -12.925781 10.140625 -12.988281 C 10.140625 -13.085938 10.109375 -13.214844 10.046875 -13.308594 C 10.015625 -13.4375 9.984375 -13.535156 9.949219 -13.597656 C 9.917969 -13.757812 9.855469 -13.949219 9.757812 -14.171875 C 9.757812 -14.238281 9.695312 -14.429688 9.566406 -14.71875 C 9.566406 -14.75 9.566406 -14.8125 9.566406 -14.84375 C 9.535156 -14.878906 9.503906 -14.910156 9.46875 -14.972656 L 9.40625 -15.101562 C 9.375 -15.164062 9.375 -15.199219 9.34375 -15.230469 L 9.277344 -15.359375 C 9.183594 -15.644531 9.152344 -15.773438 9.117188 -15.773438 C 9.054688 -16.03125 8.992188 -16.191406 8.957031 -16.253906 C 8.925781 -16.285156 8.925781 -16.316406 8.925781 -16.347656 C 8.925781 -16.382812 8.894531 -16.445312 8.863281 -16.507812 C 8.832031 -16.636719 8.796875 -16.734375 8.765625 -16.796875 C 8.703125 -17.054688 8.636719 -17.246094 8.542969 -17.375 C 8.480469 -17.628906 8.414062 -17.820312 8.351562 -17.949219 C 8.351562 -17.980469 8.320312 -18.078125 8.253906 -18.171875 C 8.222656 -18.300781 8.191406 -18.398438 8.160156 -18.460938 C 8.09375 -18.683594 8.03125 -18.84375 7.933594 -18.972656 C 7.902344 -19.035156 7.902344 -19.101562 7.871094 -19.195312 C 7.839844 -19.261719 7.808594 -19.324219 7.742188 -19.421875 C 7.648438 -19.613281 7.550781 -19.773438 7.488281 -19.867188 L 7.488281 -19.964844 L 7.453125 -19.964844 C 7.421875 -19.996094 7.421875 -19.996094 7.421875 -20.027344 L 7.359375 -20.09375 C 7.359375 -20.125 7.359375 -20.15625 7.359375 -20.1875 C 7.328125 -20.222656 7.328125 -20.222656 7.292969 -20.222656 C 7.292969 -20.253906 7.292969 -20.253906 7.292969 -20.285156 C 7.261719 -20.316406 7.261719 -20.316406 7.230469 -20.347656 C 7.199219 -20.414062 7.167969 -20.476562 7.136719 -20.507812 C 7.136719 -20.539062 7.136719 -20.539062 7.136719 -20.574219 C 7.101562 -20.574219 7.101562 -20.574219 7.070312 -20.605469 L 7.070312 -20.636719 L 7.039062 -20.636719 L 7.039062 -20.699219 C 6.847656 -21.308594 6.464844 -21.597656 5.917969 -21.597656 L 5.792969 -21.597656 C 5.757812 -21.628906 5.757812 -21.628906 5.757812 -21.628906 C 5.726562 -21.628906 5.726562 -21.628906 5.695312 -21.628906 C 5.375 -21.628906 5.085938 -21.53125 4.800781 -21.308594 C 4.542969 -21.085938 4.414062 -20.765625 4.382812 -20.347656 C 4.382812 -20.09375 4.382812 -19.902344 4.351562 -19.773438 C 4.351562 -19.613281 4.351562 -19.484375 4.320312 -19.390625 L 4.320312 -19.164062 C 4.320312 -19.101562 4.289062 -18.910156 4.222656 -18.558594 C 4.222656 -18.332031 4.191406 -18.109375 4.160156 -17.886719 C 4.128906 -17.535156 4.09375 -17.277344 4.0625 -17.148438 L 4 -16.414062 C 3.96875 -16.15625 3.933594 -15.933594 3.902344 -15.710938 C 3.871094 -15.453125 3.839844 -15.230469 3.808594 -15.003906 C 3.777344 -14.78125 3.742188 -14.558594 3.679688 -14.300781 C 3.648438 -14.109375 3.582031 -13.886719 3.519531 -13.660156 C 3.519531 -13.5 3.488281 -13.308594 3.421875 -13.148438 C 3.390625 -13.117188 3.390625 -13.085938 3.390625 -13.054688 C 3.359375 -12.894531 3.328125 -12.765625 3.296875 -12.636719 L 3.230469 -12.445312 L 3.199219 -12.382812 L 3.199219 -12.351562 C 3.167969 -12.316406 3.167969 -12.316406 3.167969 -12.285156 L 1.664062 -12.285156 C 1.121094 -12.285156 0.734375 -12.0625 0.480469 -11.644531 C 0.382812 -11.453125 0.320312 -11.261719 0.320312 -11.039062 C 0.320312 -10.8125 0.382812 -10.589844 0.480469 -10.367188 C 0.734375 -9.949219 1.121094 -9.726562 1.664062 -9.726562 L 2.429688 -9.726562 C 2.398438 -9.597656 2.367188 -9.46875 2.335938 -9.375 C 2.207031 -9.085938 2.144531 -8.894531 2.144531 -8.832031 C 2.113281 -8.765625 2.113281 -8.703125 2.078125 -8.671875 C 2.015625 -8.511719 1.953125 -8.414062 1.917969 -8.320312 C 1.886719 -8.285156 1.886719 -8.253906 1.886719 -8.222656 L 1.503906 -7.453125 C 1.503906 -7.421875 1.503906 -7.390625 1.472656 -7.359375 C 1.40625 -7.199219 1.34375 -7.070312 1.28125 -6.941406 L 1.214844 -6.816406 C 1.183594 -6.75 1.152344 -6.6875 1.121094 -6.621094 L 1.054688 -6.496094 C 1.023438 -6.429688 0.992188 -6.367188 0.960938 -6.304688 C 0.929688 -6.238281 0.894531 -6.175781 0.863281 -6.144531 L 0.832031 -6.078125 C 0.734375 -5.886719 0.671875 -5.695312 0.640625 -5.535156 L 0.640625 -5.34375 C 0.640625 -5.054688 0.703125 -4.765625 0.863281 -4.542969 C 1.085938 -4.289062 1.34375 -4.128906 1.632812 -4.03125 C 1.726562 -4 1.824219 -4 1.917969 -4 C 2.144531 -4 2.335938 -4.0625 2.558594 -4.160156 C 2.878906 -4.351562 3.070312 -4.640625 3.136719 -4.992188 C 3.167969 -5.023438 3.199219 -5.085938 3.230469 -5.152344 L 3.359375 -5.40625 C 3.390625 -5.4375 3.421875 -5.503906 3.457031 -5.566406 C 3.488281 -5.632812 3.550781 -5.726562 3.582031 -5.824219 C 3.648438 -5.949219 3.710938 -6.109375 3.777344 -6.269531 C 3.808594 -6.335938 3.871094 -6.429688 3.902344 -6.527344 C 3.933594 -6.589844 3.96875 -6.65625 4 -6.71875 L 4.09375 -6.910156 C 4.128906 -7.007812 4.191406 -7.101562 4.253906 -7.261719 C 4.320312 -7.390625 4.414062 -7.613281 4.511719 -7.902344 C 4.542969 -7.933594 4.542969 -7.964844 4.574219 -8.0625 C 4.605469 -8.160156 4.671875 -8.320312 4.734375 -8.511719 C 4.734375 -8.542969 4.734375 -8.542969 4.765625 -8.574219 C 4.832031 -8.734375 4.894531 -8.925781 4.960938 -9.152344 C 5.023438 -9.4375 5.085938 -9.628906 5.152344 -9.757812 L 8.414062 -9.757812 C 8.480469 -9.628906 8.511719 -9.4375 8.542969 -9.183594 C 8.574219 -9.023438 8.605469 -8.796875 8.636719 -8.542969 C 8.636719 -8.511719 8.636719 -8.445312 8.671875 -8.382812 C 8.703125 -8.222656 8.734375 -8.03125 8.765625 -7.808594 L 8.765625 -7.742188 C 8.765625 -7.710938 8.765625 -7.648438 8.796875 -7.550781 C 8.863281 -7.390625 8.894531 -7.230469 8.894531 -7.101562 C 8.925781 -7.039062 8.925781 -6.941406 8.957031 -6.816406 C 8.992188 -6.71875 8.992188 -6.589844 9.023438 -6.429688 C 9.054688 -6.238281 9.085938 -6.015625 9.117188 -5.726562 L 9.117188 -5.632812 C 9.152344 -5.597656 9.152344 -5.535156 9.152344 -5.503906 C 9.246094 -4.960938 9.503906 -4.605469 9.949219 -4.414062 C 10.109375 -4.320312 10.300781 -4.289062 10.460938 -4.289062 C 10.71875 -4.289062 10.972656 -4.382812 11.199219 -4.574219 C 11.550781 -4.832031 11.710938 -5.152344 11.710938 -5.535156 C 11.710938 -5.632812 11.710938 -5.757812 11.679688 -5.855469 C 11.679688 -5.949219 11.679688 -6.046875 11.644531 -6.109375 C 11.613281 -6.429688 11.582031 -6.6875 11.519531 -6.878906 C 11.484375 -7.007812 11.484375 -7.136719 11.453125 -7.230469 C 11.421875 -7.390625 11.421875 -7.488281 11.390625 -7.582031 C 11.390625 -7.648438 11.390625 -7.710938 11.359375 -7.808594 C 11.328125 -7.839844 11.328125 -7.902344 11.328125 -7.933594 C 11.328125 -8.125 11.292969 -8.222656 11.261719 -8.253906 C 11.230469 -8.511719 11.199219 -8.734375 11.167969 -8.894531 C 11.132812 -9.214844 11.101562 -9.46875 11.039062 -9.628906 L 11.039062 -9.757812 L 11.839844 -9.757812 C 12.414062 -9.757812 12.828125 -9.984375 13.054688 -10.398438 C 13.183594 -10.621094 13.246094 -10.847656 13.246094 -11.070312 C 13.246094 -11.292969 13.183594 -11.484375 13.054688 -11.679688 C 12.828125 -12.09375 12.414062 -12.316406 11.839844 -12.316406 L 10.367188 -12.316406 L 10.367188 -12.382812 Z M 10.335938 -12.414062 "/></g></g></g><g fill="#000000" fill-opacity="1"><g transform="translate(102.047558, 91.749995)"><g><path d="M 4.765625 -11.902344 L 4.992188 -11.902344 C 5.085938 -11.902344 5.183594 -11.902344 5.246094 -11.871094 L 5.503906 -11.742188 C 5.632812 -11.679688 5.726562 -11.613281 5.792969 -11.550781 C 5.886719 -11.484375 5.984375 -11.390625 6.078125 -11.261719 C 6.175781 -11.199219 6.269531 -11.101562 6.335938 -10.972656 C 6.429688 -10.910156 6.496094 -10.78125 6.558594 -10.621094 C 6.621094 -10.496094 6.6875 -10.367188 6.75 -10.207031 C 6.78125 -10.140625 6.847656 -10.046875 6.878906 -9.917969 C 6.878906 -9.886719 6.878906 -9.824219 6.910156 -9.789062 C 6.941406 -9.695312 6.976562 -9.535156 7.007812 -9.34375 L 7.007812 -9.246094 C 7.039062 -9.152344 7.039062 -9.054688 7.039062 -8.894531 C 7.070312 -8.765625 7.070312 -8.605469 7.070312 -8.445312 C 7.070312 -8.414062 7.070312 -8.382812 7.070312 -8.351562 C 7.039062 -8.285156 7.039062 -8.222656 7.007812 -8.160156 C 7.007812 -8.09375 6.976562 -8 6.910156 -7.839844 C 6.878906 -7.773438 6.816406 -7.679688 6.75 -7.582031 L 6.527344 -7.359375 C 6.496094 -7.328125 6.464844 -7.328125 6.429688 -7.292969 C 6.398438 -7.261719 6.367188 -7.261719 6.335938 -7.230469 C 6.304688 -7.199219 6.269531 -7.199219 6.238281 -7.199219 C 6.207031 -7.167969 6.144531 -7.167969 6.078125 -7.136719 C 6.046875 -7.136719 5.984375 -7.136719 5.886719 -7.101562 C 5.855469 -7.070312 5.824219 -7.070312 5.792969 -7.070312 L 5.757812 -7.070312 C 5.726562 -7.101562 5.664062 -7.101562 5.566406 -7.101562 C 5.535156 -7.136719 5.503906 -7.136719 5.472656 -7.167969 C 5.4375 -7.167969 5.375 -7.167969 5.3125 -7.167969 C 5.277344 -7.199219 5.214844 -7.261719 5.121094 -7.292969 C 5.085938 -7.292969 5.054688 -7.292969 5.023438 -7.328125 L 4.960938 -7.359375 C 4.925781 -7.390625 4.863281 -7.421875 4.800781 -7.453125 L 4.542969 -7.710938 C 4.480469 -7.773438 4.414062 -7.871094 4.351562 -8 C 4.289062 -8.09375 4.222656 -8.191406 4.160156 -8.320312 C 4.09375 -8.445312 4.03125 -8.574219 3.96875 -8.734375 C 3.933594 -8.894531 3.902344 -9.054688 3.839844 -9.183594 C 3.839844 -9.246094 3.839844 -9.308594 3.839844 -9.375 C 3.808594 -9.4375 3.808594 -9.503906 3.777344 -9.597656 C 3.777344 -9.628906 3.777344 -9.664062 3.742188 -9.695312 C 3.710938 -9.855469 3.710938 -9.984375 3.710938 -10.078125 L 3.710938 -10.269531 C 3.742188 -10.335938 3.742188 -10.398438 3.742188 -10.496094 C 3.808594 -11.328125 4.160156 -11.804688 4.765625 -11.902344 Z M 1.601562 -21.660156 C 1.246094 -21.660156 0.960938 -21.53125 0.671875 -21.277344 C 0.449219 -21.050781 0.320312 -20.699219 0.320312 -20.285156 L 0.320312 -20.09375 C 0.351562 -20.0625 0.351562 -20.0625 0.351562 -20.027344 C 0.351562 -19.996094 0.351562 -19.964844 0.351562 -19.933594 L 0.351562 -19.804688 C 0.382812 -19.707031 0.382812 -19.613281 0.382812 -19.515625 L 0.382812 -19.324219 C 0.414062 -19.261719 0.414062 -19.164062 0.414062 -19.070312 L 0.414062 -18.332031 C 0.449219 -18.238281 0.449219 -18.109375 0.449219 -17.949219 L 0.449219 -16.703125 C 0.480469 -16.507812 0.480469 -16.285156 0.480469 -16.03125 L 0.480469 -13.183594 C 0.511719 -13.085938 0.511719 -12.988281 0.511719 -12.863281 C 0.511719 -12.765625 0.511719 -12.636719 0.480469 -12.476562 L 0.480469 -11.773438 C 0.480469 -11.613281 0.480469 -11.453125 0.449219 -11.328125 L 0.449219 -10.015625 C 0.414062 -9.855469 0.414062 -9.726562 0.414062 -9.566406 L 0.414062 -5.726562 C 0.449219 -5.632812 0.449219 -5.4375 0.449219 -5.214844 C 0.480469 -4.640625 0.734375 -4.253906 1.152344 -4.03125 C 1.34375 -3.933594 1.535156 -3.902344 1.726562 -3.902344 C 1.984375 -3.902344 2.207031 -3.96875 2.429688 -4.09375 C 2.816406 -4.351562 3.007812 -4.703125 3.007812 -5.152344 L 3.007812 -5.632812 C 3.039062 -5.597656 3.070312 -5.566406 3.101562 -5.535156 L 3.167969 -5.472656 C 3.648438 -5.152344 4.03125 -4.894531 4.351562 -4.734375 C 4.671875 -4.605469 5.054688 -4.511719 5.472656 -4.449219 L 6.304688 -4.449219 C 6.464844 -4.449219 6.65625 -4.449219 6.878906 -4.480469 C 7.039062 -4.480469 7.230469 -4.511719 7.390625 -4.542969 L 7.488281 -4.542969 C 7.582031 -4.574219 7.710938 -4.605469 7.808594 -4.640625 C 7.902344 -4.671875 8 -4.671875 8.09375 -4.703125 C 8.285156 -4.765625 8.511719 -4.832031 8.734375 -4.894531 L 8.925781 -4.992188 C 9.023438 -5.023438 9.152344 -5.085938 9.308594 -5.152344 C 9.34375 -5.183594 9.375 -5.183594 9.40625 -5.183594 C 9.566406 -5.214844 9.726562 -5.3125 9.886719 -5.40625 C 9.949219 -5.4375 10.015625 -5.472656 10.078125 -5.503906 C 10.175781 -5.566406 10.300781 -5.632812 10.429688 -5.726562 C 10.65625 -5.824219 10.847656 -5.949219 11.039062 -6.078125 C 11.070312 -6.109375 11.101562 -6.144531 11.132812 -6.175781 C 11.261719 -6.238281 11.421875 -6.335938 11.582031 -6.496094 L 11.839844 -6.6875 C 11.902344 -6.71875 11.964844 -6.78125 12.0625 -6.847656 C 12.09375 -6.878906 12.125 -6.910156 12.15625 -6.941406 C 12.191406 -6.976562 12.222656 -6.976562 12.253906 -7.007812 C 12.285156 -7.039062 12.351562 -7.070312 12.382812 -7.101562 C 12.414062 -7.136719 12.476562 -7.167969 12.511719 -7.199219 C 12.605469 -7.292969 12.734375 -7.421875 12.894531 -7.550781 C 12.925781 -7.582031 12.957031 -7.582031 12.988281 -7.613281 C 13.117188 -7.710938 13.277344 -7.839844 13.5 -8.03125 C 13.695312 -8.222656 13.855469 -8.351562 13.949219 -8.445312 C 14.078125 -8.574219 14.238281 -8.703125 14.429688 -8.832031 C 14.589844 -8.957031 14.75 -9.085938 14.878906 -9.214844 C 14.972656 -9.277344 15.070312 -9.34375 15.164062 -9.40625 C 15.261719 -9.4375 15.324219 -9.503906 15.421875 -9.566406 L 15.453125 -9.566406 L 15.515625 -9.628906 C 15.804688 -9.855469 15.996094 -10.078125 16.09375 -10.335938 C 16.15625 -10.496094 16.191406 -10.65625 16.191406 -10.78125 C 16.191406 -10.878906 16.15625 -11.007812 16.125 -11.101562 C 16.0625 -11.328125 15.933594 -11.550781 15.710938 -11.710938 C 15.550781 -11.902344 15.324219 -12 15.003906 -12 L 14.84375 -12 C 14.621094 -12 14.367188 -11.933594 14.109375 -11.773438 L 14.015625 -11.710938 C 13.789062 -11.550781 13.566406 -11.390625 13.375 -11.261719 C 13.183594 -11.132812 12.988281 -10.972656 12.796875 -10.8125 C 12.671875 -10.71875 12.542969 -10.621094 12.445312 -10.527344 C 12.414062 -10.496094 12.351562 -10.429688 12.285156 -10.398438 C 12.15625 -10.269531 12 -10.109375 11.804688 -9.949219 C 11.773438 -9.917969 11.710938 -9.886719 11.679688 -9.855469 C 11.550781 -9.757812 11.453125 -9.664062 11.359375 -9.566406 C 11.199219 -9.4375 11.039062 -9.308594 10.910156 -9.214844 C 10.878906 -9.183594 10.8125 -9.117188 10.6875 -9.023438 C 10.65625 -8.992188 10.621094 -8.957031 10.589844 -8.925781 L 10.460938 -8.863281 C 10.398438 -8.832031 10.335938 -8.765625 10.300781 -8.734375 C 10.207031 -8.671875 10.109375 -8.605469 10.015625 -8.511719 C 9.855469 -8.382812 9.726562 -8.285156 9.628906 -8.222656 L 9.597656 -8.191406 C 9.628906 -8.253906 9.628906 -8.320312 9.628906 -8.382812 C 9.628906 -8.671875 9.628906 -8.925781 9.597656 -9.117188 C 9.597656 -9.4375 9.566406 -9.664062 9.503906 -9.789062 C 9.46875 -10.078125 9.4375 -10.300781 9.375 -10.496094 C 9.308594 -10.78125 9.214844 -11.007812 9.117188 -11.199219 C 9.023438 -11.453125 8.925781 -11.679688 8.796875 -11.871094 C 8.671875 -12.125 8.542969 -12.351562 8.382812 -12.511719 C 8.253906 -12.734375 8.09375 -12.925781 7.902344 -13.085938 C 7.742188 -13.277344 7.550781 -13.4375 7.359375 -13.566406 C 7.136719 -13.757812 6.910156 -13.917969 6.6875 -14.015625 C 6.429688 -14.140625 6.175781 -14.238281 5.949219 -14.300781 C 5.664062 -14.398438 5.40625 -14.460938 5.152344 -14.460938 C 5.023438 -14.492188 4.894531 -14.492188 4.765625 -14.492188 C 4.605469 -14.492188 4.449219 -14.460938 4.289062 -14.429688 C 4 -14.398438 3.742188 -14.300781 3.488281 -14.171875 C 3.328125 -14.109375 3.167969 -14.046875 3.039062 -13.949219 L 3.039062 -16.0625 C 3.039062 -16.347656 3.039062 -16.574219 3.007812 -16.734375 L 3.007812 -18.011719 C 3.007812 -18.171875 3.007812 -18.300781 2.976562 -18.398438 L 2.976562 -18.589844 C 2.976562 -18.84375 2.976562 -19.035156 2.945312 -19.164062 L 2.945312 -19.675781 C 2.945312 -19.773438 2.945312 -19.867188 2.910156 -19.964844 L 2.910156 -20.414062 L 2.878906 -20.414062 C 2.847656 -20.828125 2.71875 -21.148438 2.464844 -21.339844 C 2.207031 -21.566406 1.917969 -21.660156 1.601562 -21.660156 Z M 1.601562 -21.660156 "/></g></g></g><g fill="#000000" fill-opacity="1"><g transform="translate(115.644214, 91.749995)"><g><path d="M 3.839844 -11.773438 C 3.871094 -11.773438 3.902344 -11.773438 3.902344 -11.773438 C 3.902344 -11.742188 3.902344 -11.742188 3.902344 -11.710938 L 4.09375 -11.644531 C 4.191406 -11.582031 4.320312 -11.519531 4.449219 -11.484375 C 4.511719 -11.453125 4.605469 -11.453125 4.703125 -11.421875 C 4.800781 -11.390625 4.894531 -11.359375 4.992188 -11.328125 L 5.472656 -11.261719 C 5.632812 -11.230469 5.824219 -11.199219 6.015625 -11.167969 C 6.109375 -11.167969 6.207031 -11.167969 6.304688 -11.132812 C 6.335938 -11.101562 6.335938 -11.101562 6.367188 -11.101562 C 6.398438 -11.070312 6.429688 -11.070312 6.464844 -11.039062 C 6.496094 -11.007812 6.496094 -10.941406 6.496094 -10.910156 C 6.589844 -10.78125 6.65625 -10.621094 6.71875 -10.429688 C 6.78125 -10.300781 6.847656 -10.175781 6.910156 -10.015625 C 6.976562 -9.855469 7.007812 -9.695312 7.007812 -9.566406 C 7.039062 -9.46875 7.070312 -9.40625 7.070312 -9.34375 C 7.070312 -9.277344 7.070312 -9.214844 7.039062 -9.183594 C 7.039062 -9.023438 7.039062 -8.894531 7.007812 -8.734375 C 7.007812 -8.605469 6.976562 -8.480469 6.910156 -8.320312 C 6.910156 -8.191406 6.878906 -8.0625 6.78125 -7.933594 L 6.71875 -7.808594 C 6.6875 -7.742188 6.65625 -7.679688 6.621094 -7.613281 C 6.558594 -7.488281 6.496094 -7.390625 6.429688 -7.328125 C 6.398438 -7.292969 6.367188 -7.292969 6.335938 -7.261719 C 6.304688 -7.230469 6.269531 -7.199219 6.238281 -7.167969 C 6.207031 -7.136719 6.175781 -7.136719 6.144531 -7.101562 C 6.109375 -7.070312 6.078125 -7.039062 6.046875 -7.007812 C 5.949219 -6.976562 5.855469 -6.941406 5.726562 -6.910156 C 5.695312 -6.910156 5.664062 -6.910156 5.632812 -6.878906 C 5.535156 -6.847656 5.472656 -6.847656 5.4375 -6.847656 L 5.023438 -6.847656 C 4.960938 -6.878906 4.894531 -6.878906 4.863281 -6.878906 C 4.765625 -6.910156 4.640625 -6.941406 4.511719 -6.976562 C 4.382812 -7.039062 4.253906 -7.101562 4.160156 -7.136719 C 4.03125 -7.230469 3.933594 -7.292969 3.839844 -7.359375 C 3.808594 -7.390625 3.742188 -7.453125 3.710938 -7.488281 C 3.679688 -7.519531 3.617188 -7.550781 3.582031 -7.582031 C 3.488281 -7.742188 3.390625 -7.839844 3.328125 -7.902344 C 3.296875 -7.964844 3.296875 -8.03125 3.261719 -8.0625 C 3.230469 -8.125 3.199219 -8.191406 3.167969 -8.253906 C 3.136719 -8.320312 3.136719 -8.382812 3.101562 -8.414062 C 3.070312 -8.480469 3.039062 -8.542969 3.007812 -8.605469 C 2.976562 -8.832031 2.945312 -8.957031 2.910156 -9.023438 C 2.910156 -9.117188 2.910156 -9.214844 2.878906 -9.308594 L 2.878906 -9.855469 C 2.878906 -9.886719 2.878906 -9.949219 2.910156 -9.984375 C 2.945312 -10.109375 2.945312 -10.207031 2.945312 -10.300781 C 3.007812 -10.527344 3.039062 -10.65625 3.039062 -10.71875 L 3.136719 -11.007812 C 3.199219 -11.132812 3.230469 -11.199219 3.261719 -11.230469 C 3.328125 -11.328125 3.390625 -11.390625 3.457031 -11.453125 C 3.488281 -11.484375 3.550781 -11.550781 3.582031 -11.582031 C 3.617188 -11.613281 3.679688 -11.644531 3.710938 -11.679688 L 3.808594 -11.773438 Z M 5.085938 -14.878906 C 4.960938 -14.878906 4.800781 -14.84375 4.574219 -14.8125 C 4.382812 -14.8125 4.160156 -14.75 3.933594 -14.589844 C 3.871094 -14.558594 3.777344 -14.492188 3.679688 -14.429688 C 3.648438 -14.429688 3.648438 -14.429688 3.617188 -14.429688 C 3.582031 -14.398438 3.550781 -14.398438 3.519531 -14.367188 C 3.328125 -14.332031 3.101562 -14.269531 2.847656 -14.140625 C 2.6875 -14.078125 2.496094 -13.949219 2.238281 -13.757812 C 2.078125 -13.660156 1.886719 -13.5 1.695312 -13.308594 C 1.601562 -13.214844 1.472656 -13.054688 1.3125 -12.894531 C 1.28125 -12.863281 1.246094 -12.796875 1.214844 -12.765625 C 1.085938 -12.605469 0.960938 -12.382812 0.832031 -12.125 C 0.769531 -11.933594 0.671875 -11.710938 0.574219 -11.421875 L 0.542969 -11.292969 C 0.511719 -11.167969 0.449219 -11.007812 0.414062 -10.78125 C 0.414062 -10.589844 0.382812 -10.367188 0.351562 -10.078125 L 0.351562 -9.789062 C 0.320312 -9.628906 0.320312 -9.503906 0.320312 -9.375 C 0.320312 -9.214844 0.351562 -8.992188 0.382812 -8.734375 L 0.382812 -8.636719 C 0.414062 -8.511719 0.449219 -8.351562 0.480469 -8.191406 L 0.542969 -7.933594 C 0.609375 -7.742188 0.703125 -7.519531 0.832031 -7.230469 C 0.863281 -7.136719 0.929688 -7.039062 0.960938 -6.941406 L 1.152344 -6.558594 C 1.183594 -6.527344 1.214844 -6.464844 1.246094 -6.429688 C 1.34375 -6.304688 1.472656 -6.144531 1.632812 -5.949219 L 2.207031 -5.375 C 2.398438 -5.277344 2.625 -5.121094 2.847656 -4.925781 C 2.945312 -4.863281 3.070312 -4.800781 3.230469 -4.734375 C 3.328125 -4.703125 3.457031 -4.640625 3.582031 -4.605469 C 3.648438 -4.574219 3.710938 -4.542969 3.808594 -4.511719 C 3.933594 -4.480469 4.0625 -4.414062 4.222656 -4.382812 C 4.449219 -4.351562 4.703125 -4.320312 4.960938 -4.289062 L 5.664062 -4.289062 C 5.886719 -4.320312 6.144531 -4.382812 6.398438 -4.449219 C 6.621094 -4.511719 6.847656 -4.605469 7.101562 -4.703125 C 7.328125 -4.800781 7.550781 -4.925781 7.773438 -5.121094 C 7.964844 -5.277344 8.160156 -5.4375 8.351562 -5.632812 C 8.414062 -5.726562 8.511719 -5.855469 8.605469 -5.949219 C 8.671875 -6.046875 8.734375 -6.144531 8.796875 -6.238281 C 8.925781 -6.429688 9.023438 -6.65625 9.117188 -6.878906 C 9.246094 -7.101562 9.34375 -7.359375 9.375 -7.613281 C 9.4375 -7.839844 9.503906 -8.0625 9.535156 -8.320312 C 9.566406 -8.574219 9.597656 -8.832031 9.597656 -9.117188 L 9.597656 -9.308594 C 9.597656 -9.535156 9.566406 -9.757812 9.535156 -9.984375 C 9.535156 -10.207031 9.46875 -10.496094 9.34375 -10.78125 C 9.308594 -10.910156 9.277344 -11.039062 9.214844 -11.167969 L 9.308594 -11.167969 C 9.46875 -11.199219 9.664062 -11.199219 9.917969 -11.199219 C 10.078125 -11.230469 10.300781 -11.261719 10.558594 -11.261719 L 10.910156 -11.261719 C 11.070312 -11.292969 11.199219 -11.292969 11.261719 -11.292969 C 11.421875 -11.328125 11.644531 -11.328125 11.902344 -11.328125 L 12.09375 -11.328125 C 12.191406 -11.359375 12.382812 -11.359375 12.605469 -11.390625 L 12.894531 -11.390625 C 13.023438 -11.421875 13.148438 -11.421875 13.277344 -11.421875 L 13.566406 -11.421875 C 13.695312 -11.453125 13.820312 -11.453125 13.949219 -11.453125 L 15.261719 -11.453125 C 15.390625 -11.453125 15.582031 -11.453125 15.871094 -11.421875 C 15.902344 -11.421875 15.996094 -11.421875 16.09375 -11.390625 C 16.191406 -11.390625 16.347656 -11.390625 16.507812 -11.359375 C 16.636719 -11.359375 16.796875 -11.328125 16.988281 -11.292969 L 17.085938 -11.292969 C 17.179688 -11.292969 17.277344 -11.292969 17.308594 -11.261719 L 17.660156 -11.261719 C 18.078125 -11.261719 18.429688 -11.421875 18.652344 -11.710938 C 18.84375 -11.964844 18.941406 -12.222656 18.941406 -12.511719 C 18.941406 -12.671875 18.910156 -12.828125 18.84375 -12.988281 C 18.683594 -13.46875 18.300781 -13.726562 17.726562 -13.789062 C 17.628906 -13.820312 17.535156 -13.820312 17.40625 -13.820312 C 17.117188 -13.886719 16.894531 -13.917969 16.703125 -13.917969 C 16.347656 -13.949219 16.125 -13.949219 16.0625 -13.949219 C 15.773438 -13.980469 15.515625 -14.015625 15.359375 -14.015625 L 13.855469 -14.015625 C 13.726562 -14.015625 13.597656 -14.015625 13.4375 -13.980469 L 13.148438 -13.980469 C 12.894531 -13.980469 12.671875 -13.949219 12.445312 -13.917969 C 12.125 -13.917969 11.933594 -13.917969 11.839844 -13.886719 L 11.773438 -13.886719 C 11.519531 -13.886719 11.292969 -13.886719 11.070312 -13.855469 L 11.007812 -13.855469 L 10.910156 -13.886719 L 10.75 -13.855469 C 10.65625 -13.855469 10.589844 -13.855469 10.527344 -13.820312 L 10.429688 -13.820312 C 10.175781 -13.820312 9.949219 -13.789062 9.726562 -13.757812 C 9.46875 -13.757812 9.246094 -13.726562 9.054688 -13.695312 L 8.445312 -13.660156 L 7.902344 -13.628906 L 7.808594 -13.628906 C 7.773438 -13.597656 7.710938 -13.597656 7.679688 -13.597656 C 7.613281 -13.695312 7.550781 -13.757812 7.453125 -13.820312 C 7.292969 -13.980469 7.101562 -14.140625 6.847656 -14.300781 C 6.65625 -14.429688 6.429688 -14.558594 6.144531 -14.652344 C 5.917969 -14.75 5.664062 -14.8125 5.375 -14.84375 C 5.277344 -14.878906 5.183594 -14.878906 5.085938 -14.878906 Z M 5.085938 -14.878906 "/></g></g></g><g fill="#000000" fill-opacity="1"><g transform="translate(131.992189, 91.749995)"><g><path d="M 7.871094 -13.46875 L 7.902344 -13.4375 L 7.871094 -13.4375 Z M 8.253906 -15.902344 C 8.0625 -15.902344 7.839844 -15.835938 7.582031 -15.742188 C 7.359375 -15.675781 7.136719 -15.515625 6.910156 -15.261719 C 6.78125 -15.132812 6.65625 -14.941406 6.527344 -14.652344 C 6.429688 -14.460938 6.398438 -14.207031 6.398438 -13.886719 C 6.398438 -13.628906 6.464844 -13.375 6.589844 -13.085938 C 6.71875 -12.894531 6.910156 -12.671875 7.136719 -12.445312 C 7.230469 -12.382812 7.328125 -12.316406 7.488281 -12.222656 C 7.550781 -12.191406 7.613281 -12.15625 7.679688 -12.125 L 7.808594 -12.0625 C 7.933594 -12.03125 8.0625 -11.964844 8.222656 -11.902344 C 8.253906 -11.902344 8.285156 -11.902344 8.320312 -11.871094 L 8.351562 -11.871094 C 8.351562 -11.839844 8.351562 -11.804688 8.382812 -11.773438 L 8.382812 -10.558594 C 8.382812 -10.367188 8.382812 -10.175781 8.351562 -9.984375 C 8.351562 -9.789062 8.320312 -9.628906 8.253906 -9.503906 C 8.222656 -9.308594 8.191406 -9.152344 8.160156 -8.992188 L 8.09375 -8.796875 C 8.0625 -8.703125 8.03125 -8.605469 8 -8.542969 C 7.964844 -8.414062 7.933594 -8.285156 7.871094 -8.160156 C 7.839844 -8.125 7.839844 -8.09375 7.839844 -8.0625 C 7.808594 -7.964844 7.742188 -7.902344 7.710938 -7.871094 C 7.679688 -7.839844 7.679688 -7.808594 7.648438 -7.773438 C 7.613281 -7.742188 7.582031 -7.679688 7.550781 -7.648438 L 7.453125 -7.550781 C 7.421875 -7.519531 7.359375 -7.453125 7.292969 -7.421875 C 7.261719 -7.390625 7.230469 -7.390625 7.199219 -7.359375 C 7.167969 -7.328125 7.136719 -7.328125 7.101562 -7.292969 C 7.039062 -7.261719 6.976562 -7.230469 6.941406 -7.199219 C 6.910156 -7.167969 6.847656 -7.136719 6.78125 -7.101562 L 6.496094 -7.007812 L 6.398438 -7.007812 C 6.367188 -6.976562 6.304688 -6.976562 6.269531 -6.976562 L 5.917969 -6.976562 C 5.886719 -6.976562 5.824219 -6.976562 5.726562 -7.007812 C 5.664062 -7.007812 5.597656 -7.007812 5.535156 -7.039062 C 5.375 -7.101562 5.246094 -7.136719 5.121094 -7.167969 L 4.925781 -7.292969 C 4.832031 -7.328125 4.765625 -7.359375 4.703125 -7.390625 L 4.511719 -7.519531 C 4.449219 -7.550781 4.382812 -7.582031 4.320312 -7.613281 C 4.222656 -7.710938 4.128906 -7.773438 4.03125 -7.839844 C 4 -7.902344 3.933594 -7.964844 3.902344 -8 C 3.871094 -8.0625 3.808594 -8.125 3.777344 -8.160156 L 3.710938 -8.285156 C 3.679688 -8.382812 3.648438 -8.445312 3.582031 -8.542969 C 3.519531 -8.703125 3.457031 -8.832031 3.390625 -8.957031 C 3.359375 -9.117188 3.296875 -9.246094 3.261719 -9.34375 L 3.230469 -9.4375 C 3.199219 -9.597656 3.167969 -9.726562 3.136719 -9.824219 C 3.101562 -9.855469 3.101562 -9.886719 3.101562 -9.917969 C 3.101562 -10.175781 3.070312 -10.367188 3.039062 -10.460938 C 3.039062 -10.496094 3.039062 -10.558594 3.039062 -10.589844 C 3.039062 -10.621094 3.039062 -10.65625 3.007812 -10.71875 C 3.007812 -10.8125 3.007812 -10.878906 2.976562 -10.910156 L 2.976562 -11.007812 C 2.976562 -11.132812 2.945312 -11.261719 2.910156 -11.421875 L 2.910156 -11.519531 C 2.910156 -11.679688 2.910156 -11.773438 2.878906 -11.871094 L 2.878906 -12.957031 C 2.910156 -13.023438 2.910156 -13.085938 2.910156 -13.148438 L 2.910156 -13.886719 C 2.910156 -14.078125 2.878906 -14.238281 2.847656 -14.367188 C 2.75 -14.75 2.558594 -15.039062 2.238281 -15.199219 C 2.015625 -15.324219 1.824219 -15.390625 1.601562 -15.390625 C 1.503906 -15.390625 1.40625 -15.390625 1.3125 -15.359375 C 1.023438 -15.292969 0.800781 -15.132812 0.574219 -14.84375 C 0.414062 -14.621094 0.351562 -14.367188 0.351562 -14.078125 L 0.351562 -12.796875 C 0.320312 -12.703125 0.320312 -12.605469 0.320312 -12.511719 L 0.320312 -11.773438 C 0.351562 -11.679688 0.351562 -11.519531 0.351562 -11.359375 L 0.351562 -11.261719 C 0.382812 -11.101562 0.414062 -10.910156 0.414062 -10.75 C 0.449219 -10.460938 0.480469 -10.269531 0.480469 -10.140625 C 0.511719 -10.015625 0.542969 -9.789062 0.574219 -9.503906 C 0.609375 -9.375 0.671875 -9.214844 0.703125 -9.023438 C 0.703125 -8.957031 0.703125 -8.894531 0.734375 -8.796875 C 0.800781 -8.703125 0.863281 -8.511719 0.929688 -8.222656 C 0.960938 -8.191406 0.960938 -8.160156 0.960938 -8.125 C 1.023438 -7.933594 1.121094 -7.679688 1.246094 -7.390625 L 1.3125 -7.292969 C 1.441406 -7.136719 1.566406 -6.941406 1.664062 -6.71875 C 1.726562 -6.621094 1.824219 -6.496094 1.917969 -6.398438 L 2.175781 -6.078125 C 2.367188 -5.917969 2.589844 -5.757812 2.816406 -5.566406 C 3.007812 -5.4375 3.230469 -5.3125 3.457031 -5.152344 C 3.550781 -5.121094 3.648438 -5.054688 3.742188 -4.992188 L 4.128906 -4.800781 L 4.382812 -4.734375 C 4.542969 -4.671875 4.703125 -4.605469 4.894531 -4.574219 C 5.023438 -4.542969 5.152344 -4.511719 5.277344 -4.480469 C 5.40625 -4.449219 5.535156 -4.449219 5.632812 -4.414062 L 6.367188 -4.414062 C 6.589844 -4.414062 6.847656 -4.449219 7.070312 -4.511719 C 7.101562 -4.542969 7.136719 -4.542969 7.167969 -4.542969 C 7.199219 -4.574219 7.261719 -4.574219 7.328125 -4.574219 C 7.488281 -4.640625 7.648438 -4.703125 7.808594 -4.765625 C 7.902344 -4.800781 8 -4.863281 8.09375 -4.925781 L 8.351562 -5.054688 C 8.542969 -5.183594 8.734375 -5.3125 8.925781 -5.472656 C 9.085938 -5.597656 9.246094 -5.726562 9.375 -5.886719 C 9.535156 -6.046875 9.695312 -6.238281 9.824219 -6.429688 C 9.917969 -6.558594 9.984375 -6.6875 10.078125 -6.847656 C 10.109375 -6.910156 10.140625 -6.976562 10.175781 -7.039062 C 10.269531 -7.230469 10.367188 -7.453125 10.429688 -7.679688 C 10.496094 -7.871094 10.558594 -8.09375 10.621094 -8.320312 C 10.65625 -8.414062 10.6875 -8.542969 10.71875 -8.703125 C 10.75 -8.796875 10.75 -8.894531 10.78125 -8.992188 C 10.847656 -9.214844 10.878906 -9.4375 10.878906 -9.695312 L 10.878906 -9.789062 C 10.910156 -10.015625 10.941406 -10.207031 10.941406 -10.398438 L 10.941406 -11.582031 C 11.007812 -11.582031 11.070312 -11.582031 11.132812 -11.613281 L 11.644531 -11.613281 C 11.773438 -11.644531 11.902344 -11.644531 12.03125 -11.644531 C 12.0625 -11.644531 12.15625 -11.644531 12.285156 -11.679688 C 12.414062 -11.679688 12.574219 -11.679688 12.734375 -11.710938 C 12.925781 -11.742188 13.183594 -11.773438 13.5 -11.773438 C 13.726562 -11.804688 13.980469 -11.839844 14.300781 -11.839844 C 14.527344 -11.871094 14.8125 -11.871094 15.132812 -11.871094 C 15.421875 -11.902344 15.675781 -11.933594 15.964844 -11.933594 C 16.253906 -11.964844 16.507812 -12 16.765625 -12 C 16.957031 -12.03125 17.179688 -12.03125 17.4375 -12.03125 C 18.011719 -12.0625 18.398438 -12.316406 18.589844 -12.734375 C 18.683594 -12.957031 18.75 -13.148438 18.75 -13.34375 C 18.75 -13.566406 18.683594 -13.789062 18.523438 -14.015625 C 18.300781 -14.398438 17.980469 -14.589844 17.5 -14.589844 L 17.277344 -14.589844 C 17.148438 -14.589844 17.019531 -14.589844 16.863281 -14.558594 L 16.574219 -14.558594 C 16.316406 -14.558594 16.0625 -14.527344 15.773438 -14.492188 C 15.484375 -14.492188 15.230469 -14.460938 14.972656 -14.429688 C 14.8125 -14.429688 14.652344 -14.429688 14.527344 -14.398438 L 14.140625 -14.398438 C 13.820312 -14.398438 13.535156 -14.367188 13.277344 -14.332031 C 12.925781 -14.332031 12.671875 -14.300781 12.445312 -14.269531 C 12.09375 -14.238281 11.871094 -14.207031 11.804688 -14.171875 L 10.972656 -14.171875 C 10.878906 -14.140625 10.75 -14.140625 10.65625 -14.140625 L 10.429688 -14.140625 C 10.429688 -14.171875 10.429688 -14.207031 10.429688 -14.238281 C 10.398438 -14.269531 10.398438 -14.269531 10.367188 -14.300781 C 10.269531 -14.527344 10.109375 -14.75 9.917969 -15.003906 C 9.789062 -15.199219 9.597656 -15.390625 9.34375 -15.550781 C 9.117188 -15.710938 8.832031 -15.804688 8.511719 -15.871094 C 8.445312 -15.902344 8.351562 -15.902344 8.253906 -15.902344 Z M 8.253906 -15.902344 "/></g></g></g><g fill="#000000" fill-opacity="1"><g transform="translate(148.116227, 91.749995)"><g><path d="M 4.414062 -22.683594 L 4.289062 -22.683594 C 3.96875 -22.683594 3.679688 -22.523438 3.390625 -22.203125 C 3.230469 -21.980469 3.136719 -21.757812 3.136719 -21.46875 C 3.136719 -21.308594 3.167969 -21.148438 3.199219 -20.988281 L 3.199219 -20.859375 C 3.230469 -20.828125 3.230469 -20.765625 3.230469 -20.734375 C 3.230469 -20.667969 3.230469 -20.605469 3.230469 -20.539062 L 3.230469 -20.15625 C 3.261719 -20.027344 3.261719 -19.867188 3.261719 -19.675781 L 3.261719 -18.910156 C 3.296875 -18.8125 3.296875 -18.683594 3.296875 -18.558594 L 3.296875 -17.246094 C 3.136719 -17.277344 3.007812 -17.277344 2.945312 -17.277344 L 2.429688 -17.277344 C 2.335938 -17.277344 2.273438 -17.277344 2.207031 -17.308594 L 1.886719 -17.308594 C 1.792969 -17.339844 1.726562 -17.339844 1.632812 -17.339844 C 1.375 -17.339844 1.121094 -17.246094 0.863281 -17.085938 C 0.574219 -16.894531 0.414062 -16.636719 0.351562 -16.316406 C 0.320312 -16.222656 0.320312 -16.15625 0.320312 -16.0625 C 0.320312 -15.835938 0.382812 -15.613281 0.511719 -15.390625 C 0.703125 -15.101562 0.992188 -14.910156 1.40625 -14.78125 L 1.566406 -14.78125 C 1.664062 -14.75 1.757812 -14.75 1.855469 -14.75 L 2.046875 -14.75 C 2.144531 -14.71875 2.238281 -14.71875 2.335938 -14.71875 L 2.878906 -14.71875 C 3.007812 -14.71875 3.167969 -14.71875 3.328125 -14.6875 L 3.328125 -10.496094 C 3.359375 -10.335938 3.359375 -10.140625 3.359375 -9.949219 C 3.359375 -9.726562 3.390625 -9.4375 3.457031 -9.085938 C 3.488281 -8.957031 3.550781 -8.796875 3.582031 -8.574219 C 3.582031 -8.480469 3.582031 -8.414062 3.617188 -8.320312 C 3.679688 -8.125 3.742188 -7.871094 3.808594 -7.550781 C 3.871094 -7.359375 3.96875 -7.101562 4.09375 -6.78125 C 4.222656 -6.589844 4.351562 -6.367188 4.480469 -6.078125 C 4.605469 -5.886719 4.765625 -5.664062 4.960938 -5.4375 C 5.121094 -5.277344 5.3125 -5.085938 5.566406 -4.894531 C 5.726562 -4.765625 5.949219 -4.640625 6.207031 -4.511719 C 6.398438 -4.414062 6.65625 -4.320312 6.976562 -4.222656 C 7.199219 -4.160156 7.453125 -4.128906 7.742188 -4.09375 L 8.414062 -4.09375 C 8.636719 -4.09375 8.894531 -4.128906 9.152344 -4.160156 C 9.40625 -4.191406 9.628906 -4.222656 9.824219 -4.253906 C 10.015625 -4.320312 10.238281 -4.382812 10.460938 -4.449219 C 10.527344 -4.480469 10.589844 -4.511719 10.6875 -4.542969 C 10.8125 -4.574219 10.941406 -4.640625 11.101562 -4.671875 C 11.132812 -4.703125 11.199219 -4.703125 11.261719 -4.734375 L 11.710938 -4.992188 C 11.933594 -5.085938 12.125 -5.214844 12.316406 -5.34375 C 12.414062 -5.40625 12.511719 -5.472656 12.605469 -5.535156 C 12.703125 -5.566406 12.765625 -5.632812 12.863281 -5.695312 C 12.957031 -5.792969 13.054688 -5.886719 13.183594 -5.984375 C 13.214844 -6.015625 13.277344 -6.046875 13.308594 -6.078125 C 13.4375 -6.207031 13.597656 -6.335938 13.789062 -6.464844 L 13.917969 -6.589844 C 14.015625 -6.6875 14.109375 -6.816406 14.238281 -6.910156 L 14.6875 -7.359375 C 14.8125 -7.488281 14.941406 -7.648438 15.070312 -7.839844 C 15.199219 -7.964844 15.324219 -8.125 15.453125 -8.320312 C 15.613281 -8.511719 15.742188 -8.671875 15.804688 -8.765625 C 15.835938 -8.796875 15.933594 -8.894531 16.03125 -9.023438 C 16.0625 -9.085938 16.125 -9.152344 16.15625 -9.183594 C 16.191406 -9.214844 16.222656 -9.246094 16.285156 -9.34375 C 16.316406 -9.4375 16.414062 -9.566406 16.507812 -9.695312 L 16.605469 -9.824219 C 16.703125 -9.917969 16.796875 -10.046875 16.894531 -10.207031 C 16.925781 -10.300781 17.019531 -10.429688 17.179688 -10.621094 C 17.214844 -10.6875 17.308594 -10.847656 17.5 -11.101562 L 17.535156 -11.132812 L 17.535156 -11.167969 C 17.535156 -11.199219 17.535156 -11.199219 17.566406 -11.230469 L 17.660156 -11.328125 C 17.820312 -11.613281 17.917969 -11.871094 17.917969 -12.09375 L 17.917969 -12.191406 C 17.917969 -12.511719 17.820312 -12.765625 17.628906 -12.925781 C 17.46875 -13.148438 17.246094 -13.277344 16.988281 -13.34375 C 16.894531 -13.40625 16.765625 -13.4375 16.636719 -13.4375 C 16.507812 -13.4375 16.382812 -13.40625 16.222656 -13.34375 C 15.964844 -13.246094 15.742188 -13.054688 15.515625 -12.765625 C 15.515625 -12.734375 15.484375 -12.703125 15.453125 -12.636719 L 15.359375 -12.542969 C 15.199219 -12.285156 15.101562 -12.15625 15.070312 -12.125 L 14.910156 -11.871094 C 14.84375 -11.773438 14.78125 -11.679688 14.75 -11.613281 C 14.652344 -11.519531 14.589844 -11.421875 14.558594 -11.328125 C 14.527344 -11.292969 14.492188 -11.230469 14.460938 -11.199219 C 14.269531 -10.972656 14.171875 -10.847656 14.140625 -10.78125 C 13.980469 -10.589844 13.886719 -10.460938 13.820312 -10.367188 C 13.789062 -10.335938 13.789062 -10.335938 13.789062 -10.300781 L 13.660156 -10.175781 C 13.628906 -10.140625 13.628906 -10.140625 13.628906 -10.109375 L 13.535156 -10.015625 C 13.5 -9.984375 13.5 -9.984375 13.5 -9.949219 C 13.46875 -9.917969 13.46875 -9.886719 13.4375 -9.855469 C 13.308594 -9.726562 13.214844 -9.597656 13.117188 -9.46875 C 12.988281 -9.34375 12.894531 -9.214844 12.796875 -9.085938 L 12.09375 -8.382812 C 12.0625 -8.351562 12.03125 -8.351562 12 -8.320312 C 11.902344 -8.222656 11.804688 -8.125 11.710938 -8.0625 C 11.613281 -7.964844 11.519531 -7.902344 11.421875 -7.839844 C 11.390625 -7.808594 11.328125 -7.773438 11.292969 -7.742188 C 11.230469 -7.710938 11.167969 -7.679688 11.132812 -7.648438 C 11.070312 -7.613281 11.007812 -7.550781 10.910156 -7.488281 C 10.78125 -7.390625 10.65625 -7.292969 10.527344 -7.230469 L 10.140625 -7.039062 L 10.078125 -7.039062 C 9.949219 -7.007812 9.824219 -6.941406 9.726562 -6.910156 C 9.566406 -6.847656 9.40625 -6.816406 9.246094 -6.78125 C 9.183594 -6.78125 9.023438 -6.75 8.765625 -6.6875 L 8.574219 -6.6875 C 8.480469 -6.65625 8.414062 -6.65625 8.351562 -6.65625 L 7.933594 -6.65625 C 7.871094 -6.65625 7.808594 -6.65625 7.742188 -6.6875 L 7.613281 -6.6875 C 7.519531 -6.75 7.421875 -6.78125 7.359375 -6.78125 C 7.292969 -6.816406 7.230469 -6.847656 7.167969 -6.878906 L 7.101562 -6.910156 L 6.910156 -7.101562 C 6.878906 -7.167969 6.816406 -7.230469 6.75 -7.292969 C 6.71875 -7.328125 6.6875 -7.390625 6.65625 -7.421875 C 6.621094 -7.488281 6.589844 -7.550781 6.558594 -7.648438 L 6.429688 -7.839844 C 6.398438 -7.933594 6.367188 -8.03125 6.335938 -8.125 C 6.304688 -8.191406 6.304688 -8.253906 6.269531 -8.285156 C 6.238281 -8.382812 6.238281 -8.445312 6.207031 -8.511719 C 6.175781 -8.636719 6.144531 -8.734375 6.109375 -8.832031 C 6.078125 -9.023438 6.046875 -9.183594 6.015625 -9.308594 C 6.015625 -9.375 6.015625 -9.4375 5.984375 -9.503906 L 5.984375 -9.597656 C 5.949219 -9.757812 5.917969 -9.949219 5.917969 -10.109375 C 5.917969 -10.269531 5.917969 -10.429688 5.886719 -10.558594 L 5.886719 -14.492188 C 6.078125 -14.492188 6.269531 -14.460938 6.496094 -14.429688 C 6.65625 -14.429688 6.878906 -14.398438 7.136719 -14.367188 L 7.230469 -14.367188 C 7.328125 -14.367188 7.550781 -14.332031 7.902344 -14.269531 L 8.160156 -14.269531 C 8.636719 -14.269531 8.957031 -14.429688 9.183594 -14.75 C 9.375 -15.003906 9.46875 -15.261719 9.46875 -15.515625 C 9.46875 -15.675781 9.4375 -15.871094 9.34375 -16.03125 C 9.183594 -16.476562 8.796875 -16.734375 8.222656 -16.796875 C 7.839844 -16.863281 7.582031 -16.894531 7.488281 -16.894531 L 7.390625 -16.894531 C 7.167969 -16.925781 6.976562 -16.957031 6.816406 -16.957031 C 6.558594 -17.019531 6.335938 -17.054688 6.144531 -17.054688 C 6.078125 -17.085938 5.984375 -17.085938 5.855469 -17.085938 L 5.855469 -18.589844 C 5.855469 -18.75 5.855469 -18.878906 5.824219 -18.972656 L 5.824219 -19.742188 C 5.824219 -19.964844 5.824219 -20.15625 5.792969 -20.253906 L 5.792969 -20.667969 C 5.792969 -20.796875 5.792969 -20.894531 5.757812 -20.957031 L 5.757812 -21.050781 C 5.757812 -21.148438 5.757812 -21.246094 5.726562 -21.308594 L 5.726562 -21.40625 C 5.695312 -21.597656 5.664062 -21.722656 5.597656 -21.820312 C 5.375 -22.398438 4.992188 -22.683594 4.414062 -22.683594 Z M 4.414062 -22.683594 "/></g></g></g></svg>