<svg xmlns="http://www.w3.org/2000/svg" width="500" viewBox="0 0 375 375" height="500" version="1.0"><defs><clipPath id="a"><path d="M185 201h190v174H185Zm0 0"/></clipPath><clipPath id="b"><path d="m80.2852 316.7578 245.5625-174.9297 137.0742 192.418-245.5625 174.9336Zm0 0"/></clipPath><clipPath id="c"><path d="m80.2852 316.7578 245.5625-174.9297 137.0742 192.418-245.5625 174.9336Zm0 0"/></clipPath><clipPath id="d"><path d="M40.6445 311.6016h12.75v10.5h-12.75Zm0 0"/></clipPath><clipPath id="e"><path d="M38.7852 304.3906h8.25v7.5h-8.25Zm0 0"/></clipPath><clipPath id="f"><path d="M47.2969 299.4648h11.25v9.75h-11.25Zm0 0"/></clipPath></defs><path fill="#fd4206" d="M288.121 41.4648c14.1524-3.9648 25.9063-2.0351 32.4884 3.6875 10.7656 9.3633 16.8789 16.4961 14.8789 31.6836-1.4258 10.7852-.086 16.4063-5.5235 22.332-8.0117 8.7266-26.1992 14.504-36.828 10.6524-9.8712-3.5781-21.0313-4.293-25.793-21.1601-1.9258-6.8243-5.3165-21.2266.7539-29.918 7.3554-10.5274 12.789-15.25 20.0234-17.2774Zm0 0"/><g clip-path="url(#a)"><g clip-path="url(#b)"><g clip-path="url(#c)"><path fill="#6edcdc" d="M235.039 207.5625c-19.5117 13.711-11.8202 40.0898-9.168 59.496 3.59 23.422-23.1679 33.172-33.035 50.6759-11.1876 13.918-9.4141 36.9765 7.3515 45.7539 12.457 7.8125 34.121 16.293 30.129 34.8281-5.918 23.0078-35.1876 30.6524-38.0626 55.3008-1.3945 18.3555 19.5977 31.7734 36.5703 27.5664 26.0977-2.5117 43.6602-25.0078 65.1719-37.5274 36.3281-26.0937 79.082-45.1289 108.836-79.4687 21.8866-27.6484 30.328-72.2266 4.1406-100.0234-13.3907-18.0586-41.7813-21.332-58.254-5.5743-10.6796 6.5782-20.3085 17.6797-31.5546 21.3907-22.2266-1.625-28.4727-24.9727-31.9883-43.336-3.5469-12.789-5.9258-29.5507-21.2695-33.2422-9.586-4.3437-20.8204-2.5312-28.8672 4.1602Zm0 0"/></g></g></g><path fill="#fef10b" d="M209.0898 113.8516c9.4688 33.793 4.8672 61.8632-8.8007 77.578-22.3594 25.715-39.3907 40.3165-75.6602 35.5352-25.7617-3.3984-39.1836-.1992-53.336-13.1914-20.8398-19.1328-34.6288-62.5586-25.4335-87.9414 8.543-23.5703 10.25-50.2226 50.5273-61.5937 16.2969-4.5977 50.6914-12.6992 71.4492 1.8008 25.1368 17.5586 36.418 30.543 41.254 47.8125Zm0 0"/><g clip-path="url(#d)"><path fill="#fd4206" d="M44.004 322.0352c-.6524-.1836-1.258-.5938-1.9337-1.3047-.5078-.539-1.0898-1.3594-1.2305-1.7383-.1757-.4805-.0507-1.3399.297-2.039.539-1.0704 1.2577-1.922 2.7734-3.2774 1.2812-1.1485 1.8789-1.4336 3.9218-1.879.8477-.1874 1.582-.1952 2.2657-.0273.9843.2422 1.5859.789 2.3085 2.0938.547.996.6211 1.2148.6563 1.9375.0273.5078.0117.6289-.1094 1.086-.0742.2812-.1992.6288-.2734.7695-.293.5312-1.4961 1.5507-3.082 2.6015-1.4102.9336-2.332 1.3633-3.6094 1.6797-.664.164-1.5899.211-1.9844.0977"/></g><g clip-path="url(#e)"><path fill="#fd4206" d="M41.0781 311.5195c-.4453-.125-.8593-.4062-1.3203-.8906-.3476-.371-.746-.9297-.8398-1.1875-.1211-.3281-.0352-.918.203-1.3945.3673-.7305.8595-1.3125 1.8946-2.2422.875-.7813 1.2813-.9766 2.6797-1.2813.5781-.1289 1.0781-.1328 1.5469-.0195.6719.164 1.086.539 1.5781 1.4336.375.6797.4258.8281.4492 1.3203.0157.3477.0078.4336-.0742.7422-.0547.1953-.1367.4297-.1914.5273-.1953.3633-1.0195 1.0586-2.1016 1.7774-.9648.6367-1.5976.9297-2.4687 1.1484-.4531.1133-1.086.1446-1.3555.0664"/></g><g clip-path="url(#f)"><path fill="#fd4206" d="M50.4219 309.207c-.6094-.1718-1.1758-.5547-1.8047-1.2187-.4766-.504-1.0156-1.2695-1.1484-1.6211-.1641-.4492-.047-1.254.2773-1.9024.5039-1.0039 1.1758-1.7968 2.5898-3.0625 1.1953-1.0703 1.75-1.3359 3.6602-1.7539.789-.1718 1.4766-.1796 2.1133-.0234.918.2227 1.4804.7344 2.1523 1.9531.5156.9297.582 1.1328.6172 1.8086.0234.4727.0117.5899-.1016 1.0117-.0703.2657-.1875.586-.2578.7188-.2734.5-1.3984 1.4492-2.875 2.4297-1.3164.871-2.1797 1.2734-3.371 1.5664-.6172.1523-1.4844.1992-1.8516.0937"/></g></svg>
