<svg xmlns="http://www.w3.org/2000/svg" xmlns:xlink="http://www.w3.org/1999/xlink" width="500" zoomAndPan="magnify" viewBox="0 0 375 374.999991" height="500" preserveAspectRatio="xMidYMid meet" version="1.0"><defs><clipPath id="23d555c31f"><path d="M 185 201 L 375 201 L 375 375 L 185 375 Z M 185 201 " clip-rule="nonzero"/></clipPath><clipPath id="1e91815024"><path d="M 80.285156 316.757812 L 325.847656 141.828125 L 462.921875 334.246094 L 217.359375 509.179688 Z M 80.285156 316.757812 " clip-rule="nonzero"/></clipPath><clipPath id="abeb21a95e"><path d="M 80.285156 316.757812 L 325.847656 141.828125 L 462.921875 334.246094 L 217.359375 509.179688 Z M 80.285156 316.757812 " clip-rule="nonzero"/></clipPath><clipPath id="85aa9efe6e"><path d="M 40.644531 311.601562 L 53.394531 311.601562 L 53.394531 322.101562 L 40.644531 322.101562 Z M 40.644531 311.601562 " clip-rule="nonzero"/></clipPath><clipPath id="7bca2aea8d"><path d="M 38.785156 304.390625 L 47.035156 304.390625 L 47.035156 311.890625 L 38.785156 311.890625 Z M 38.785156 304.390625 " clip-rule="nonzero"/></clipPath><clipPath id="749a2ed2e2"><path d="M 47.296875 299.464844 L 58.546875 299.464844 L 58.546875 309.214844 L 47.296875 309.214844 Z M 47.296875 299.464844 " clip-rule="nonzero"/></clipPath></defs><path fill="#fd4206" d="M 288.121094 41.464844 C 302.273438 37.5 314.027344 39.429688 320.609375 45.152344 C 331.375 54.515625 337.488281 61.648438 335.488281 76.835938 C 334.0625 87.621094 335.402344 93.242188 329.964844 99.167969 C 321.953125 107.894531 303.765625 113.671875 293.136719 109.820312 C 283.265625 106.242188 272.105469 105.527344 267.34375 88.660156 C 265.417969 81.835938 262.027344 67.433594 268.097656 58.742188 C 275.453125 48.214844 280.886719 43.492188 288.121094 41.464844 Z M 288.121094 41.464844 " fill-opacity="1" fill-rule="nonzero"/><g clip-path="url(#23d555c31f)"><g clip-path="url(#1e91815024)"><g clip-path="url(#abeb21a95e)"><path fill="#6edcdc" d="M 235.039062 207.5625 C 215.527344 221.273438 223.21875 247.652344 225.871094 267.058594 C 229.460938 290.480469 202.703125 300.230469 192.835938 317.734375 C 181.648438 331.652344 183.421875 354.710938 200.1875 363.488281 C 212.644531 371.300781 234.308594 379.78125 230.316406 398.316406 C 224.398438 421.324219 195.128906 428.96875 192.253906 453.617188 C 190.859375 471.972656 211.851562 485.390625 228.824219 481.183594 C 254.921875 478.671875 272.484375 456.175781 293.996094 443.65625 C 330.324219 417.5625 373.078125 398.527344 402.832031 364.1875 C 424.71875 336.539062 433.160156 291.960938 406.972656 264.164062 C 393.582031 246.105469 365.191406 242.832031 348.71875 258.589844 C 338.039062 265.167969 328.410156 276.269531 317.164062 279.980469 C 294.9375 278.355469 288.691406 255.007812 285.175781 236.644531 C 281.628906 223.855469 279.25 207.09375 263.90625 203.402344 C 254.320312 199.058594 243.085938 200.871094 235.039062 207.5625 Z M 235.039062 207.5625 " fill-opacity="1" fill-rule="nonzero"/></g></g></g><path fill="#fef10b" d="M 209.089844 113.851562 C 218.558594 147.644531 213.957031 175.714844 200.289062 191.429688 C 177.929688 217.144531 160.898438 231.746094 124.628906 226.964844 C 98.867188 223.566406 85.445312 226.765625 71.292969 213.773438 C 50.453125 194.640625 36.664062 151.214844 45.859375 125.832031 C 54.402344 102.261719 56.109375 75.609375 96.386719 64.238281 C 112.683594 59.640625 147.078125 51.539062 167.835938 66.039062 C 192.972656 83.597656 204.253906 96.582031 209.089844 113.851562 Z M 209.089844 113.851562 " fill-opacity="1" fill-rule="nonzero"/><g clip-path="url(#85aa9efe6e)"><path fill="#fd4206" d="M 44.003906 322.035156 C 43.351562 321.851562 42.746094 321.441406 42.070312 320.730469 C 41.5625 320.191406 40.980469 319.371094 40.839844 318.992188 C 40.664062 318.511719 40.789062 317.652344 41.136719 316.953125 C 41.675781 315.882812 42.394531 315.03125 43.910156 313.675781 C 45.191406 312.527344 45.789062 312.242188 47.832031 311.796875 C 48.679688 311.609375 49.414062 311.601562 50.097656 311.769531 C 51.082031 312.011719 51.683594 312.558594 52.40625 313.863281 C 52.953125 314.859375 53.027344 315.078125 53.0625 315.800781 C 53.089844 316.308594 53.074219 316.429688 52.953125 316.886719 C 52.878906 317.167969 52.753906 317.515625 52.679688 317.65625 C 52.386719 318.1875 51.183594 319.207031 49.597656 320.257812 C 48.1875 321.191406 47.265625 321.621094 45.988281 321.9375 C 45.324219 322.101562 44.398438 322.148438 44.003906 322.035156 " fill-opacity="1" fill-rule="nonzero"/></g><g clip-path="url(#7bca2aea8d)"><path fill="#fd4206" d="M 41.078125 311.519531 C 40.632812 311.394531 40.21875 311.113281 39.757812 310.628906 C 39.410156 310.257812 39.011719 309.699219 38.917969 309.441406 C 38.796875 309.113281 38.882812 308.523438 39.121094 308.046875 C 39.488281 307.316406 39.980469 306.734375 41.015625 305.804688 C 41.890625 305.023438 42.296875 304.828125 43.695312 304.523438 C 44.273438 304.394531 44.773438 304.390625 45.242188 304.503906 C 45.914062 304.667969 46.328125 305.042969 46.820312 305.9375 C 47.195312 306.617188 47.246094 306.765625 47.269531 307.257812 C 47.285156 307.605469 47.277344 307.691406 47.195312 308 C 47.140625 308.195312 47.058594 308.429688 47.003906 308.527344 C 46.808594 308.890625 45.984375 309.585938 44.902344 310.304688 C 43.9375 310.941406 43.304688 311.234375 42.433594 311.453125 C 41.980469 311.566406 41.347656 311.597656 41.078125 311.519531 " fill-opacity="1" fill-rule="nonzero"/></g><g clip-path="url(#749a2ed2e2)"><path fill="#fd4206" d="M 50.421875 309.207031 C 49.8125 309.035156 49.246094 308.652344 48.617188 307.988281 C 48.140625 307.484375 47.601562 306.71875 47.46875 306.367188 C 47.304688 305.917969 47.421875 305.113281 47.746094 304.464844 C 48.25 303.460938 48.921875 302.667969 50.335938 301.402344 C 51.53125 300.332031 52.085938 300.066406 53.996094 299.648438 C 54.785156 299.476562 55.472656 299.46875 56.109375 299.625 C 57.027344 299.847656 57.589844 300.359375 58.261719 301.578125 C 58.777344 302.507812 58.84375 302.710938 58.878906 303.386719 C 58.902344 303.859375 58.890625 303.976562 58.777344 304.398438 C 58.707031 304.664062 58.589844 304.984375 58.519531 305.117188 C 58.246094 305.617188 57.121094 306.566406 55.644531 307.546875 C 54.328125 308.417969 53.464844 308.820312 52.273438 309.113281 C 51.65625 309.265625 50.789062 309.3125 50.421875 309.207031 " fill-opacity="1" fill-rule="nonzero"/></g></svg>