<svg xmlns="http://www.w3.org/2000/svg" width="816" viewBox="0 0 612 792" height="1056" version="1.0"><defs><clipPath id="a"><path d="M311 424.512h301V792H311Zm0 0"/></clipPath><clipPath id="b"><path d="M88.895 668.992 607.523 299.54l289.5 406.39-518.628 369.458Zm0 0"/></clipPath><clipPath id="c"><path d="M88.895 668.992 607.523 299.54l289.5 406.39-518.628 369.458Zm0 0"/></clipPath><clipPath id="d"><path d="M5.172 658.102H32v22.175H5.172Zm0 0"/></clipPath><clipPath id="e"><path d="M1.246 642.871h17.422v15.844H1.246Zm0 0"/></clipPath><clipPath id="f"><path d="M19.223 632.469H42.98v20.593H19.223Zm0 0"/></clipPath></defs><path fill="#fd4206" d="M527.844 87.574c29.89-8.375 54.715-4.297 68.613 7.79 22.738 19.773 35.648 34.84 31.426 66.913-3.012 22.778-.184 34.649-11.664 47.164-16.922 18.434-55.336 30.633-77.782 22.5-20.847-7.558-44.417-9.066-54.476-44.691-4.066-14.414-11.227-44.832 1.594-63.188 15.535-22.234 27.007-32.207 42.289-36.488Zm0 0"/><g clip-path="url(#a)"><g clip-path="url(#b)"><g clip-path="url(#c)"><path fill="#6edcdc" d="M415.734 438.371c-41.21 28.957-24.964 84.672-19.363 125.656 7.582 49.47-48.93 70.059-69.77 107.028-23.628 29.394-19.882 78.093 15.528 96.633 26.308 16.5 72.062 34.41 63.629 73.558-12.496 48.59-74.313 64.734-80.387 116.793-2.945 38.766 41.39 67.106 77.238 58.219 55.118-5.305 92.207-52.817 137.641-79.254 76.727-55.113 167.023-95.313 229.863-167.84 46.223-58.394 64.051-152.543 8.746-211.25-28.28-38.14-88.242-45.055-123.035-11.773-22.554 13.894-42.89 37.34-66.64 45.18-46.946-3.434-60.137-52.743-67.563-91.528-7.488-27.012-12.516-62.41-44.918-70.207-20.246-9.176-43.973-5.348-60.969 8.785Zm0 0"/></g></g></g><path fill="#fef10b" d="M360.93 240.453c19.996 71.371 10.277 130.656-18.586 163.848-47.227 54.308-83.196 85.148-159.797 75.05-54.406-7.18-82.754-.421-112.645-27.863-44.015-40.406-73.136-132.12-53.715-185.73 18.043-49.781 21.649-106.07 106.711-130.086 34.422-9.711 107.063-26.82 150.903 3.8 53.09 37.087 76.914 64.508 87.129 100.981Zm0 0"/><g clip-path="url(#d)"><path fill="#fd4206" d="M12.27 680.137c-1.38-.387-2.66-1.254-4.086-2.754-1.07-1.137-2.301-2.871-2.598-3.672-.371-1.016-.11-2.828.625-4.305 1.14-2.261 2.656-4.058 5.86-6.922 2.706-2.425 3.968-3.027 8.28-3.968 1.794-.399 3.344-.414 4.786-.059 2.078.512 3.351 1.668 4.875 4.422 1.156 2.105 1.312 2.566 1.386 4.094.059 1.07.028 1.328-.23 2.293-.156.593-.422 1.328-.578 1.625-.617 1.12-3.16 3.273-6.508 5.492-2.98 1.972-4.926 2.883-7.625 3.55-1.402.344-3.355.446-4.187.204"/></g><g clip-path="url(#e)"><path fill="#fd4206" d="M6.09 657.93c-.942-.266-1.817-.86-2.79-1.883-.734-.781-1.577-1.961-1.773-2.508-.257-.691-.074-1.937.43-2.945.773-1.543 1.813-2.77 4-4.735 1.848-1.648 2.707-2.062 5.66-2.707 1.219-.27 2.278-.28 3.266-.039 1.418.344 2.293 1.137 3.332 3.028.793 1.433.898 1.75.95 2.789.034.734.015.914-.157 1.566-.117.414-.29.906-.403 1.113-.414.77-2.156 2.235-4.44 3.754-2.036 1.344-3.376 1.965-5.216 2.426-.957.238-2.293.305-2.86.14"/></g><g clip-path="url(#f)"><path fill="#fd4206" d="M25.824 653.047c-1.289-.363-2.484-1.172-3.812-2.574-1.008-1.067-2.145-2.684-2.426-3.426-.348-.95-.098-2.649.586-4.016 1.062-2.12 2.484-3.797 5.469-6.468 2.523-2.262 3.695-2.82 7.73-3.704 1.668-.363 3.117-.382 4.465-.05 1.937.468 3.125 1.55 4.543 4.125 1.09 1.964 1.23 2.39 1.305 3.82.05.996.023 1.246-.215 2.137-.149.558-.395 1.238-.543 1.515-.578 1.059-2.953 3.063-6.074 5.133-2.778 1.84-4.602 2.688-7.118 3.309-1.304.32-3.136.422-3.91.199"/></g></svg>