<svg xmlns="http://www.w3.org/2000/svg" width="816" viewBox="0 0 612 792" height="1056" version="1.0"><defs><clipPath id="a"><path d="M0 392h286.82v400H0Zm0 0"/></clipPath><clipPath id="b"><path d="M42.34 169.563 411.79 688.19 5.401 977.691l-369.457-518.629Zm0 0"/></clipPath><clipPath id="c"><path d="M42.34 169.563 411.79 688.19 5.401 977.691l-369.457-518.629Zm0 0"/></clipPath><clipPath id="d"><path d="M31.055 86H53.23v26.77H31.055Zm0 0"/></clipPath><clipPath id="e"><path d="M53 82h15.457v17.34H53Zm0 0"/></clipPath><clipPath id="f"><path d="M58.27 100h20.593v23.652H58.27Zm0 0"/></clipPath></defs><path fill="#fd4206" d="M623.758 608.512c8.375 29.89 4.297 54.715-7.79 68.617-19.773 22.734-34.84 35.644-66.913 31.422-22.778-3.012-34.653-.18-47.168-11.664-18.43-16.922-30.63-55.332-22.496-77.782 7.558-20.847 9.066-44.418 44.691-54.476 14.41-4.067 44.828-11.227 63.188 1.594 22.23 15.535 32.207 27.011 36.488 42.289Zm0 0"/><g clip-path="url(#a)"><g clip-path="url(#b)"><g clip-path="url(#c)"><path fill="#6edcdc" d="M272.96 496.402c-28.96-41.207-84.67-24.964-125.655-19.363-49.47 7.582-70.059-48.93-107.028-69.77-29.394-23.628-78.093-19.882-96.632 15.528-16.5 26.308-34.41 72.062-73.56 63.633-48.589-12.5-64.737-74.317-116.792-80.39-38.77-2.946-67.106 41.39-58.223 77.237 5.305 55.118 52.817 92.211 79.258 137.641 55.11 76.727 95.313 167.023 167.84 229.863 58.395 46.227 152.543 64.055 211.25 8.746 38.137-28.28 45.05-88.242 11.773-123.035-13.894-22.554-37.34-42.89-45.18-66.64 3.434-46.946 52.743-60.137 91.528-67.559 27.008-7.492 62.41-12.516 70.207-44.922 9.172-20.246 5.344-43.973-8.785-60.969Zm0 0"/></g></g></g><path fill="#fef10b" d="M470.875 441.598c-71.367 20-130.652 10.28-163.844-18.586-54.308-47.223-85.148-83.196-75.05-159.797 7.18-54.406.421-82.754 27.863-112.645 40.406-44.011 132.12-73.136 185.73-53.715 49.781 18.043 106.07 21.649 130.086 106.715 9.711 34.418 26.82 107.059-3.805 150.899-37.082 53.09-64.503 76.914-100.98 87.129Zm0 0"/><g clip-path="url(#d)"><path fill="#fd4206" d="M31.191 92.938c.391-1.38 1.254-2.657 2.758-4.086 1.137-1.07 2.871-2.301 3.672-2.598 1.012-.371 2.828-.106 4.305.625 2.261 1.14 4.058 2.66 6.922 5.86 2.425 2.706 3.027 3.968 3.968 8.28.395 1.793.414 3.344.059 4.786-.512 2.082-1.668 3.351-4.422 4.879-2.105 1.152-2.566 1.308-4.094 1.382-1.07.059-1.328.028-2.293-.23-.593-.156-1.328-.418-1.625-.578-1.12-.617-3.273-3.156-5.496-6.508-1.968-2.977-2.879-4.926-3.547-7.621-.343-1.402-.445-3.36-.207-4.192"/></g><g clip-path="url(#e)"><path fill="#fd4206" d="M53.402 86.758c.266-.942.86-1.817 1.88-2.79.784-.734 1.964-1.573 2.511-1.773.691-.257 1.937-.074 2.941.43 1.543.773 2.774 1.813 4.739 4 1.648 1.848 2.062 2.707 2.707 5.66.27 1.219.277 2.278.039 3.266-.348 1.418-1.137 2.293-3.028 3.332-1.437.793-1.75.902-2.789.949-.734.035-.914.02-1.566-.156-.414-.114-.906-.29-1.113-.403-.77-.414-2.239-2.156-3.754-4.441-1.344-2.035-1.965-3.371-2.426-5.21-.238-.958-.305-2.294-.14-2.864"/></g><g clip-path="url(#f)"><path fill="#fd4206" d="M58.285 106.492c.363-1.289 1.172-2.484 2.574-3.812 1.067-1.008 2.684-2.145 3.426-2.426.95-.348 2.649-.098 4.016.586 2.12 1.062 3.797 2.484 6.469 5.469 2.261 2.527 2.82 3.695 3.703 7.73.363 1.668.379 3.121.05 4.465-.468 1.937-1.55 3.125-4.125 4.543-1.964 1.09-2.394 1.23-3.82 1.305-.996.05-1.246.027-2.137-.215-.562-.149-1.238-.395-1.52-.543-1.054-.578-3.058-2.953-5.128-6.074-1.84-2.778-2.691-4.602-3.309-7.118-.32-1.304-.422-3.136-.199-3.91"/></g></svg>