<svg xmlns="http://www.w3.org/2000/svg" xmlns:xlink="http://www.w3.org/1999/xlink" width="336" zoomAndPan="magnify" viewBox="0 0 252 143.999998" height="192" preserveAspectRatio="xMidYMid meet" version="1.0"><defs><g/></defs><g fill="#ffffff" fill-opacity="1"><g transform="translate(74.900388, 91.750017)"><g><path d="M 6.589844 -17.019531 C 6.65625 -16.734375 6.816406 -16.476562 7.039062 -16.285156 C 7.261719 -16.125 7.519531 -16.03125 7.773438 -16.03125 C 8.03125 -16.03125 8.285156 -16.09375 8.511719 -16.222656 C 8.734375 -16.347656 8.925781 -16.542969 9.023438 -16.765625 C 9.085938 -16.925781 9.117188 -17.054688 9.117188 -17.214844 C 9.117188 -17.339844 9.085938 -17.46875 9.054688 -17.628906 L 9.054688 -18.109375 C 9.054688 -18.269531 9.023438 -18.429688 8.992188 -18.558594 C 8.992188 -18.71875 8.957031 -18.910156 8.925781 -19.101562 C 8.925781 -19.292969 8.863281 -19.484375 8.765625 -19.707031 C 8.734375 -19.867188 8.671875 -20.0625 8.542969 -20.316406 C 8.480469 -20.574219 8.351562 -20.796875 8.191406 -21.019531 C 8 -21.339844 7.679688 -21.597656 7.199219 -21.820312 C 6.941406 -21.980469 6.621094 -22.078125 6.269531 -22.140625 C 6.046875 -22.238281 5.726562 -22.269531 5.34375 -22.269531 C 5.085938 -22.269531 4.800781 -22.238281 4.480469 -22.203125 C 4.253906 -22.171875 4 -22.078125 3.710938 -21.949219 C 3.519531 -21.917969 3.296875 -21.789062 3.039062 -21.597656 C 2.847656 -21.5 2.65625 -21.339844 2.429688 -21.085938 C 2.304688 -20.988281 2.144531 -20.796875 1.953125 -20.539062 L 1.886719 -20.414062 C 1.792969 -20.285156 1.695312 -20.125 1.601562 -19.933594 C 1.535156 -19.773438 1.441406 -19.550781 1.3125 -19.292969 C 1.246094 -19.101562 1.183594 -18.878906 1.121094 -18.621094 C 1.085938 -18.523438 1.054688 -18.398438 1.023438 -18.238281 L 0.960938 -17.980469 C 0.960938 -17.949219 0.960938 -17.917969 0.929688 -17.886719 C 0.894531 -17.757812 0.832031 -17.566406 0.800781 -17.308594 C 0.800781 -17.117188 0.769531 -16.894531 0.703125 -16.605469 C 0.671875 -16.414062 0.640625 -16.191406 0.609375 -15.902344 C 0.574219 -15.710938 0.542969 -15.484375 0.511719 -15.199219 C 0.511719 -15.039062 0.480469 -14.8125 0.449219 -14.558594 L 0.449219 -14.207031 C 0.414062 -14.078125 0.414062 -13.917969 0.414062 -13.726562 C 0.414062 -13.566406 0.382812 -13.34375 0.351562 -13.085938 L 0.351562 -11.871094 C 0.320312 -11.742188 0.320312 -11.613281 0.320312 -11.484375 L 0.320312 -11.199219 C 0.351562 -11.039062 0.351562 -10.878906 0.351562 -10.71875 L 0.351562 -10.367188 C 0.382812 -10.238281 0.382812 -10.109375 0.382812 -9.984375 C 0.414062 -9.917969 0.414062 -9.824219 0.414062 -9.726562 C 0.449219 -9.597656 0.480469 -9.4375 0.511719 -9.246094 C 0.542969 -9.183594 0.542969 -9.085938 0.574219 -8.992188 C 0.609375 -8.863281 0.640625 -8.703125 0.671875 -8.511719 C 0.703125 -8.445312 0.703125 -8.382812 0.734375 -8.285156 C 0.769531 -8.125 0.832031 -7.964844 0.894531 -7.808594 C 0.960938 -7.613281 1.054688 -7.390625 1.183594 -7.101562 C 1.3125 -6.941406 1.441406 -6.71875 1.535156 -6.464844 C 1.632812 -6.335938 1.726562 -6.207031 1.824219 -6.078125 L 2.015625 -5.824219 C 2.207031 -5.632812 2.429688 -5.4375 2.6875 -5.246094 C 2.878906 -5.121094 3.136719 -4.960938 3.457031 -4.800781 C 3.550781 -4.765625 3.648438 -4.765625 3.742188 -4.734375 C 3.902344 -4.671875 4.09375 -4.605469 4.320312 -4.574219 C 4.574219 -4.542969 4.863281 -4.511719 5.183594 -4.511719 C 5.40625 -4.542969 5.664062 -4.574219 5.917969 -4.605469 C 6.175781 -4.640625 6.429688 -4.703125 6.6875 -4.800781 C 6.910156 -4.894531 7.136719 -4.992188 7.390625 -5.121094 C 7.550781 -5.214844 7.742188 -5.34375 7.964844 -5.503906 C 8.125 -5.632812 8.320312 -5.792969 8.511719 -5.984375 C 8.671875 -6.144531 8.832031 -6.335938 8.992188 -6.527344 C 9.023438 -6.589844 9.085938 -6.65625 9.152344 -6.75 C 9.246094 -6.847656 9.308594 -6.976562 9.40625 -7.136719 C 9.503906 -7.328125 9.597656 -7.550781 9.695312 -7.808594 C 9.726562 -7.871094 9.726562 -7.933594 9.757812 -8.03125 C 9.824219 -8.125 9.886719 -8.285156 9.917969 -8.445312 C 9.949219 -8.542969 9.984375 -8.671875 10.015625 -8.796875 C 10.046875 -8.863281 10.046875 -8.925781 10.078125 -9.023438 C 10.109375 -9.152344 10.140625 -9.277344 10.140625 -9.40625 C 10.140625 -9.566406 10.109375 -9.726562 10.015625 -9.886719 C 9.917969 -10.140625 9.726562 -10.335938 9.503906 -10.429688 C 9.277344 -10.558594 9.023438 -10.621094 8.765625 -10.621094 L 8.703125 -10.621094 C 8.480469 -10.621094 8.253906 -10.527344 8.03125 -10.335938 C 7.808594 -10.175781 7.679688 -9.917969 7.582031 -9.597656 C 7.550781 -9.4375 7.519531 -9.277344 7.453125 -9.152344 C 7.421875 -8.992188 7.359375 -8.832031 7.292969 -8.703125 L 7.230469 -8.574219 C 7.199219 -8.480469 7.167969 -8.382812 7.136719 -8.320312 C 7.070312 -8.191406 7.007812 -8.09375 6.941406 -8 C 6.910156 -7.964844 6.878906 -7.902344 6.847656 -7.871094 C 6.816406 -7.839844 6.75 -7.773438 6.71875 -7.742188 C 6.589844 -7.648438 6.496094 -7.550781 6.398438 -7.488281 C 6.304688 -7.390625 6.207031 -7.328125 6.109375 -7.261719 C 6.046875 -7.230469 5.984375 -7.199219 5.917969 -7.167969 L 5.792969 -7.101562 C 5.695312 -7.070312 5.597656 -7.039062 5.503906 -7.039062 L 5.3125 -7.039062 C 5.246094 -7.007812 5.183594 -7.007812 5.121094 -7.007812 L 4.765625 -7.007812 C 4.671875 -7.039062 4.574219 -7.070312 4.480469 -7.070312 C 4.449219 -7.101562 4.414062 -7.101562 4.382812 -7.136719 C 4.320312 -7.167969 4.253906 -7.199219 4.222656 -7.230469 C 4.160156 -7.292969 4.0625 -7.359375 3.96875 -7.421875 C 3.902344 -7.550781 3.839844 -7.648438 3.742188 -7.710938 C 3.710938 -7.808594 3.648438 -7.933594 3.582031 -8.03125 L 3.519531 -8.160156 C 3.488281 -8.253906 3.421875 -8.351562 3.390625 -8.445312 C 3.359375 -8.511719 3.328125 -8.574219 3.296875 -8.636719 C 3.261719 -8.734375 3.261719 -8.796875 3.230469 -8.863281 C 3.199219 -8.957031 3.167969 -9.054688 3.136719 -9.152344 C 3.101562 -9.246094 3.101562 -9.34375 3.070312 -9.40625 C 3.039062 -9.503906 3.039062 -9.597656 3.007812 -9.664062 C 2.976562 -9.757812 2.976562 -9.824219 2.976562 -9.886719 C 2.945312 -10.015625 2.945312 -10.109375 2.945312 -10.207031 L 2.945312 -10.527344 C 2.910156 -10.621094 2.910156 -10.71875 2.910156 -10.8125 C 2.910156 -10.972656 2.910156 -11.132812 2.878906 -11.261719 L 2.878906 -11.773438 C 2.910156 -11.902344 2.910156 -12.03125 2.910156 -12.15625 L 2.910156 -12.894531 C 2.945312 -13.183594 2.945312 -13.40625 2.945312 -13.597656 C 2.945312 -13.660156 2.945312 -13.726562 2.976562 -13.789062 C 3.007812 -13.980469 3.007812 -14.140625 3.007812 -14.269531 L 3.007812 -14.367188 C 3.039062 -14.589844 3.070312 -14.78125 3.070312 -14.941406 L 3.070312 -15.039062 C 3.101562 -15.261719 3.136719 -15.453125 3.136719 -15.613281 C 3.167969 -15.871094 3.199219 -16.09375 3.230469 -16.253906 C 3.261719 -16.507812 3.296875 -16.703125 3.328125 -16.863281 C 3.359375 -16.957031 3.359375 -17.054688 3.390625 -17.148438 C 3.421875 -17.277344 3.457031 -17.375 3.457031 -17.4375 C 3.488281 -17.597656 3.519531 -17.726562 3.550781 -17.820312 L 3.582031 -17.949219 L 3.648438 -18.140625 C 3.679688 -18.238281 3.710938 -18.332031 3.742188 -18.429688 C 3.777344 -18.460938 3.777344 -18.523438 3.777344 -18.558594 C 3.808594 -18.683594 3.871094 -18.78125 3.902344 -18.84375 L 4.0625 -19.164062 C 4.160156 -19.261719 4.222656 -19.324219 4.253906 -19.390625 C 4.320312 -19.453125 4.382812 -19.515625 4.449219 -19.550781 C 4.542969 -19.613281 4.605469 -19.644531 4.671875 -19.675781 C 4.765625 -19.742188 4.863281 -19.773438 4.960938 -19.773438 C 5.023438 -19.804688 5.085938 -19.804688 5.152344 -19.804688 C 5.214844 -19.804688 5.246094 -19.804688 5.277344 -19.804688 C 5.664062 -19.804688 5.917969 -19.742188 6.015625 -19.644531 C 6.144531 -19.550781 6.238281 -19.355469 6.335938 -19.035156 C 6.335938 -19.003906 6.335938 -19.003906 6.367188 -18.972656 C 6.398438 -18.878906 6.398438 -18.78125 6.398438 -18.683594 C 6.398438 -18.652344 6.398438 -18.652344 6.429688 -18.621094 C 6.464844 -18.523438 6.464844 -18.429688 6.464844 -18.332031 L 6.464844 -18.171875 C 6.496094 -18.109375 6.496094 -18.046875 6.496094 -17.980469 L 6.496094 -17.628906 C 6.527344 -17.5 6.527344 -17.40625 6.527344 -17.339844 C 6.527344 -17.308594 6.527344 -17.308594 6.558594 -17.277344 C 6.589844 -17.179688 6.589844 -17.117188 6.589844 -17.019531 Z M 6.589844 -17.019531 "/></g></g></g><g fill="#ffffff" fill-opacity="1"><g transform="translate(85.329823, 91.750017)"><g><path d="M 3.839844 -11.773438 C 3.871094 -11.773438 3.902344 -11.773438 3.902344 -11.773438 C 3.902344 -11.742188 3.902344 -11.742188 3.902344 -11.710938 L 4.09375 -11.644531 C 4.191406 -11.582031 4.320312 -11.519531 4.449219 -11.484375 C 4.511719 -11.453125 4.605469 -11.453125 4.703125 -11.421875 C 4.800781 -11.390625 4.894531 -11.359375 4.992188 -11.328125 L 5.472656 -11.261719 C 5.632812 -11.230469 5.824219 -11.199219 6.015625 -11.167969 C 6.109375 -11.167969 6.207031 -11.167969 6.304688 -11.132812 C 6.335938 -11.101562 6.335938 -11.101562 6.367188 -11.101562 C 6.398438 -11.070312 6.429688 -11.070312 6.464844 -11.039062 C 6.496094 -11.007812 6.496094 -10.941406 6.496094 -10.910156 C 6.589844 -10.78125 6.65625 -10.621094 6.71875 -10.429688 C 6.78125 -10.300781 6.847656 -10.175781 6.910156 -10.015625 C 6.976562 -9.855469 7.007812 -9.695312 7.007812 -9.566406 C 7.039062 -9.46875 7.070312 -9.40625 7.070312 -9.34375 C 7.070312 -9.277344 7.070312 -9.214844 7.039062 -9.183594 C 7.039062 -9.023438 7.039062 -8.894531 7.007812 -8.734375 C 7.007812 -8.605469 6.976562 -8.480469 6.910156 -8.320312 C 6.910156 -8.191406 6.878906 -8.0625 6.78125 -7.933594 L 6.71875 -7.808594 C 6.6875 -7.742188 6.65625 -7.679688 6.621094 -7.613281 C 6.558594 -7.488281 6.496094 -7.390625 6.429688 -7.328125 C 6.398438 -7.292969 6.367188 -7.292969 6.335938 -7.261719 C 6.304688 -7.230469 6.269531 -7.199219 6.238281 -7.167969 C 6.207031 -7.136719 6.175781 -7.136719 6.144531 -7.101562 C 6.109375 -7.070312 6.078125 -7.039062 6.046875 -7.007812 C 5.949219 -6.976562 5.855469 -6.941406 5.726562 -6.910156 C 5.695312 -6.910156 5.664062 -6.910156 5.632812 -6.878906 C 5.535156 -6.847656 5.472656 -6.847656 5.4375 -6.847656 L 5.023438 -6.847656 C 4.960938 -6.878906 4.894531 -6.878906 4.863281 -6.878906 C 4.765625 -6.910156 4.640625 -6.941406 4.511719 -6.976562 C 4.382812 -7.039062 4.253906 -7.101562 4.160156 -7.136719 C 4.03125 -7.230469 3.933594 -7.292969 3.839844 -7.359375 C 3.808594 -7.390625 3.742188 -7.453125 3.710938 -7.488281 C 3.679688 -7.519531 3.617188 -7.550781 3.582031 -7.582031 C 3.488281 -7.742188 3.390625 -7.839844 3.328125 -7.902344 C 3.296875 -7.964844 3.296875 -8.03125 3.261719 -8.0625 C 3.230469 -8.125 3.199219 -8.191406 3.167969 -8.253906 C 3.136719 -8.320312 3.136719 -8.382812 3.101562 -8.414062 C 3.070312 -8.480469 3.039062 -8.542969 3.007812 -8.605469 C 2.976562 -8.832031 2.945312 -8.957031 2.910156 -9.023438 C 2.910156 -9.117188 2.910156 -9.214844 2.878906 -9.308594 L 2.878906 -9.855469 C 2.878906 -9.886719 2.878906 -9.949219 2.910156 -9.984375 C 2.945312 -10.109375 2.945312 -10.207031 2.945312 -10.300781 C 3.007812 -10.527344 3.039062 -10.65625 3.039062 -10.71875 L 3.136719 -11.007812 C 3.199219 -11.132812 3.230469 -11.199219 3.261719 -11.230469 C 3.328125 -11.328125 3.390625 -11.390625 3.457031 -11.453125 C 3.488281 -11.484375 3.550781 -11.550781 3.582031 -11.582031 C 3.617188 -11.613281 3.679688 -11.644531 3.710938 -11.679688 L 3.808594 -11.773438 Z M 5.085938 -14.878906 C 4.960938 -14.878906 4.800781 -14.84375 4.574219 -14.8125 C 4.382812 -14.8125 4.160156 -14.75 3.933594 -14.589844 C 3.871094 -14.558594 3.777344 -14.492188 3.679688 -14.429688 C 3.648438 -14.429688 3.648438 -14.429688 3.617188 -14.429688 C 3.582031 -14.398438 3.550781 -14.398438 3.519531 -14.367188 C 3.328125 -14.332031 3.101562 -14.269531 2.847656 -14.140625 C 2.6875 -14.078125 2.496094 -13.949219 2.238281 -13.757812 C 2.078125 -13.660156 1.886719 -13.5 1.695312 -13.308594 C 1.601562 -13.214844 1.472656 -13.054688 1.3125 -12.894531 C 1.28125 -12.863281 1.246094 -12.796875 1.214844 -12.765625 C 1.085938 -12.605469 0.960938 -12.382812 0.832031 -12.125 C 0.769531 -11.933594 0.671875 -11.710938 0.574219 -11.421875 L 0.542969 -11.292969 C 0.511719 -11.167969 0.449219 -11.007812 0.414062 -10.78125 C 0.414062 -10.589844 0.382812 -10.367188 0.351562 -10.078125 L 0.351562 -9.789062 C 0.320312 -9.628906 0.320312 -9.503906 0.320312 -9.375 C 0.320312 -9.214844 0.351562 -8.992188 0.382812 -8.734375 L 0.382812 -8.636719 C 0.414062 -8.511719 0.449219 -8.351562 0.480469 -8.191406 L 0.542969 -7.933594 C 0.609375 -7.742188 0.703125 -7.519531 0.832031 -7.230469 C 0.863281 -7.136719 0.929688 -7.039062 0.960938 -6.941406 L 1.152344 -6.558594 C 1.183594 -6.527344 1.214844 -6.464844 1.246094 -6.429688 C 1.34375 -6.304688 1.472656 -6.144531 1.632812 -5.949219 L 2.207031 -5.375 C 2.398438 -5.277344 2.625 -5.121094 2.847656 -4.925781 C 2.945312 -4.863281 3.070312 -4.800781 3.230469 -4.734375 C 3.328125 -4.703125 3.457031 -4.640625 3.582031 -4.605469 C 3.648438 -4.574219 3.710938 -4.542969 3.808594 -4.511719 C 3.933594 -4.480469 4.0625 -4.414062 4.222656 -4.382812 C 4.449219 -4.351562 4.703125 -4.320312 4.960938 -4.289062 L 5.664062 -4.289062 C 5.886719 -4.320312 6.144531 -4.382812 6.398438 -4.449219 C 6.621094 -4.511719 6.847656 -4.605469 7.101562 -4.703125 C 7.328125 -4.800781 7.550781 -4.925781 7.773438 -5.121094 C 7.964844 -5.277344 8.160156 -5.4375 8.351562 -5.632812 C 8.414062 -5.726562 8.511719 -5.855469 8.605469 -5.949219 C 8.671875 -6.046875 8.734375 -6.144531 8.796875 -6.238281 C 8.925781 -6.429688 9.023438 -6.65625 9.117188 -6.878906 C 9.246094 -7.101562 9.34375 -7.359375 9.375 -7.613281 C 9.4375 -7.839844 9.503906 -8.0625 9.535156 -8.320312 C 9.566406 -8.574219 9.597656 -8.832031 9.597656 -9.117188 L 9.597656 -9.308594 C 9.597656 -9.535156 9.566406 -9.757812 9.535156 -9.984375 C 9.535156 -10.207031 9.46875 -10.496094 9.34375 -10.78125 C 9.308594 -10.910156 9.277344 -11.039062 9.214844 -11.167969 L 9.308594 -11.167969 C 9.46875 -11.199219 9.664062 -11.199219 9.917969 -11.199219 C 10.078125 -11.230469 10.300781 -11.261719 10.558594 -11.261719 L 10.910156 -11.261719 C 11.070312 -11.292969 11.199219 -11.292969 11.261719 -11.292969 C 11.421875 -11.328125 11.644531 -11.328125 11.902344 -11.328125 L 12.09375 -11.328125 C 12.191406 -11.359375 12.382812 -11.359375 12.605469 -11.390625 L 12.894531 -11.390625 C 13.023438 -11.421875 13.148438 -11.421875 13.277344 -11.421875 L 13.566406 -11.421875 C 13.695312 -11.453125 13.820312 -11.453125 13.949219 -11.453125 L 15.261719 -11.453125 C 15.390625 -11.453125 15.582031 -11.453125 15.871094 -11.421875 C 15.902344 -11.421875 15.996094 -11.421875 16.09375 -11.390625 C 16.191406 -11.390625 16.347656 -11.390625 16.507812 -11.359375 C 16.636719 -11.359375 16.796875 -11.328125 16.988281 -11.292969 L 17.085938 -11.292969 C 17.179688 -11.292969 17.277344 -11.292969 17.308594 -11.261719 L 17.660156 -11.261719 C 18.078125 -11.261719 18.429688 -11.421875 18.652344 -11.710938 C 18.84375 -11.964844 18.941406 -12.222656 18.941406 -12.511719 C 18.941406 -12.671875 18.910156 -12.828125 18.84375 -12.988281 C 18.683594 -13.46875 18.300781 -13.726562 17.726562 -13.789062 C 17.628906 -13.820312 17.535156 -13.820312 17.40625 -13.820312 C 17.117188 -13.886719 16.894531 -13.917969 16.703125 -13.917969 C 16.347656 -13.949219 16.125 -13.949219 16.0625 -13.949219 C 15.773438 -13.980469 15.515625 -14.015625 15.359375 -14.015625 L 13.855469 -14.015625 C 13.726562 -14.015625 13.597656 -14.015625 13.4375 -13.980469 L 13.148438 -13.980469 C 12.894531 -13.980469 12.671875 -13.949219 12.445312 -13.917969 C 12.125 -13.917969 11.933594 -13.917969 11.839844 -13.886719 L 11.773438 -13.886719 C 11.519531 -13.886719 11.292969 -13.886719 11.070312 -13.855469 L 11.007812 -13.855469 L 10.910156 -13.886719 L 10.75 -13.855469 C 10.65625 -13.855469 10.589844 -13.855469 10.527344 -13.820312 L 10.429688 -13.820312 C 10.175781 -13.820312 9.949219 -13.789062 9.726562 -13.757812 C 9.46875 -13.757812 9.246094 -13.726562 9.054688 -13.695312 L 8.445312 -13.660156 L 7.902344 -13.628906 L 7.808594 -13.628906 C 7.773438 -13.597656 7.710938 -13.597656 7.679688 -13.597656 C 7.613281 -13.695312 7.550781 -13.757812 7.453125 -13.820312 C 7.292969 -13.980469 7.101562 -14.140625 6.847656 -14.300781 C 6.65625 -14.429688 6.429688 -14.558594 6.144531 -14.652344 C 5.917969 -14.75 5.664062 -14.8125 5.375 -14.84375 C 5.277344 -14.878906 5.183594 -14.878906 5.085938 -14.878906 Z M 5.085938 -14.878906 "/></g></g></g><g fill="#ffffff" fill-opacity="1"><g transform="translate(101.677799, 91.750017)"><g><path d="M 1.601562 -14.8125 C 1.214844 -14.8125 0.894531 -14.652344 0.609375 -14.367188 C 0.414062 -14.140625 0.320312 -13.855469 0.320312 -13.535156 C 0.320312 -13.4375 0.320312 -13.308594 0.351562 -13.214844 L 0.351562 -13.183594 C 0.382812 -13.148438 0.382812 -13.085938 0.382812 -12.988281 L 0.382812 -12.542969 C 0.414062 -12.445312 0.414062 -12.382812 0.414062 -12.285156 L 0.414062 -11.679688 C 0.449219 -11.582031 0.449219 -11.421875 0.449219 -11.199219 L 0.449219 -11.007812 C 0.449219 -10.941406 0.449219 -10.878906 0.480469 -10.8125 L 0.480469 -10.589844 C 0.511719 -10.460938 0.511719 -10.269531 0.511719 -10.046875 L 0.511719 -9.855469 C 0.542969 -9.726562 0.542969 -9.597656 0.542969 -9.4375 L 0.542969 -8.796875 C 0.574219 -8.605469 0.574219 -8.382812 0.574219 -8.125 L 0.574219 -7.421875 C 0.609375 -7.261719 0.609375 -7.039062 0.609375 -6.75 L 0.609375 -5.917969 C 0.640625 -5.886719 0.640625 -5.792969 0.640625 -5.695312 C 0.703125 -5.121094 0.960938 -4.734375 1.40625 -4.542969 C 1.566406 -4.480469 1.757812 -4.449219 1.917969 -4.449219 C 2.175781 -4.449219 2.429688 -4.511719 2.65625 -4.671875 C 3.007812 -4.925781 3.199219 -5.277344 3.199219 -5.726562 L 3.199219 -6.078125 L 3.167969 -6.078125 L 3.167969 -6.78125 C 3.167969 -7.070312 3.167969 -7.328125 3.136719 -7.488281 L 3.136719 -8.191406 C 3.136719 -8.445312 3.136719 -8.671875 3.101562 -8.863281 L 3.101562 -9.535156 C 3.101562 -9.695312 3.101562 -9.824219 3.070312 -9.917969 L 3.070312 -10.175781 C 3.070312 -10.300781 3.070312 -10.429688 3.039062 -10.527344 L 3.039062 -11.007812 C 3.039062 -11.039062 3.039062 -11.039062 3.070312 -11.070312 C 3.070312 -11.101562 3.070312 -11.101562 3.070312 -11.132812 C 3.070312 -11.167969 3.070312 -11.167969 3.101562 -11.199219 L 3.101562 -11.230469 C 3.136719 -11.261719 3.136719 -11.292969 3.167969 -11.328125 C 3.199219 -11.359375 3.199219 -11.359375 3.230469 -11.390625 C 3.230469 -11.390625 3.230469 -11.390625 3.261719 -11.390625 C 3.296875 -11.421875 3.328125 -11.421875 3.359375 -11.453125 C 3.390625 -11.484375 3.390625 -11.484375 3.421875 -11.519531 C 3.519531 -11.582031 3.617188 -11.613281 3.679688 -11.613281 C 3.777344 -11.644531 3.839844 -11.679688 3.933594 -11.679688 L 4.222656 -11.679688 C 4.320312 -11.679688 4.414062 -11.679688 4.511719 -11.644531 C 4.542969 -11.613281 4.542969 -11.613281 4.574219 -11.613281 C 4.703125 -11.613281 4.832031 -11.582031 4.992188 -11.550781 C 5.085938 -11.519531 5.183594 -11.484375 5.3125 -11.421875 C 5.40625 -11.390625 5.503906 -11.328125 5.597656 -11.261719 C 5.664062 -11.230469 5.726562 -11.167969 5.824219 -11.070312 C 5.949219 -10.972656 6.046875 -10.878906 6.109375 -10.75 C 6.207031 -10.65625 6.304688 -10.527344 6.367188 -10.398438 C 6.367188 -10.367188 6.367188 -10.367188 6.398438 -10.367188 C 6.464844 -10.269531 6.527344 -10.140625 6.589844 -10.015625 C 6.65625 -9.917969 6.71875 -9.757812 6.78125 -9.566406 C 6.816406 -9.46875 6.878906 -9.375 6.910156 -9.214844 C 6.910156 -9.183594 6.910156 -9.117188 6.941406 -9.054688 C 7.007812 -8.925781 7.039062 -8.734375 7.070312 -8.511719 C 7.136719 -8.351562 7.167969 -8.160156 7.199219 -7.902344 C 7.261719 -7.742188 7.292969 -7.550781 7.328125 -7.292969 L 7.328125 -7.199219 C 7.359375 -7.007812 7.421875 -6.78125 7.453125 -6.527344 C 7.488281 -6.429688 7.519531 -6.304688 7.550781 -6.175781 L 7.679688 -5.726562 C 7.710938 -5.597656 7.773438 -5.4375 7.871094 -5.246094 L 8 -4.992188 C 8.03125 -4.960938 8.0625 -4.894531 8.09375 -4.832031 C 8.191406 -4.671875 8.285156 -4.480469 8.445312 -4.253906 L 8.734375 -3.96875 C 8.832031 -3.871094 8.925781 -3.742188 9.023438 -3.648438 C 9.246094 -3.457031 9.503906 -3.296875 9.824219 -3.136719 C 10.046875 -3.039062 10.335938 -2.976562 10.65625 -2.910156 C 10.878906 -2.878906 11.167969 -2.878906 11.484375 -2.878906 C 11.710938 -2.878906 11.964844 -2.910156 12.191406 -2.976562 C 12.222656 -3.007812 12.253906 -3.007812 12.285156 -3.007812 C 12.476562 -3.070312 12.703125 -3.136719 12.925781 -3.199219 C 12.957031 -3.230469 13.023438 -3.230469 13.085938 -3.230469 C 13.246094 -3.296875 13.40625 -3.359375 13.566406 -3.421875 C 13.660156 -3.457031 13.757812 -3.519531 13.855469 -3.582031 C 13.949219 -3.648438 14.078125 -3.710938 14.207031 -3.777344 C 14.269531 -3.839844 14.367188 -3.902344 14.460938 -3.96875 C 14.558594 -4.03125 14.652344 -4.09375 14.75 -4.160156 L 15.230469 -4.542969 C 15.390625 -4.703125 15.550781 -4.863281 15.710938 -5.054688 L 15.773438 -5.121094 C 15.804688 -5.152344 15.871094 -5.183594 15.933594 -5.277344 L 16.09375 -5.4375 L 16.09375 -5.472656 L 16.125 -5.503906 L 16.382812 -5.824219 L 16.445312 -5.886719 C 16.445312 -5.917969 16.445312 -5.917969 16.476562 -5.917969 C 16.476562 -5.949219 16.476562 -5.949219 16.507812 -5.984375 C 16.542969 -6.015625 16.605469 -6.109375 16.667969 -6.207031 C 16.765625 -6.304688 16.828125 -6.398438 16.925781 -6.527344 C 16.988281 -6.621094 17.054688 -6.71875 17.148438 -6.816406 C 17.214844 -6.910156 17.277344 -7.007812 17.339844 -7.101562 C 17.375 -7.167969 17.40625 -7.230469 17.4375 -7.292969 C 17.5 -7.390625 17.566406 -7.519531 17.660156 -7.648438 C 17.789062 -7.839844 17.917969 -8.0625 18.046875 -8.320312 C 18.078125 -8.382812 18.109375 -8.445312 18.140625 -8.511719 L 18.207031 -8.636719 L 18.363281 -8.894531 C 18.398438 -8.957031 18.429688 -9.023438 18.460938 -9.085938 C 18.492188 -9.117188 18.492188 -9.183594 18.523438 -9.246094 C 18.652344 -9.503906 18.71875 -9.726562 18.71875 -9.949219 C 18.71875 -10.175781 18.652344 -10.398438 18.492188 -10.589844 C 18.269531 -10.972656 17.917969 -11.167969 17.46875 -11.167969 L 17.339844 -11.167969 C 16.863281 -11.167969 16.507812 -10.910156 16.222656 -10.367188 C 16.191406 -10.300781 16.15625 -10.238281 16.125 -10.175781 L 16.09375 -10.109375 C 16.09375 -10.078125 16.09375 -10.078125 16.0625 -10.046875 C 16.03125 -10.015625 15.996094 -9.949219 15.964844 -9.855469 C 15.902344 -9.726562 15.835938 -9.597656 15.773438 -9.503906 C 15.710938 -9.308594 15.613281 -9.152344 15.515625 -9.023438 C 15.390625 -8.832031 15.261719 -8.671875 15.164062 -8.511719 C 15.070312 -8.320312 14.972656 -8.160156 14.878906 -8.03125 C 14.71875 -7.808594 14.589844 -7.679688 14.527344 -7.613281 C 14.429688 -7.488281 14.300781 -7.328125 14.171875 -7.167969 L 14.140625 -7.167969 L 14.140625 -7.136719 C 14.109375 -7.101562 14.046875 -7.070312 14.015625 -7.007812 C 13.949219 -6.910156 13.886719 -6.816406 13.820312 -6.75 L 13.535156 -6.464844 C 13.46875 -6.429688 13.40625 -6.367188 13.375 -6.335938 C 13.308594 -6.304688 13.246094 -6.238281 13.214844 -6.207031 C 13.148438 -6.175781 13.085938 -6.144531 13.054688 -6.109375 C 12.988281 -6.078125 12.925781 -6.015625 12.894531 -5.984375 C 12.765625 -5.917969 12.636719 -5.855469 12.542969 -5.792969 L 12.414062 -5.726562 C 12.316406 -5.695312 12.222656 -5.664062 12.125 -5.632812 C 12 -5.597656 11.871094 -5.566406 11.742188 -5.535156 C 11.710938 -5.503906 11.710938 -5.503906 11.679688 -5.503906 C 11.644531 -5.503906 11.644531 -5.503906 11.613281 -5.472656 C 11.519531 -5.4375 11.453125 -5.4375 11.359375 -5.4375 L 11.070312 -5.4375 C 11.039062 -5.4375 11.007812 -5.4375 10.972656 -5.472656 L 10.878906 -5.472656 L 10.8125 -5.535156 C 10.78125 -5.535156 10.75 -5.535156 10.71875 -5.566406 C 10.71875 -5.597656 10.71875 -5.597656 10.71875 -5.632812 C 10.71875 -5.632812 10.6875 -5.632812 10.65625 -5.632812 L 10.621094 -5.664062 C 10.589844 -5.664062 10.589844 -5.664062 10.558594 -5.695312 C 10.558594 -5.726562 10.558594 -5.757812 10.558594 -5.792969 C 10.527344 -5.792969 10.527344 -5.792969 10.496094 -5.792969 C 10.429688 -5.949219 10.367188 -6.046875 10.300781 -6.109375 C 10.269531 -6.207031 10.238281 -6.269531 10.207031 -6.367188 C 10.175781 -6.429688 10.109375 -6.496094 10.078125 -6.589844 C 10.046875 -6.75 10.015625 -6.878906 9.984375 -6.976562 C 9.949219 -7.007812 9.949219 -7.039062 9.949219 -7.070312 C 9.917969 -7.167969 9.917969 -7.292969 9.917969 -7.390625 C 9.886719 -7.488281 9.886719 -7.582031 9.855469 -7.679688 C 9.824219 -7.964844 9.789062 -8.191406 9.726562 -8.382812 L 9.664062 -8.636719 C 9.628906 -8.796875 9.597656 -8.957031 9.566406 -9.085938 L 9.503906 -9.34375 C 9.46875 -9.503906 9.4375 -9.664062 9.40625 -9.789062 C 9.34375 -10.078125 9.246094 -10.300781 9.152344 -10.496094 C 9.085938 -10.75 8.992188 -10.972656 8.863281 -11.167969 C 8.832031 -11.199219 8.832031 -11.261719 8.796875 -11.328125 C 8.703125 -11.519531 8.605469 -11.679688 8.511719 -11.804688 C 8.382812 -12.0625 8.253906 -12.253906 8.09375 -12.382812 C 7.933594 -12.605469 7.773438 -12.796875 7.582031 -12.925781 C 7.390625 -13.148438 7.199219 -13.308594 7.007812 -13.40625 C 6.75 -13.597656 6.527344 -13.726562 6.304688 -13.789062 C 6.046875 -13.917969 5.824219 -13.980469 5.597656 -14.015625 L 5.34375 -14.078125 C 5.214844 -14.109375 5.085938 -14.140625 4.960938 -14.171875 L 4.863281 -14.171875 C 4.640625 -14.207031 4.449219 -14.238281 4.289062 -14.238281 C 4.03125 -14.238281 3.808594 -14.238281 3.582031 -14.207031 C 3.296875 -14.171875 3.039062 -14.109375 2.847656 -14.046875 L 2.816406 -14.046875 L 2.785156 -14.015625 C 2.558594 -14.558594 2.175781 -14.8125 1.601562 -14.8125 Z M 1.601562 -14.8125 "/></g></g></g><g fill="#ffffff" fill-opacity="1"><g transform="translate(117.801836, 91.750017)"><g><path d="M 4.414062 -22.683594 L 4.289062 -22.683594 C 3.96875 -22.683594 3.679688 -22.523438 3.390625 -22.203125 C 3.230469 -21.980469 3.136719 -21.757812 3.136719 -21.46875 C 3.136719 -21.308594 3.167969 -21.148438 3.199219 -20.988281 L 3.199219 -20.859375 C 3.230469 -20.828125 3.230469 -20.765625 3.230469 -20.734375 C 3.230469 -20.667969 3.230469 -20.605469 3.230469 -20.539062 L 3.230469 -20.15625 C 3.261719 -20.027344 3.261719 -19.867188 3.261719 -19.675781 L 3.261719 -18.910156 C 3.296875 -18.8125 3.296875 -18.683594 3.296875 -18.558594 L 3.296875 -17.246094 C 3.136719 -17.277344 3.007812 -17.277344 2.945312 -17.277344 L 2.429688 -17.277344 C 2.335938 -17.277344 2.273438 -17.277344 2.207031 -17.308594 L 1.886719 -17.308594 C 1.792969 -17.339844 1.726562 -17.339844 1.632812 -17.339844 C 1.375 -17.339844 1.121094 -17.246094 0.863281 -17.085938 C 0.574219 -16.894531 0.414062 -16.636719 0.351562 -16.316406 C 0.320312 -16.222656 0.320312 -16.15625 0.320312 -16.0625 C 0.320312 -15.835938 0.382812 -15.613281 0.511719 -15.390625 C 0.703125 -15.101562 0.992188 -14.910156 1.40625 -14.78125 L 1.566406 -14.78125 C 1.664062 -14.75 1.757812 -14.75 1.855469 -14.75 L 2.046875 -14.75 C 2.144531 -14.71875 2.238281 -14.71875 2.335938 -14.71875 L 2.878906 -14.71875 C 3.007812 -14.71875 3.167969 -14.71875 3.328125 -14.6875 L 3.328125 -10.496094 C 3.359375 -10.335938 3.359375 -10.140625 3.359375 -9.949219 C 3.359375 -9.726562 3.390625 -9.4375 3.457031 -9.085938 C 3.488281 -8.957031 3.550781 -8.796875 3.582031 -8.574219 C 3.582031 -8.480469 3.582031 -8.414062 3.617188 -8.320312 C 3.679688 -8.125 3.742188 -7.871094 3.808594 -7.550781 C 3.871094 -7.359375 3.96875 -7.101562 4.09375 -6.78125 C 4.222656 -6.589844 4.351562 -6.367188 4.480469 -6.078125 C 4.605469 -5.886719 4.765625 -5.664062 4.960938 -5.4375 C 5.121094 -5.277344 5.3125 -5.085938 5.566406 -4.894531 C 5.726562 -4.765625 5.949219 -4.640625 6.207031 -4.511719 C 6.398438 -4.414062 6.65625 -4.320312 6.976562 -4.222656 C 7.199219 -4.160156 7.453125 -4.128906 7.742188 -4.09375 L 8.414062 -4.09375 C 8.636719 -4.09375 8.894531 -4.128906 9.152344 -4.160156 C 9.40625 -4.191406 9.628906 -4.222656 9.824219 -4.253906 C 10.015625 -4.320312 10.238281 -4.382812 10.460938 -4.449219 C 10.527344 -4.480469 10.589844 -4.511719 10.6875 -4.542969 C 10.8125 -4.574219 10.941406 -4.640625 11.101562 -4.671875 C 11.132812 -4.703125 11.199219 -4.703125 11.261719 -4.734375 L 11.710938 -4.992188 C 11.933594 -5.085938 12.125 -5.214844 12.316406 -5.34375 C 12.414062 -5.40625 12.511719 -5.472656 12.605469 -5.535156 C 12.703125 -5.566406 12.765625 -5.632812 12.863281 -5.695312 C 12.957031 -5.792969 13.054688 -5.886719 13.183594 -5.984375 C 13.214844 -6.015625 13.277344 -6.046875 13.308594 -6.078125 C 13.4375 -6.207031 13.597656 -6.335938 13.789062 -6.464844 L 13.917969 -6.589844 C 14.015625 -6.6875 14.109375 -6.816406 14.238281 -6.910156 L 14.6875 -7.359375 C 14.8125 -7.488281 14.941406 -7.648438 15.070312 -7.839844 C 15.199219 -7.964844 15.324219 -8.125 15.453125 -8.320312 C 15.613281 -8.511719 15.742188 -8.671875 15.804688 -8.765625 C 15.835938 -8.796875 15.933594 -8.894531 16.03125 -9.023438 C 16.0625 -9.085938 16.125 -9.152344 16.15625 -9.183594 C 16.191406 -9.214844 16.222656 -9.246094 16.285156 -9.34375 C 16.316406 -9.4375 16.414062 -9.566406 16.507812 -9.695312 L 16.605469 -9.824219 C 16.703125 -9.917969 16.796875 -10.046875 16.894531 -10.207031 C 16.925781 -10.300781 17.019531 -10.429688 17.179688 -10.621094 C 17.214844 -10.6875 17.308594 -10.847656 17.5 -11.101562 L 17.535156 -11.132812 L 17.535156 -11.167969 C 17.535156 -11.199219 17.535156 -11.199219 17.566406 -11.230469 L 17.660156 -11.328125 C 17.820312 -11.613281 17.917969 -11.871094 17.917969 -12.09375 L 17.917969 -12.191406 C 17.917969 -12.511719 17.820312 -12.765625 17.628906 -12.925781 C 17.46875 -13.148438 17.246094 -13.277344 16.988281 -13.34375 C 16.894531 -13.40625 16.765625 -13.4375 16.636719 -13.4375 C 16.507812 -13.4375 16.382812 -13.40625 16.222656 -13.34375 C 15.964844 -13.246094 15.742188 -13.054688 15.515625 -12.765625 C 15.515625 -12.734375 15.484375 -12.703125 15.453125 -12.636719 L 15.359375 -12.542969 C 15.199219 -12.285156 15.101562 -12.15625 15.070312 -12.125 L 14.910156 -11.871094 C 14.84375 -11.773438 14.78125 -11.679688 14.75 -11.613281 C 14.652344 -11.519531 14.589844 -11.421875 14.558594 -11.328125 C 14.527344 -11.292969 14.492188 -11.230469 14.460938 -11.199219 C 14.269531 -10.972656 14.171875 -10.847656 14.140625 -10.78125 C 13.980469 -10.589844 13.886719 -10.460938 13.820312 -10.367188 C 13.789062 -10.335938 13.789062 -10.335938 13.789062 -10.300781 L 13.660156 -10.175781 C 13.628906 -10.140625 13.628906 -10.140625 13.628906 -10.109375 L 13.535156 -10.015625 C 13.5 -9.984375 13.5 -9.984375 13.5 -9.949219 C 13.46875 -9.917969 13.46875 -9.886719 13.4375 -9.855469 C 13.308594 -9.726562 13.214844 -9.597656 13.117188 -9.46875 C 12.988281 -9.34375 12.894531 -9.214844 12.796875 -9.085938 L 12.09375 -8.382812 C 12.0625 -8.351562 12.03125 -8.351562 12 -8.320312 C 11.902344 -8.222656 11.804688 -8.125 11.710938 -8.0625 C 11.613281 -7.964844 11.519531 -7.902344 11.421875 -7.839844 C 11.390625 -7.808594 11.328125 -7.773438 11.292969 -7.742188 C 11.230469 -7.710938 11.167969 -7.679688 11.132812 -7.648438 C 11.070312 -7.613281 11.007812 -7.550781 10.910156 -7.488281 C 10.78125 -7.390625 10.65625 -7.292969 10.527344 -7.230469 L 10.140625 -7.039062 L 10.078125 -7.039062 C 9.949219 -7.007812 9.824219 -6.941406 9.726562 -6.910156 C 9.566406 -6.847656 9.40625 -6.816406 9.246094 -6.78125 C 9.183594 -6.78125 9.023438 -6.75 8.765625 -6.6875 L 8.574219 -6.6875 C 8.480469 -6.65625 8.414062 -6.65625 8.351562 -6.65625 L 7.933594 -6.65625 C 7.871094 -6.65625 7.808594 -6.65625 7.742188 -6.6875 L 7.613281 -6.6875 C 7.519531 -6.75 7.421875 -6.78125 7.359375 -6.78125 C 7.292969 -6.816406 7.230469 -6.847656 7.167969 -6.878906 L 7.101562 -6.910156 L 6.910156 -7.101562 C 6.878906 -7.167969 6.816406 -7.230469 6.75 -7.292969 C 6.71875 -7.328125 6.6875 -7.390625 6.65625 -7.421875 C 6.621094 -7.488281 6.589844 -7.550781 6.558594 -7.648438 L 6.429688 -7.839844 C 6.398438 -7.933594 6.367188 -8.03125 6.335938 -8.125 C 6.304688 -8.191406 6.304688 -8.253906 6.269531 -8.285156 C 6.238281 -8.382812 6.238281 -8.445312 6.207031 -8.511719 C 6.175781 -8.636719 6.144531 -8.734375 6.109375 -8.832031 C 6.078125 -9.023438 6.046875 -9.183594 6.015625 -9.308594 C 6.015625 -9.375 6.015625 -9.4375 5.984375 -9.503906 L 5.984375 -9.597656 C 5.949219 -9.757812 5.917969 -9.949219 5.917969 -10.109375 C 5.917969 -10.269531 5.917969 -10.429688 5.886719 -10.558594 L 5.886719 -14.492188 C 6.078125 -14.492188 6.269531 -14.460938 6.496094 -14.429688 C 6.65625 -14.429688 6.878906 -14.398438 7.136719 -14.367188 L 7.230469 -14.367188 C 7.328125 -14.367188 7.550781 -14.332031 7.902344 -14.269531 L 8.160156 -14.269531 C 8.636719 -14.269531 8.957031 -14.429688 9.183594 -14.75 C 9.375 -15.003906 9.46875 -15.261719 9.46875 -15.515625 C 9.46875 -15.675781 9.4375 -15.871094 9.34375 -16.03125 C 9.183594 -16.476562 8.796875 -16.734375 8.222656 -16.796875 C 7.839844 -16.863281 7.582031 -16.894531 7.488281 -16.894531 L 7.390625 -16.894531 C 7.167969 -16.925781 6.976562 -16.957031 6.816406 -16.957031 C 6.558594 -17.019531 6.335938 -17.054688 6.144531 -17.054688 C 6.078125 -17.085938 5.984375 -17.085938 5.855469 -17.085938 L 5.855469 -18.589844 C 5.855469 -18.75 5.855469 -18.878906 5.824219 -18.972656 L 5.824219 -19.742188 C 5.824219 -19.964844 5.824219 -20.15625 5.792969 -20.253906 L 5.792969 -20.667969 C 5.792969 -20.796875 5.792969 -20.894531 5.757812 -20.957031 L 5.757812 -21.050781 C 5.757812 -21.148438 5.757812 -21.246094 5.726562 -21.308594 L 5.726562 -21.40625 C 5.695312 -21.597656 5.664062 -21.722656 5.597656 -21.820312 C 5.375 -22.398438 4.992188 -22.683594 4.414062 -22.683594 Z M 4.414062 -22.683594 "/></g></g></g><g fill="#ffffff" fill-opacity="1"><g transform="translate(133.126069, 91.750017)"><g><path d="M 5.054688 -11.804688 L 5.40625 -11.804688 C 5.472656 -11.804688 5.535156 -11.804688 5.566406 -11.804688 C 5.597656 -11.804688 5.632812 -11.804688 5.664062 -11.773438 C 5.824219 -11.773438 5.949219 -11.742188 5.984375 -11.679688 C 6.109375 -11.679688 6.175781 -11.644531 6.207031 -11.613281 C 6.238281 -11.613281 6.269531 -11.613281 6.304688 -11.613281 C 6.335938 -11.582031 6.335938 -11.582031 6.367188 -11.550781 C 6.429688 -11.519531 6.464844 -11.484375 6.464844 -11.453125 L 6.527344 -11.390625 C 6.558594 -11.359375 6.589844 -11.359375 6.589844 -11.328125 C 6.621094 -11.292969 6.65625 -11.292969 6.6875 -11.292969 L 6.6875 -10.6875 C 6.6875 -10.589844 6.6875 -10.460938 6.65625 -10.367188 L 6.65625 -10.175781 C 6.65625 -10.046875 6.621094 -9.886719 6.558594 -9.664062 C 6.527344 -9.46875 6.496094 -9.308594 6.464844 -9.183594 C 6.429688 -9.054688 6.398438 -8.925781 6.367188 -8.832031 C 6.304688 -8.734375 6.238281 -8.636719 6.175781 -8.511719 L 5.984375 -8.222656 C 5.917969 -8.125 5.855469 -8.0625 5.824219 -8.03125 L 5.726562 -7.933594 C 5.695312 -7.902344 5.664062 -7.871094 5.632812 -7.839844 C 5.597656 -7.808594 5.535156 -7.773438 5.503906 -7.742188 L 5.3125 -7.648438 C 5.277344 -7.613281 5.246094 -7.613281 5.214844 -7.582031 L 5.085938 -7.519531 C 5.023438 -7.488281 4.960938 -7.453125 4.894531 -7.421875 C 4.863281 -7.421875 4.832031 -7.421875 4.800781 -7.421875 C 4.765625 -7.390625 4.703125 -7.390625 4.671875 -7.359375 L 4.289062 -7.359375 C 4.222656 -7.390625 4.160156 -7.390625 4.128906 -7.390625 C 4.03125 -7.421875 3.933594 -7.453125 3.839844 -7.453125 C 3.742188 -7.519531 3.679688 -7.550781 3.617188 -7.550781 C 3.550781 -7.613281 3.488281 -7.679688 3.421875 -7.710938 C 3.390625 -7.742188 3.359375 -7.808594 3.328125 -7.839844 L 3.230469 -7.933594 C 3.199219 -8 3.199219 -8.0625 3.167969 -8.09375 C 3.136719 -8.160156 3.101562 -8.222656 3.070312 -8.285156 C 3.039062 -8.382812 3.007812 -8.480469 2.976562 -8.574219 L 2.945312 -8.671875 C 2.945312 -8.832031 2.910156 -8.992188 2.878906 -9.085938 L 2.878906 -9.46875 C 2.878906 -9.503906 2.878906 -9.566406 2.910156 -9.597656 C 2.945312 -9.726562 2.945312 -9.824219 2.945312 -9.917969 C 2.976562 -10.015625 3.007812 -10.109375 3.039062 -10.207031 C 3.039062 -10.238281 3.039062 -10.300781 3.070312 -10.335938 L 3.136719 -10.460938 C 3.167969 -10.558594 3.199219 -10.621094 3.230469 -10.65625 C 3.296875 -10.8125 3.359375 -10.910156 3.421875 -10.972656 L 3.710938 -11.261719 C 3.839844 -11.359375 3.933594 -11.421875 4 -11.453125 C 4.128906 -11.550781 4.222656 -11.613281 4.320312 -11.644531 C 4.480469 -11.710938 4.605469 -11.742188 4.671875 -11.742188 C 4.863281 -11.773438 4.992188 -11.804688 5.054688 -11.804688 Z M 5.566406 -14.367188 L 4.863281 -14.367188 C 4.703125 -14.367188 4.542969 -14.332031 4.320312 -14.269531 C 4.289062 -14.269531 4.222656 -14.269531 4.160156 -14.238281 C 3.96875 -14.207031 3.710938 -14.140625 3.421875 -14.015625 C 3.230469 -13.949219 2.976562 -13.820312 2.6875 -13.660156 C 2.527344 -13.566406 2.304688 -13.40625 2.046875 -13.183594 C 1.886719 -13.054688 1.695312 -12.894531 1.503906 -12.671875 C 1.375 -12.476562 1.214844 -12.253906 1.023438 -12 C 0.929688 -11.839844 0.832031 -11.582031 0.703125 -11.261719 L 0.640625 -11.070312 C 0.574219 -10.910156 0.511719 -10.71875 0.449219 -10.496094 C 0.414062 -10.300781 0.382812 -10.046875 0.351562 -9.726562 L 0.351562 -9.4375 C 0.320312 -9.277344 0.320312 -9.117188 0.320312 -8.957031 C 0.351562 -8.734375 0.382812 -8.480469 0.414062 -8.191406 C 0.414062 -8.160156 0.414062 -8.125 0.449219 -8.09375 C 0.480469 -7.871094 0.574219 -7.648438 0.671875 -7.390625 C 0.703125 -7.261719 0.769531 -7.136719 0.832031 -7.007812 L 1.023438 -6.621094 C 1.183594 -6.429688 1.375 -6.207031 1.566406 -5.917969 C 1.664062 -5.824219 1.792969 -5.726562 1.953125 -5.632812 C 2.046875 -5.566406 2.144531 -5.503906 2.238281 -5.40625 C 2.335938 -5.375 2.429688 -5.3125 2.527344 -5.277344 L 2.910156 -5.085938 L 3.101562 -5.023438 C 3.261719 -4.960938 3.421875 -4.894531 3.582031 -4.863281 C 3.808594 -4.832031 4.03125 -4.800781 4.289062 -4.800781 C 4.414062 -4.800781 4.542969 -4.800781 4.671875 -4.832031 L 4.992188 -4.832031 C 5.214844 -4.863281 5.472656 -4.925781 5.726562 -5.023438 C 5.917969 -5.085938 6.144531 -5.183594 6.367188 -5.277344 L 6.558594 -5.40625 C 6.65625 -5.472656 6.78125 -5.535156 6.941406 -5.632812 C 7.136719 -5.757812 7.328125 -5.917969 7.519531 -6.109375 C 7.582031 -6.175781 7.679688 -6.269531 7.773438 -6.398438 C 7.808594 -6.464844 7.871094 -6.527344 7.933594 -6.589844 C 7.964844 -6.621094 7.964844 -6.65625 8 -6.6875 C 8.03125 -6.71875 8.03125 -6.71875 8.0625 -6.75 C 8.160156 -6.65625 8.253906 -6.527344 8.320312 -6.398438 C 8.480469 -6.238281 8.636719 -6.046875 8.832031 -5.855469 C 9.023438 -5.695312 9.214844 -5.535156 9.4375 -5.34375 C 9.628906 -5.214844 9.855469 -5.085938 10.109375 -4.960938 C 10.207031 -4.925781 10.335938 -4.863281 10.496094 -4.800781 C 10.589844 -4.765625 10.6875 -4.734375 10.78125 -4.703125 C 10.878906 -4.671875 11.007812 -4.640625 11.167969 -4.605469 L 11.484375 -4.542969 L 12.191406 -4.542969 C 12.445312 -4.542969 12.703125 -4.574219 12.925781 -4.640625 L 13.308594 -4.765625 C 13.34375 -4.765625 13.34375 -4.765625 13.375 -4.800781 C 13.40625 -4.800781 13.4375 -4.800781 13.46875 -4.832031 L 13.5 -4.832031 C 13.628906 -4.894531 13.820312 -4.992188 14.046875 -5.121094 C 14.207031 -5.183594 14.367188 -5.277344 14.558594 -5.40625 C 14.6875 -5.503906 14.84375 -5.632812 15.039062 -5.792969 C 15.070312 -5.824219 15.164062 -5.886719 15.261719 -5.984375 L 15.484375 -6.175781 L 15.996094 -6.6875 C 16.09375 -6.78125 16.222656 -6.878906 16.316406 -7.039062 C 16.347656 -7.070312 16.414062 -7.136719 16.445312 -7.199219 C 16.445312 -7.230469 16.445312 -7.230469 16.476562 -7.261719 C 16.574219 -7.390625 16.636719 -7.453125 16.667969 -7.488281 C 16.703125 -7.519531 16.828125 -7.679688 17.054688 -7.964844 C 17.085938 -8 17.148438 -8.0625 17.179688 -8.125 C 17.179688 -8.160156 17.179688 -8.160156 17.214844 -8.191406 C 17.308594 -8.320312 17.375 -8.382812 17.40625 -8.414062 C 17.535156 -8.542969 17.628906 -8.671875 17.726562 -8.796875 C 17.820312 -8.925781 17.949219 -9.054688 18.078125 -9.183594 L 18.238281 -9.34375 C 18.492188 -9.597656 18.621094 -9.855469 18.652344 -10.140625 C 18.683594 -10.238281 18.683594 -10.300781 18.683594 -10.398438 C 18.683594 -10.589844 18.621094 -10.75 18.492188 -10.910156 C 18.363281 -11.132812 18.171875 -11.292969 17.949219 -11.421875 C 17.820312 -11.550781 17.660156 -11.613281 17.46875 -11.613281 C 17.375 -11.613281 17.308594 -11.613281 17.214844 -11.582031 C 16.925781 -11.550781 16.636719 -11.390625 16.382812 -11.132812 C 16.382812 -11.101562 16.382812 -11.101562 16.347656 -11.070312 C 16.316406 -11.039062 16.285156 -11.007812 16.253906 -10.972656 C 16.0625 -10.78125 15.902344 -10.621094 15.773438 -10.460938 C 15.644531 -10.300781 15.515625 -10.140625 15.390625 -10.015625 L 15.324219 -9.949219 C 15.292969 -9.917969 15.261719 -9.855469 15.230469 -9.789062 C 15.164062 -9.695312 15.101562 -9.597656 15.039062 -9.535156 C 14.84375 -9.246094 14.71875 -9.117188 14.6875 -9.117188 C 14.652344 -9.085938 14.621094 -9.054688 14.558594 -8.957031 C 14.527344 -8.894531 14.460938 -8.796875 14.367188 -8.703125 L 14.171875 -8.511719 C 14.140625 -8.445312 14.078125 -8.382812 14.046875 -8.351562 L 13.757812 -8.0625 C 13.597656 -7.902344 13.5 -7.808594 13.4375 -7.773438 C 13.40625 -7.742188 13.375 -7.742188 13.34375 -7.710938 C 13.246094 -7.648438 13.183594 -7.582031 13.148438 -7.550781 C 13.023438 -7.488281 12.925781 -7.421875 12.828125 -7.359375 L 12.574219 -7.230469 L 12.285156 -7.136719 L 12.253906 -7.136719 C 12.222656 -7.101562 12.15625 -7.101562 12.0625 -7.101562 L 11.804688 -7.101562 C 11.773438 -7.101562 11.710938 -7.101562 11.644531 -7.136719 L 11.550781 -7.136719 C 11.421875 -7.199219 11.328125 -7.230469 11.230469 -7.261719 C 11.199219 -7.292969 11.132812 -7.328125 11.101562 -7.359375 C 11.039062 -7.390625 10.972656 -7.390625 10.941406 -7.421875 C 10.878906 -7.453125 10.8125 -7.519531 10.78125 -7.550781 C 10.71875 -7.582031 10.65625 -7.648438 10.621094 -7.679688 C 10.527344 -7.808594 10.429688 -7.902344 10.335938 -8 C 10.269531 -8.125 10.207031 -8.222656 10.109375 -8.285156 C 10.078125 -8.351562 10.046875 -8.414062 10.015625 -8.511719 C 9.984375 -8.574219 9.949219 -8.636719 9.917969 -8.703125 C 9.855469 -8.894531 9.789062 -9.023438 9.726562 -9.117188 C 9.695312 -9.246094 9.664062 -9.375 9.628906 -9.535156 C 9.597656 -9.664062 9.566406 -9.824219 9.535156 -9.984375 C 9.535156 -10.015625 9.535156 -10.015625 9.535156 -10.046875 C 9.503906 -10.046875 9.503906 -10.046875 9.503906 -10.078125 C 9.503906 -10.109375 9.503906 -10.140625 9.46875 -10.175781 C 9.46875 -10.269531 9.46875 -10.300781 9.4375 -10.335938 L 9.4375 -10.429688 C 9.4375 -10.527344 9.40625 -10.6875 9.34375 -10.847656 C 9.34375 -10.972656 9.308594 -11.070312 9.246094 -11.167969 L 9.246094 -11.230469 C 9.246094 -11.550781 9.183594 -11.804688 9.023438 -12 C 9.023438 -12.222656 8.957031 -12.445312 8.832031 -12.671875 C 8.765625 -12.765625 8.671875 -12.863281 8.542969 -12.988281 C 8.542969 -13.023438 8.542969 -13.023438 8.511719 -13.054688 C 8.480469 -13.085938 8.445312 -13.085938 8.414062 -13.117188 C 8.414062 -13.148438 8.414062 -13.148438 8.382812 -13.148438 C 8.351562 -13.214844 8.285156 -13.277344 8.160156 -13.375 C 8.09375 -13.46875 7.964844 -13.566406 7.808594 -13.660156 C 7.679688 -13.757812 7.519531 -13.855469 7.292969 -13.917969 C 7.199219 -14.015625 7.007812 -14.078125 6.75 -14.140625 C 6.621094 -14.207031 6.429688 -14.238281 6.207031 -14.269531 C 6.046875 -14.332031 5.824219 -14.367188 5.566406 -14.367188 Z M 5.566406 -14.367188 "/></g></g></g><g fill="#ffffff" fill-opacity="1"><g transform="translate(149.21811, 91.750017)"><g><path d="M 6.207031 -13.308594 C 6.335938 -13.214844 6.429688 -13.148438 6.496094 -13.085938 L 6.527344 -13.085938 L 6.464844 -13.085938 C 6.464844 -13.117188 6.464844 -13.117188 6.398438 -13.117188 C 6.335938 -13.148438 6.304688 -13.148438 6.238281 -13.148438 L 5.984375 -13.148438 C 5.855469 -13.148438 5.757812 -13.148438 5.632812 -13.117188 C 5.535156 -13.117188 5.4375 -13.117188 5.277344 -13.054688 C 5.152344 -13.023438 4.992188 -12.957031 4.832031 -12.894531 C 4.765625 -12.894531 4.640625 -12.828125 4.480469 -12.734375 C 4.414062 -12.703125 4.320312 -12.636719 4.191406 -12.542969 L 3.902344 -12.253906 C 3.839844 -12.191406 3.742188 -12.09375 3.617188 -11.933594 C 3.519531 -11.804688 3.421875 -11.644531 3.328125 -11.519531 C 3.261719 -11.390625 3.167969 -11.261719 3.101562 -11.132812 C 3.070312 -11.039062 3.039062 -10.910156 2.976562 -10.75 C 2.976562 -10.65625 2.945312 -10.527344 2.910156 -10.367188 C 2.910156 -10.175781 2.878906 -10.015625 2.878906 -9.886719 C 2.878906 -9.726562 2.910156 -9.566406 2.910156 -9.4375 C 2.945312 -9.375 2.976562 -9.246094 3.007812 -9.085938 C 3.070312 -8.992188 3.101562 -8.863281 3.167969 -8.703125 C 3.230469 -8.605469 3.328125 -8.480469 3.390625 -8.320312 C 3.457031 -8.253906 3.550781 -8.125 3.679688 -7.964844 L 4.0625 -7.582031 C 4.128906 -7.519531 4.222656 -7.453125 4.351562 -7.359375 C 4.449219 -7.328125 4.542969 -7.261719 4.671875 -7.199219 L 4.960938 -7.101562 C 5.054688 -7.101562 5.152344 -7.101562 5.246094 -7.070312 C 5.375 -7.070312 5.503906 -7.039062 5.664062 -7.007812 C 5.792969 -7.007812 5.886719 -7.039062 6.015625 -7.039062 C 6.144531 -7.070312 6.269531 -7.101562 6.335938 -7.136719 C 6.398438 -7.167969 6.527344 -7.199219 6.65625 -7.261719 C 6.75 -7.328125 6.847656 -7.359375 6.941406 -7.421875 C 7.039062 -7.488281 7.167969 -7.582031 7.292969 -7.710938 C 7.359375 -7.742188 7.488281 -7.839844 7.679688 -8.03125 C 7.742188 -8.09375 7.808594 -8.160156 7.902344 -8.222656 C 8.03125 -8.320312 8.09375 -8.382812 8.09375 -8.382812 C 8.253906 -8.511719 8.382812 -8.605469 8.445312 -8.703125 L 8.796875 -9.054688 C 8.863281 -9.117188 8.992188 -9.277344 9.152344 -9.46875 C 9.246094 -9.566406 9.375 -9.695312 9.503906 -9.855469 C 9.628906 -9.984375 9.757812 -10.140625 9.917969 -10.335938 C 10.109375 -10.589844 10.269531 -10.75 10.335938 -10.847656 L 10.8125 -11.328125 C 10.972656 -11.484375 11.167969 -11.644531 11.359375 -11.804688 C 11.519531 -11.933594 11.710938 -12.0625 11.964844 -12.253906 C 12.09375 -12.351562 12.253906 -12.476562 12.511719 -12.636719 C 12.636719 -12.734375 12.828125 -12.863281 13.085938 -13.023438 C 13.34375 -13.183594 13.628906 -13.246094 13.855469 -13.246094 L 13.980469 -13.246094 C 14.269531 -13.246094 14.460938 -13.117188 14.652344 -12.925781 C 14.84375 -12.734375 15.003906 -12.542969 15.070312 -12.285156 C 15.101562 -12.15625 15.132812 -12.0625 15.132812 -11.933594 C 15.132812 -11.804688 15.101562 -11.679688 15.039062 -11.519531 C 14.941406 -11.261719 14.75 -11.007812 14.429688 -10.8125 C 14.238281 -10.6875 14.078125 -10.589844 13.980469 -10.527344 C 13.726562 -10.367188 13.566406 -10.238281 13.4375 -10.175781 C 13.246094 -10.046875 13.117188 -9.917969 12.988281 -9.824219 C 12.863281 -9.695312 12.734375 -9.597656 12.605469 -9.46875 C 12.414062 -9.308594 12.285156 -9.183594 12.222656 -9.085938 C 12.222656 -9.085938 12.09375 -8.957031 11.871094 -8.703125 C 11.710938 -8.511719 11.582031 -8.382812 11.484375 -8.253906 C 11.328125 -8.0625 11.199219 -7.902344 11.070312 -7.773438 C 10.878906 -7.550781 10.75 -7.390625 10.65625 -7.328125 C 10.527344 -7.167969 10.398438 -7.007812 10.238281 -6.878906 L 9.789062 -6.429688 C 9.789062 -6.429688 9.726562 -6.429688 9.597656 -6.304688 C 9.503906 -6.207031 9.40625 -6.144531 9.34375 -6.078125 C 9.085938 -5.855469 8.957031 -5.726562 8.894531 -5.664062 C 8.703125 -5.535156 8.511719 -5.40625 8.351562 -5.277344 C 8.160156 -5.152344 7.933594 -5.054688 7.742188 -4.960938 C 7.488281 -4.832031 7.292969 -4.734375 7.101562 -4.671875 C 6.847656 -4.605469 6.589844 -4.574219 6.367188 -4.511719 C 6.109375 -4.480469 5.886719 -4.480469 5.632812 -4.480469 C 5.40625 -4.480469 5.183594 -4.511719 4.992188 -4.511719 C 4.734375 -4.542969 4.480469 -4.574219 4.289062 -4.640625 C 4.03125 -4.703125 3.777344 -4.800781 3.582031 -4.863281 C 3.328125 -4.992188 3.136719 -5.121094 2.945312 -5.214844 C 2.6875 -5.40625 2.496094 -5.566406 2.304688 -5.726562 L 1.757812 -6.269531 C 1.566406 -6.527344 1.40625 -6.71875 1.28125 -6.910156 C 1.121094 -7.167969 0.992188 -7.390625 0.863281 -7.582031 C 0.734375 -7.871094 0.640625 -8.09375 0.574219 -8.285156 C 0.480469 -8.605469 0.414062 -8.894531 0.382812 -9.117188 C 0.351562 -9.375 0.320312 -9.628906 0.320312 -9.855469 C 0.320312 -10.140625 0.351562 -10.398438 0.351562 -10.621094 C 0.414062 -10.941406 0.449219 -11.230469 0.511719 -11.421875 C 0.609375 -11.742188 0.703125 -12.03125 0.800781 -12.222656 C 0.929688 -12.476562 1.054688 -12.703125 1.152344 -12.894531 C 1.3125 -13.117188 1.441406 -13.308594 1.566406 -13.46875 C 1.757812 -13.726562 1.953125 -13.917969 2.078125 -14.046875 C 2.304688 -14.300781 2.496094 -14.460938 2.625 -14.589844 C 2.878906 -14.78125 3.070312 -14.910156 3.261719 -15.003906 C 3.519531 -15.132812 3.777344 -15.261719 3.96875 -15.324219 C 4.191406 -15.421875 4.414062 -15.484375 4.605469 -15.515625 C 4.863281 -15.582031 5.085938 -15.644531 5.277344 -15.675781 C 5.535156 -15.710938 5.726562 -15.710938 5.917969 -15.710938 L 6.527344 -15.710938 C 6.75 -15.675781 6.941406 -15.644531 7.070312 -15.582031 C 7.261719 -15.550781 7.390625 -15.515625 7.519531 -15.453125 C 7.773438 -15.359375 7.933594 -15.230469 8.03125 -15.101562 C 8.285156 -14.878906 8.414062 -14.652344 8.445312 -14.332031 C 8.480469 -14.238281 8.480469 -14.171875 8.480469 -14.078125 C 8.480469 -13.886719 8.414062 -13.726562 8.320312 -13.566406 C 8.191406 -13.34375 8 -13.183594 7.773438 -13.023438 C 7.613281 -12.925781 7.421875 -12.863281 7.199219 -12.863281 L 7.039062 -12.863281 C 6.75 -12.925781 6.464844 -13.054688 6.207031 -13.308594 Z M 6.207031 -13.308594 "/></g></g></g><g fill="#ffffff" fill-opacity="1"><g transform="translate(161.759025, 91.750017)"><g><path d="M 4.414062 -22.683594 L 4.289062 -22.683594 C 3.96875 -22.683594 3.679688 -22.523438 3.390625 -22.203125 C 3.230469 -21.980469 3.136719 -21.757812 3.136719 -21.46875 C 3.136719 -21.308594 3.167969 -21.148438 3.199219 -20.988281 L 3.199219 -20.859375 C 3.230469 -20.828125 3.230469 -20.765625 3.230469 -20.734375 C 3.230469 -20.667969 3.230469 -20.605469 3.230469 -20.539062 L 3.230469 -20.15625 C 3.261719 -20.027344 3.261719 -19.867188 3.261719 -19.675781 L 3.261719 -18.910156 C 3.296875 -18.8125 3.296875 -18.683594 3.296875 -18.558594 L 3.296875 -17.246094 C 3.136719 -17.277344 3.007812 -17.277344 2.945312 -17.277344 L 2.429688 -17.277344 C 2.335938 -17.277344 2.273438 -17.277344 2.207031 -17.308594 L 1.886719 -17.308594 C 1.792969 -17.339844 1.726562 -17.339844 1.632812 -17.339844 C 1.375 -17.339844 1.121094 -17.246094 0.863281 -17.085938 C 0.574219 -16.894531 0.414062 -16.636719 0.351562 -16.316406 C 0.320312 -16.222656 0.320312 -16.15625 0.320312 -16.0625 C 0.320312 -15.835938 0.382812 -15.613281 0.511719 -15.390625 C 0.703125 -15.101562 0.992188 -14.910156 1.40625 -14.78125 L 1.566406 -14.78125 C 1.664062 -14.75 1.757812 -14.75 1.855469 -14.75 L 2.046875 -14.75 C 2.144531 -14.71875 2.238281 -14.71875 2.335938 -14.71875 L 2.878906 -14.71875 C 3.007812 -14.71875 3.167969 -14.71875 3.328125 -14.6875 L 3.328125 -10.496094 C 3.359375 -10.335938 3.359375 -10.140625 3.359375 -9.949219 C 3.359375 -9.726562 3.390625 -9.4375 3.457031 -9.085938 C 3.488281 -8.957031 3.550781 -8.796875 3.582031 -8.574219 C 3.582031 -8.480469 3.582031 -8.414062 3.617188 -8.320312 C 3.679688 -8.125 3.742188 -7.871094 3.808594 -7.550781 C 3.871094 -7.359375 3.96875 -7.101562 4.09375 -6.78125 C 4.222656 -6.589844 4.351562 -6.367188 4.480469 -6.078125 C 4.605469 -5.886719 4.765625 -5.664062 4.960938 -5.4375 C 5.121094 -5.277344 5.3125 -5.085938 5.566406 -4.894531 C 5.726562 -4.765625 5.949219 -4.640625 6.207031 -4.511719 C 6.398438 -4.414062 6.65625 -4.320312 6.976562 -4.222656 C 7.199219 -4.160156 7.453125 -4.128906 7.742188 -4.09375 L 8.414062 -4.09375 C 8.636719 -4.09375 8.894531 -4.128906 9.152344 -4.160156 C 9.40625 -4.191406 9.628906 -4.222656 9.824219 -4.253906 C 10.015625 -4.320312 10.238281 -4.382812 10.460938 -4.449219 C 10.527344 -4.480469 10.589844 -4.511719 10.6875 -4.542969 C 10.8125 -4.574219 10.941406 -4.640625 11.101562 -4.671875 C 11.132812 -4.703125 11.199219 -4.703125 11.261719 -4.734375 L 11.710938 -4.992188 C 11.933594 -5.085938 12.125 -5.214844 12.316406 -5.34375 C 12.414062 -5.40625 12.511719 -5.472656 12.605469 -5.535156 C 12.703125 -5.566406 12.765625 -5.632812 12.863281 -5.695312 C 12.957031 -5.792969 13.054688 -5.886719 13.183594 -5.984375 C 13.214844 -6.015625 13.277344 -6.046875 13.308594 -6.078125 C 13.4375 -6.207031 13.597656 -6.335938 13.789062 -6.464844 L 13.917969 -6.589844 C 14.015625 -6.6875 14.109375 -6.816406 14.238281 -6.910156 L 14.6875 -7.359375 C 14.8125 -7.488281 14.941406 -7.648438 15.070312 -7.839844 C 15.199219 -7.964844 15.324219 -8.125 15.453125 -8.320312 C 15.613281 -8.511719 15.742188 -8.671875 15.804688 -8.765625 C 15.835938 -8.796875 15.933594 -8.894531 16.03125 -9.023438 C 16.0625 -9.085938 16.125 -9.152344 16.15625 -9.183594 C 16.191406 -9.214844 16.222656 -9.246094 16.285156 -9.34375 C 16.316406 -9.4375 16.414062 -9.566406 16.507812 -9.695312 L 16.605469 -9.824219 C 16.703125 -9.917969 16.796875 -10.046875 16.894531 -10.207031 C 16.925781 -10.300781 17.019531 -10.429688 17.179688 -10.621094 C 17.214844 -10.6875 17.308594 -10.847656 17.5 -11.101562 L 17.535156 -11.132812 L 17.535156 -11.167969 C 17.535156 -11.199219 17.535156 -11.199219 17.566406 -11.230469 L 17.660156 -11.328125 C 17.820312 -11.613281 17.917969 -11.871094 17.917969 -12.09375 L 17.917969 -12.191406 C 17.917969 -12.511719 17.820312 -12.765625 17.628906 -12.925781 C 17.46875 -13.148438 17.246094 -13.277344 16.988281 -13.34375 C 16.894531 -13.40625 16.765625 -13.4375 16.636719 -13.4375 C 16.507812 -13.4375 16.382812 -13.40625 16.222656 -13.34375 C 15.964844 -13.246094 15.742188 -13.054688 15.515625 -12.765625 C 15.515625 -12.734375 15.484375 -12.703125 15.453125 -12.636719 L 15.359375 -12.542969 C 15.199219 -12.285156 15.101562 -12.15625 15.070312 -12.125 L 14.910156 -11.871094 C 14.84375 -11.773438 14.78125 -11.679688 14.75 -11.613281 C 14.652344 -11.519531 14.589844 -11.421875 14.558594 -11.328125 C 14.527344 -11.292969 14.492188 -11.230469 14.460938 -11.199219 C 14.269531 -10.972656 14.171875 -10.847656 14.140625 -10.78125 C 13.980469 -10.589844 13.886719 -10.460938 13.820312 -10.367188 C 13.789062 -10.335938 13.789062 -10.335938 13.789062 -10.300781 L 13.660156 -10.175781 C 13.628906 -10.140625 13.628906 -10.140625 13.628906 -10.109375 L 13.535156 -10.015625 C 13.5 -9.984375 13.5 -9.984375 13.5 -9.949219 C 13.46875 -9.917969 13.46875 -9.886719 13.4375 -9.855469 C 13.308594 -9.726562 13.214844 -9.597656 13.117188 -9.46875 C 12.988281 -9.34375 12.894531 -9.214844 12.796875 -9.085938 L 12.09375 -8.382812 C 12.0625 -8.351562 12.03125 -8.351562 12 -8.320312 C 11.902344 -8.222656 11.804688 -8.125 11.710938 -8.0625 C 11.613281 -7.964844 11.519531 -7.902344 11.421875 -7.839844 C 11.390625 -7.808594 11.328125 -7.773438 11.292969 -7.742188 C 11.230469 -7.710938 11.167969 -7.679688 11.132812 -7.648438 C 11.070312 -7.613281 11.007812 -7.550781 10.910156 -7.488281 C 10.78125 -7.390625 10.65625 -7.292969 10.527344 -7.230469 L 10.140625 -7.039062 L 10.078125 -7.039062 C 9.949219 -7.007812 9.824219 -6.941406 9.726562 -6.910156 C 9.566406 -6.847656 9.40625 -6.816406 9.246094 -6.78125 C 9.183594 -6.78125 9.023438 -6.75 8.765625 -6.6875 L 8.574219 -6.6875 C 8.480469 -6.65625 8.414062 -6.65625 8.351562 -6.65625 L 7.933594 -6.65625 C 7.871094 -6.65625 7.808594 -6.65625 7.742188 -6.6875 L 7.613281 -6.6875 C 7.519531 -6.75 7.421875 -6.78125 7.359375 -6.78125 C 7.292969 -6.816406 7.230469 -6.847656 7.167969 -6.878906 L 7.101562 -6.910156 L 6.910156 -7.101562 C 6.878906 -7.167969 6.816406 -7.230469 6.75 -7.292969 C 6.71875 -7.328125 6.6875 -7.390625 6.65625 -7.421875 C 6.621094 -7.488281 6.589844 -7.550781 6.558594 -7.648438 L 6.429688 -7.839844 C 6.398438 -7.933594 6.367188 -8.03125 6.335938 -8.125 C 6.304688 -8.191406 6.304688 -8.253906 6.269531 -8.285156 C 6.238281 -8.382812 6.238281 -8.445312 6.207031 -8.511719 C 6.175781 -8.636719 6.144531 -8.734375 6.109375 -8.832031 C 6.078125 -9.023438 6.046875 -9.183594 6.015625 -9.308594 C 6.015625 -9.375 6.015625 -9.4375 5.984375 -9.503906 L 5.984375 -9.597656 C 5.949219 -9.757812 5.917969 -9.949219 5.917969 -10.109375 C 5.917969 -10.269531 5.917969 -10.429688 5.886719 -10.558594 L 5.886719 -14.492188 C 6.078125 -14.492188 6.269531 -14.460938 6.496094 -14.429688 C 6.65625 -14.429688 6.878906 -14.398438 7.136719 -14.367188 L 7.230469 -14.367188 C 7.328125 -14.367188 7.550781 -14.332031 7.902344 -14.269531 L 8.160156 -14.269531 C 8.636719 -14.269531 8.957031 -14.429688 9.183594 -14.75 C 9.375 -15.003906 9.46875 -15.261719 9.46875 -15.515625 C 9.46875 -15.675781 9.4375 -15.871094 9.34375 -16.03125 C 9.183594 -16.476562 8.796875 -16.734375 8.222656 -16.796875 C 7.839844 -16.863281 7.582031 -16.894531 7.488281 -16.894531 L 7.390625 -16.894531 C 7.167969 -16.925781 6.976562 -16.957031 6.816406 -16.957031 C 6.558594 -17.019531 6.335938 -17.054688 6.144531 -17.054688 C 6.078125 -17.085938 5.984375 -17.085938 5.855469 -17.085938 L 5.855469 -18.589844 C 5.855469 -18.75 5.855469 -18.878906 5.824219 -18.972656 L 5.824219 -19.742188 C 5.824219 -19.964844 5.824219 -20.15625 5.792969 -20.253906 L 5.792969 -20.667969 C 5.792969 -20.796875 5.792969 -20.894531 5.757812 -20.957031 L 5.757812 -21.050781 C 5.757812 -21.148438 5.757812 -21.246094 5.726562 -21.308594 L 5.726562 -21.40625 C 5.695312 -21.597656 5.664062 -21.722656 5.597656 -21.820312 C 5.375 -22.398438 4.992188 -22.683594 4.414062 -22.683594 Z M 4.414062 -22.683594 "/></g></g></g></svg>