<?xml version="1.0" standalone="no"?>
<!DOCTYPE svg PUBLIC "-//W3C//DTD SVG 20010904//EN"
 "http://www.w3.org/TR/2001/REC-SVG-20010904/DTD/svg10.dtd">
<svg version="1.0" xmlns="http://www.w3.org/2000/svg"
 width="900.000000pt" height="900.000000pt" viewBox="0 0 900.000000 900.000000"
 preserveAspectRatio="xMidYMid meet">
<metadata>
Created by potrace 1.10, written by Peter Selinger 2001-2011
</metadata>
<g transform="translate(0.000000,900.000000) scale(0.100000,-0.100000)"
fill="#000000" stroke="none">
<path d="M4433 8502 c-7 -5 -76 -9 -153 -10 -78 -2 -152 -7 -164 -12 -13 -5
-33 -6 -45 -3 -12 3 -27 0 -34 -5 -7 -6 -43 -11 -79 -10 -36 0 -71 -3 -79 -7
-7 -5 -40 -10 -74 -11 -33 -1 -80 -10 -105 -19 -43 -16 -71 -22 -199 -46 -29
-5 -79 -18 -109 -29 -31 -11 -66 -20 -78 -20 -12 0 -24 -7 -28 -15 -3 -8 -18
-15 -34 -15 -37 0 -118 -28 -133 -46 -6 -8 -22 -14 -34 -14 -22 0 -67 -16
-130 -45 -16 -8 -51 -22 -77 -31 -27 -9 -48 -20 -48 -25 0 -4 -15 -11 -32 -14
-18 -4 -37 -11 -43 -15 -5 -4 -59 -34 -120 -65 -60 -32 -121 -65 -135 -74 -14
-9 -36 -22 -50 -29 -34 -17 -108 -60 -150 -89 -19 -13 -57 -39 -85 -58 -27
-19 -55 -38 -60 -43 -6 -5 -35 -26 -64 -46 -29 -21 -65 -48 -79 -61 -58 -51
-75 -65 -81 -65 -3 0 -26 -19 -51 -41 -25 -23 -59 -52 -77 -66 -18 -14 -35
-33 -38 -44 -4 -10 -17 -22 -31 -25 -13 -4 -31 -16 -39 -28 -9 -11 -77 -85
-153 -164 -75 -79 -142 -154 -147 -167 -6 -12 -26 -40 -45 -60 -62 -66 -65
-70 -90 -110 -13 -22 -27 -42 -31 -45 -12 -9 -159 -229 -159 -238 0 -5 -15
-29 -33 -53 -19 -24 -45 -66 -59 -94 -14 -27 -44 -87 -67 -132 -23 -45 -46
-85 -51 -88 -6 -3 -10 -12 -10 -20 0 -7 -13 -43 -30 -78 -16 -36 -30 -71 -30
-79 0 -7 -11 -30 -25 -50 -14 -20 -25 -42 -25 -47 0 -13 -28 -96 -45 -136 -23
-52 -57 -148 -67 -190 -5 -22 -14 -58 -19 -80 -6 -22 -16 -63 -22 -92 -7 -28
-16 -55 -20 -59 -4 -4 -7 -22 -7 -40 0 -18 -9 -58 -21 -88 -14 -37 -18 -66
-14 -89 5 -24 1 -48 -13 -79 -14 -29 -22 -73 -25 -133 -3 -50 -10 -142 -16
-205 -16 -160 -7 -673 12 -719 10 -23 13 -55 9 -96 -3 -43 0 -72 11 -96 9 -19
20 -68 26 -109 15 -103 30 -181 41 -205 4 -11 11 -40 15 -65 3 -24 10 -49 14
-55 5 -5 11 -29 15 -53 3 -24 13 -53 20 -65 8 -12 17 -42 20 -67 4 -25 15 -60
26 -78 11 -18 20 -43 20 -55 0 -13 7 -32 15 -43 8 -10 15 -29 15 -40 0 -12 7
-27 15 -34 8 -7 15 -22 15 -33 0 -11 9 -38 19 -61 35 -75 51 -114 51 -123 0
-5 11 -20 24 -32 13 -13 27 -38 30 -56 7 -36 51 -124 71 -140 7 -6 29 -45 49
-86 19 -42 42 -82 51 -89 8 -7 15 -21 15 -31 0 -10 11 -26 25 -35 14 -9 25
-24 25 -33 0 -9 20 -41 45 -71 25 -30 45 -60 45 -66 0 -7 13 -27 30 -46 16
-18 50 -60 74 -93 25 -33 57 -74 73 -91 15 -16 41 -49 57 -72 15 -23 36 -44
45 -47 9 -3 31 -25 49 -49 51 -68 251 -261 281 -271 9 -3 25 -18 36 -35 11
-16 45 -47 75 -68 59 -40 131 -98 170 -137 14 -14 29 -25 33 -25 4 0 27 -16
53 -35 25 -19 50 -35 56 -35 6 0 26 -14 45 -30 18 -17 40 -30 48 -30 8 0 15
-4 15 -9 0 -5 10 -13 23 -16 12 -4 33 -17 47 -30 31 -28 94 -65 109 -65 6 0
28 -11 49 -24 20 -12 48 -27 62 -31 14 -4 39 -18 55 -30 17 -12 58 -32 92 -45
34 -12 68 -28 74 -36 6 -8 19 -14 28 -14 9 0 25 -7 35 -15 11 -8 28 -15 38
-15 10 0 26 -4 36 -10 40 -22 112 -50 129 -50 11 0 23 -4 28 -9 13 -12 129
-51 153 -51 10 0 22 -4 27 -9 9 -9 41 -19 135 -40 19 -5 62 -16 95 -25 32 -9
73 -16 90 -16 17 0 36 -5 41 -10 13 -13 206 -42 359 -53 17 -1 36 -6 42 -10
20 -12 560 -18 686 -7 319 27 432 43 492 70 11 5 55 12 97 15 43 4 80 11 84
16 3 5 14 9 25 9 10 0 27 4 37 9 9 5 44 15 77 22 33 7 65 16 70 20 6 4 27 10
48 14 20 4 40 11 43 16 3 5 15 9 28 9 12 0 31 7 42 15 10 8 28 15 38 15 10 0
37 9 60 19 23 10 61 27 86 36 25 10 68 28 95 40 28 13 68 31 90 40 22 9 54 23
70 32 17 9 75 38 130 66 55 27 114 60 132 73 17 13 37 24 44 24 7 0 19 7 28
16 9 8 65 48 125 87 178 117 218 147 295 214 29 27 64 55 76 63 57 39 285 253
285 268 0 5 18 19 40 32 22 14 42 32 45 41 3 8 18 29 33 45 45 47 174 199 205
241 28 37 72 101 167 239 25 36 50 71 56 78 6 6 15 23 19 36 4 14 18 38 31 53
13 16 24 39 24 52 0 13 8 30 18 37 19 14 66 96 77 137 4 12 18 39 31 58 13 20
24 41 24 47 0 6 9 28 20 49 11 20 20 43 20 51 0 7 7 19 15 26 8 7 15 19 15 26
0 8 11 37 25 66 14 28 25 58 25 66 0 8 6 28 14 45 28 63 56 148 56 172 0 13 4
26 9 29 5 4 12 24 16 47 4 22 13 53 21 67 8 15 14 38 14 53 0 14 4 29 8 35 10
10 26 82 42 188 6 38 16 78 21 89 6 10 13 55 15 99 3 44 9 89 15 99 5 10 9 34
9 51 -1 18 2 69 6 113 13 152 12 555 -3 695 -7 74 -17 176 -22 225 -5 50 -16
123 -25 163 -9 40 -16 89 -16 108 0 19 -4 42 -9 52 -6 9 -19 58 -31 107 -12
50 -26 95 -30 100 -4 6 -11 29 -15 53 -4 24 -13 56 -21 70 -8 15 -14 35 -14
44 0 9 -4 20 -10 23 -5 3 -10 19 -10 34 0 15 -7 36 -15 47 -8 10 -15 27 -15
37 0 10 -20 61 -45 114 -25 52 -45 101 -45 108 0 11 -49 111 -114 230 -9 17
-16 36 -16 43 0 6 -3 12 -8 12 -4 0 -16 17 -27 38 -19 36 -84 147 -117 200
-10 15 -25 41 -34 57 -9 17 -32 49 -50 72 -19 23 -34 45 -34 48 0 4 -12 22
-27 40 -16 18 -54 67 -87 109 -32 42 -62 76 -66 76 -5 0 -11 9 -15 19 -3 11
-33 48 -65 83 -33 34 -62 70 -65 79 -3 9 -23 29 -45 44 -22 15 -40 31 -40 35
0 17 -222 230 -270 259 -18 10 -38 28 -46 39 -7 11 -34 33 -59 50 -24 16 -59
41 -77 55 -18 14 -53 41 -78 61 -25 19 -65 47 -90 62 -25 15 -51 34 -58 41 -7
7 -18 13 -23 13 -6 0 -25 11 -43 25 -18 14 -38 25 -44 25 -6 0 -17 7 -25 15
-9 8 -49 32 -91 54 -42 21 -95 53 -118 70 -23 17 -48 31 -56 31 -8 0 -46 16
-83 35 -38 19 -75 35 -83 35 -7 0 -19 7 -26 15 -7 8 -22 15 -34 15 -11 1 -39
9 -61 20 -22 11 -45 19 -51 20 -6 0 -17 7 -24 15 -7 8 -23 15 -35 15 -22 0
-63 14 -132 46 -17 8 -40 14 -51 14 -12 0 -23 4 -26 9 -3 4 -26 11 -51 13 -25
3 -54 12 -63 21 -9 8 -33 17 -52 20 -150 25 -189 33 -196 40 -4 4 -20 7 -34 7
-15 0 -45 6 -66 13 -40 14 -173 31 -233 29 -19 0 -44 6 -55 14 -15 10 -51 14
-133 14 -72 0 -120 4 -133 12 -15 10 -27 10 -51 1 -20 -8 -38 -9 -49 -3 -10 5
-20 6 -24 3 -7 -7 -70 -6 -95 2 -9 2 -22 1 -28 -3z m362 -66 c28 -3 100 -13
160 -21 61 -9 157 -22 215 -30 124 -17 197 -31 225 -44 19 -10 162 -35 167
-30 2 1 21 -7 43 -18 22 -11 56 -24 75 -28 19 -4 44 -14 55 -21 11 -8 32 -14
46 -14 15 0 42 -8 61 -17 61 -31 68 -33 87 -33 11 0 26 -6 33 -13 7 -8 36 -21
64 -31 28 -9 60 -23 70 -31 10 -8 28 -15 38 -15 10 0 40 -13 65 -28 25 -16 59
-32 75 -36 16 -4 52 -22 80 -40 47 -31 68 -43 136 -78 14 -7 31 -18 38 -25 7
-7 18 -13 24 -13 6 0 26 -11 44 -25 18 -14 43 -29 56 -34 19 -7 89 -56 143
-98 69 -55 94 -73 99 -73 3 0 61 -46 127 -102 67 -57 128 -107 136 -113 25
-18 303 -298 303 -306 0 -4 25 -33 54 -63 30 -30 60 -65 66 -76 6 -12 48 -67
93 -124 45 -56 88 -114 96 -129 8 -15 18 -27 22 -27 5 0 20 -24 34 -54 14 -29
36 -64 49 -77 12 -13 34 -46 47 -74 13 -27 41 -78 61 -113 21 -34 38 -68 38
-76 0 -7 7 -19 15 -26 8 -6 17 -22 21 -33 4 -12 17 -38 29 -57 12 -19 25 -46
29 -60 4 -14 14 -41 23 -60 25 -57 74 -164 84 -182 5 -10 9 -31 9 -47 0 -15 8
-39 19 -52 10 -13 20 -35 23 -49 12 -52 50 -187 69 -240 10 -30 19 -64 19 -77
0 -12 5 -25 10 -28 6 -3 10 -24 10 -45 0 -21 4 -50 10 -64 5 -14 14 -60 20
-103 6 -43 15 -100 20 -128 5 -27 12 -95 16 -150 4 -55 11 -108 16 -118 10
-19 12 -523 3 -602 -2 -22 -7 -69 -10 -105 -13 -167 -43 -368 -60 -401 -8 -14
-12 -34 -9 -45 3 -10 -4 -48 -16 -83 -11 -35 -20 -72 -20 -83 0 -11 -5 -28
-10 -39 -6 -10 -14 -38 -19 -61 -8 -40 -28 -102 -72 -223 -54 -148 -71 -193
-84 -220 -25 -55 -44 -100 -65 -155 -12 -30 -25 -59 -30 -65 -4 -5 -32 -57
-61 -115 -29 -58 -56 -107 -60 -110 -3 -3 -25 -39 -48 -80 -24 -41 -51 -84
-61 -95 -10 -11 -21 -30 -25 -42 -3 -13 -10 -23 -15 -23 -4 0 -23 -24 -40 -52
-18 -29 -52 -76 -76 -105 -24 -28 -44 -54 -44 -58 0 -11 -163 -203 -246 -288
-78 -81 -277 -269 -325 -307 -30 -23 -60 -51 -67 -61 -7 -11 -20 -19 -27 -19
-8 0 -27 -13 -42 -29 -16 -15 -38 -33 -50 -40 -12 -6 -43 -29 -68 -51 -25 -22
-53 -40 -61 -40 -8 0 -14 -4 -14 -9 0 -5 -13 -14 -29 -21 -16 -6 -39 -22 -52
-36 -12 -13 -26 -24 -30 -24 -5 0 -48 -24 -97 -54 -49 -29 -120 -69 -158 -88
-38 -19 -91 -48 -119 -66 -27 -17 -58 -32 -68 -32 -9 0 -25 -4 -35 -9 -23 -12
-116 -54 -177 -80 -27 -12 -63 -29 -78 -36 -16 -8 -41 -15 -56 -15 -14 0 -35
-6 -46 -14 -11 -7 -37 -16 -59 -20 -21 -4 -46 -11 -55 -16 -31 -17 -145 -50
-172 -50 -15 0 -30 -4 -33 -9 -3 -5 -27 -12 -53 -16 -51 -7 -96 -17 -178 -40
-57 -16 -285 -43 -520 -62 -110 -9 -387 -9 -475 1 -36 4 -114 9 -175 12 -60 3
-112 10 -116 15 -3 6 -43 13 -89 15 -46 3 -91 11 -103 19 -12 8 -40 14 -63 13
-23 0 -50 5 -61 11 -12 6 -46 14 -77 17 -31 4 -59 11 -62 15 -3 5 -21 9 -40 9
-19 0 -51 9 -71 20 -21 11 -51 20 -67 20 -16 0 -43 9 -60 19 -17 11 -51 24
-76 31 -40 10 -76 24 -132 51 -10 5 -26 9 -36 9 -10 0 -27 7 -38 15 -10 8 -28
15 -40 15 -11 0 -35 11 -54 25 -19 14 -38 25 -43 25 -11 0 -109 43 -142 62
-11 7 -63 34 -115 61 -52 27 -101 54 -109 60 -15 13 -32 23 -95 56 -25 14 -46
27 -46 31 0 3 -55 43 -123 88 -68 45 -136 95 -150 112 -15 16 -34 30 -43 30
-9 0 -26 10 -38 23 -12 12 -42 39 -66 60 -61 52 -223 203 -268 251 -20 21 -54
57 -76 78 -37 39 -171 200 -238 286 -18 23 -45 57 -59 75 -15 17 -41 56 -59
86 -18 29 -44 65 -57 79 -12 14 -23 29 -23 34 0 5 -13 26 -29 46 -16 20 -32
48 -36 62 -4 14 -16 36 -26 49 -11 13 -19 29 -19 37 0 7 -11 26 -25 42 -14 17
-25 33 -25 37 0 14 -100 214 -110 220 -5 3 -10 15 -10 26 0 11 -13 47 -29 82
-16 34 -41 96 -56 137 -14 41 -32 89 -40 105 -7 17 -17 46 -21 65 -3 19 -10
37 -13 40 -4 3 -18 48 -30 100 -13 52 -27 100 -31 105 -4 6 -11 39 -14 75 -4
35 -11 71 -16 80 -5 10 -14 44 -19 76 -34 202 -39 237 -34 250 3 8 0 21 -7 28
-7 9 -14 76 -17 180 -4 120 -10 169 -19 177 -9 7 -11 17 -5 28 5 9 9 71 9 138
0 67 3 126 6 131 3 5 8 80 11 168 3 87 10 170 15 184 5 14 14 61 19 105 5 44
17 109 25 145 9 36 20 88 25 117 6 28 17 72 25 98 9 25 16 54 16 64 0 10 3 21
7 25 4 4 13 31 19 59 23 101 35 139 48 160 8 12 24 49 35 82 36 106 47 135 59
147 7 7 12 20 12 30 0 10 4 26 9 36 5 9 32 65 61 124 28 59 55 110 60 113 6 4
10 13 10 22 0 8 20 48 44 88 24 39 47 83 51 96 4 13 25 42 46 64 21 22 39 46
39 54 0 18 109 181 121 181 5 0 9 6 9 13 0 8 11 24 25 37 14 13 25 28 25 33 0
6 11 22 25 36 13 14 56 65 95 114 39 48 74 87 78 87 4 0 18 17 32 37 14 21 38
49 55 63 16 14 50 47 75 74 25 28 58 61 74 75 16 14 52 47 80 72 28 25 72 62
98 81 26 20 67 52 90 72 64 54 278 210 313 227 53 27 199 111 243 140 23 16
48 29 55 29 7 0 23 6 37 14 125 67 203 106 211 106 5 0 37 13 71 29 35 16 75
32 91 35 15 4 27 11 27 16 0 6 8 10 18 10 19 0 118 31 157 49 11 5 37 12 58
16 20 3 37 9 37 13 0 4 24 13 53 19 28 6 95 21 147 33 52 12 118 25 145 29 28
3 56 10 63 15 7 4 34 9 60 12 26 2 65 8 87 14 22 5 96 15 165 21 69 6 152 13
185 17 70 8 456 6 530 -2z"/>
<path d="M5230 8270 c-17 -33 4 -62 43 -58 25 2 33 8 35 26 7 48 -56 73 -78
32z"/>
<path d="M4446 8265 c-6 -16 10 -70 31 -100 7 -11 13 -34 13 -53 0 -100 106
-142 125 -50 14 63 55 83 55 27 0 -46 29 -89 61 -89 29 0 59 27 59 53 0 9 16
50 35 91 19 41 35 87 35 101 0 21 -5 25 -30 25 -24 0 -33 -7 -50 -40 -11 -21
-20 -46 -20 -53 0 -8 -7 -20 -15 -27 -14 -12 -14 -15 1 -31 20 -22 12 -49 -16
-49 -23 0 -22 -5 -25 83 -5 109 -9 119 -52 115 -32 -3 -38 -7 -46 -37 -9 -36
-35 -81 -46 -81 -4 0 -13 24 -20 53 -8 28 -18 58 -24 65 -13 17 -64 15 -71 -3z
m204 -94 c-12 -23 -30 -28 -30 -10 0 12 32 40 38 34 2 -2 -1 -13 -8 -24z m-66
-60 c3 -4 -1 -17 -9 -27 -13 -16 -16 -17 -25 -4 -5 8 -10 21 -10 28 0 13 36
17 44 3z"/>
<path d="M5206 8138 c-4 -23 -11 -47 -15 -53 -5 -5 -12 -38 -16 -72 -7 -61 -6
-63 19 -73 50 -19 54 -13 74 127 5 33 12 66 16 71 13 21 -6 42 -39 42 -30 0
-33 -3 -39 -42z"/>
<path d="M5655 8140 c-4 -22 -11 -42 -16 -46 -5 -3 -9 -15 -9 -27 0 -12 -7
-35 -15 -51 -8 -15 -15 -36 -15 -45 0 -9 -6 -26 -14 -37 -8 -11 -16 -33 -18
-49 -2 -22 3 -32 22 -42 22 -11 28 -10 44 6 10 10 22 36 26 57 9 41 36 125 51
159 36 82 30 115 -20 115 -26 0 -30 -4 -36 -40z"/>
<path d="M3430 8113 c-13 -10 -43 -20 -65 -23 -35 -5 -40 -8 -39 -30 1 -14 11
-50 22 -80 10 -30 23 -73 28 -95 10 -44 35 -56 73 -35 22 11 21 20 -26 133
-15 34 -15 38 2 57 10 11 30 20 45 20 20 0 30 -8 43 -35 9 -20 17 -47 17 -61
0 -30 29 -84 45 -84 6 0 21 9 34 21 23 22 22 45 -5 84 -8 11 -14 27 -14 37 0
24 -39 87 -60 98 -28 15 -73 12 -100 -7z"/>
<path d="M6068 7998 c-9 -18 -30 -64 -47 -103 -18 -38 -36 -77 -41 -85 -47
-70 -46 -112 3 -118 23 -3 29 3 48 45 12 26 42 91 68 143 25 52 47 98 49 101
4 10 -39 49 -53 49 -7 0 -19 -15 -27 -32z"/>
<path d="M2846 7890 c-32 -20 -66 -80 -66 -115 0 -35 42 -88 88 -112 41 -20
45 -21 88 -6 62 21 94 65 94 130 0 44 -4 55 -35 86 -33 34 -41 37 -88 36 -33
0 -63 -7 -81 -19z m123 -71 c27 -37 22 -71 -15 -95 -22 -15 -28 -15 -52 -3
-34 17 -42 28 -42 56 0 75 66 101 109 42z"/>
<path d="M4590 7807 c-3 -3 -90 -7 -195 -10 -104 -3 -230 -10 -280 -16 -193
-25 -308 -45 -375 -67 -25 -8 -56 -14 -70 -14 -14 0 -63 -13 -110 -30 -47 -16
-95 -29 -107 -30 -13 0 -47 -13 -77 -29 -30 -16 -56 -27 -59 -24 -3 3 -18 -2
-34 -10 -15 -8 -53 -25 -83 -37 -59 -23 -116 -48 -140 -61 -8 -5 -31 -16 -50
-24 -19 -9 -41 -22 -50 -29 -8 -7 -27 -16 -42 -20 -16 -3 -28 -11 -28 -16 0
-6 -5 -10 -11 -10 -6 0 -48 -22 -94 -50 -46 -27 -86 -50 -90 -50 -4 0 -21 -12
-39 -26 -17 -14 -71 -55 -121 -91 -49 -36 -104 -77 -121 -92 -18 -14 -45 -36
-60 -48 -45 -34 -114 -103 -114 -113 0 -5 -11 -12 -25 -16 -14 -3 -29 -13 -34
-22 -5 -8 -59 -68 -120 -132 -61 -64 -121 -130 -133 -148 -13 -17 -50 -67 -83
-110 -33 -44 -66 -88 -73 -98 -7 -11 -28 -41 -47 -68 -19 -27 -35 -53 -35 -58
0 -5 -17 -32 -39 -61 -21 -29 -42 -63 -46 -77 -4 -14 -13 -32 -20 -40 -15 -17
-105 -193 -105 -206 0 -4 -16 -41 -36 -83 -40 -83 -73 -170 -81 -214 -3 -15
-9 -30 -14 -33 -5 -3 -9 -11 -9 -19 0 -8 -5 -26 -12 -42 -6 -15 -17 -50 -23
-78 -7 -27 -20 -77 -29 -110 -23 -79 -44 -195 -39 -215 2 -8 -3 -29 -11 -45
-9 -17 -16 -50 -16 -76 0 -25 -4 -49 -9 -55 -11 -10 -23 -259 -21 -449 1 -246
5 -312 19 -328 7 -9 10 -25 7 -35 -7 -22 12 -162 24 -177 4 -5 11 -39 15 -75
3 -36 10 -78 15 -95 25 -89 39 -144 45 -177 3 -21 10 -38 14 -38 5 0 12 -21
16 -47 4 -26 13 -56 21 -67 8 -11 14 -30 14 -43 0 -12 5 -25 10 -28 6 -3 10
-17 10 -29 0 -13 6 -29 14 -35 8 -7 18 -25 21 -41 4 -16 17 -52 31 -80 13 -27
24 -54 24 -59 0 -5 6 -16 13 -23 7 -7 21 -35 31 -63 11 -27 32 -69 48 -92 16
-23 40 -64 54 -90 30 -57 42 -78 71 -120 13 -17 23 -35 23 -40 0 -4 13 -22 29
-39 16 -16 32 -40 36 -53 3 -12 19 -35 33 -50 15 -15 34 -38 42 -51 8 -12 20
-28 25 -34 6 -6 28 -34 50 -61 76 -96 267 -293 367 -377 70 -60 234 -192 258
-208 12 -8 31 -23 42 -32 12 -10 26 -18 33 -18 6 0 27 -13 45 -30 18 -16 37
-30 42 -30 4 0 34 -17 66 -39 31 -21 91 -55 132 -75 41 -20 82 -41 90 -46 44
-25 209 -100 235 -106 17 -4 39 -13 50 -20 27 -17 199 -74 222 -74 11 0 24 -5
31 -12 6 -6 30 -14 54 -19 59 -10 130 -29 148 -38 9 -5 49 -12 90 -16 41 -4
88 -14 103 -22 16 -8 50 -13 80 -12 29 1 77 -3 107 -10 70 -15 611 -17 695 -3
33 6 98 14 145 17 47 4 94 12 104 17 11 6 45 14 75 19 83 12 165 30 176 39 6
4 30 10 55 14 24 4 49 11 55 15 5 5 24 11 40 15 36 8 158 51 200 71 17 7 41
17 55 21 40 11 195 83 310 144 41 22 81 40 88 40 6 0 12 4 12 10 0 5 11 12 24
16 13 3 34 17 47 30 12 13 27 24 33 24 6 0 40 21 76 46 36 25 81 55 100 68 19
13 44 33 54 45 11 11 24 21 31 21 6 0 27 16 46 36 18 20 50 46 69 59 30 19
106 90 273 252 18 17 37 37 43 45 11 13 88 103 123 143 10 11 44 57 77 102
181 251 177 244 224 343 11 24 24 47 28 50 12 8 52 89 52 105 0 8 4 15 8 15 5
0 16 19 26 43 11 23 34 75 52 115 19 40 34 78 34 85 0 7 4 17 8 22 12 14 68
181 76 227 4 20 13 50 21 65 8 15 15 38 15 51 0 12 4 30 10 40 16 29 40 128
40 166 0 19 6 55 14 78 13 37 23 119 41 313 9 95 6 526 -4 581 -6 32 -15 97
-20 144 -22 195 -74 438 -101 475 -4 6 -11 28 -14 50 -4 22 -14 50 -22 63 -8
12 -14 28 -12 35 4 16 -29 102 -68 180 -8 16 -14 34 -14 41 0 10 -95 204 -137
281 -42 74 -89 152 -100 163 -7 7 -13 17 -13 22 0 10 -104 165 -146 217 -16
20 -49 60 -74 89 -25 30 -65 78 -90 108 -104 124 -331 346 -355 346 -7 0 -15
6 -18 14 -5 12 -241 196 -252 196 -3 0 -35 20 -72 45 -37 25 -73 45 -80 45 -7
0 -13 4 -13 8 0 5 -24 21 -52 36 -81 42 -97 52 -121 73 -12 11 -38 23 -58 27
-21 4 -42 13 -49 21 -7 8 -18 15 -25 15 -12 0 -106 38 -201 81 -22 11 -47 19
-55 19 -8 0 -31 8 -50 18 -20 10 -67 26 -105 36 -38 11 -81 25 -96 33 -15 7
-56 16 -90 20 -35 3 -67 9 -73 13 -5 5 -32 11 -60 15 -27 4 -77 13 -110 21
-33 8 -85 14 -115 14 -31 0 -61 5 -66 10 -6 6 -55 12 -110 14 -54 2 -110 7
-124 11 -14 3 -28 4 -30 2z m195 -71 c64 -8 227 -32 310 -46 53 -9 143 -30
213 -49 23 -7 47 -9 53 -5 6 3 18 -1 27 -9 9 -8 51 -24 92 -37 41 -12 82 -26
91 -30 9 -5 34 -12 55 -16 22 -3 46 -12 54 -18 8 -7 26 -17 40 -23 14 -5 46
-20 71 -32 25 -11 52 -21 59 -21 8 0 21 -6 29 -13 9 -7 36 -22 61 -32 25 -11
66 -32 91 -47 25 -15 51 -28 58 -28 6 0 11 -4 11 -8 0 -5 19 -18 43 -30 24
-12 75 -42 113 -67 94 -61 103 -67 127 -89 12 -10 33 -26 47 -35 14 -9 70 -52
124 -95 122 -97 442 -420 455 -457 4 -12 25 -38 69 -87 12 -14 22 -28 22 -31
0 -3 14 -21 30 -40 17 -18 30 -38 30 -43 0 -5 9 -19 21 -31 11 -12 26 -35 34
-52 7 -16 22 -40 33 -51 11 -12 30 -41 42 -65 26 -54 42 -83 57 -100 6 -8 14
-25 18 -38 4 -14 25 -53 46 -88 22 -35 39 -68 39 -75 0 -6 16 -44 35 -84 19
-40 35 -79 35 -88 0 -8 5 -18 10 -21 6 -3 10 -19 10 -34 0 -16 8 -39 19 -52
10 -13 21 -37 24 -54 14 -73 24 -111 35 -130 12 -22 28 -88 42 -173 5 -29 13
-58 18 -65 5 -7 13 -55 17 -107 4 -52 10 -99 15 -105 4 -5 11 -73 15 -150 4
-77 11 -145 15 -150 5 -6 6 -16 2 -22 -6 -9 -6 -109 -1 -168 1 -5 -2 -46 -5
-90 -3 -44 -8 -138 -11 -210 -4 -71 -11 -135 -16 -142 -6 -6 -13 -38 -15 -70
-3 -32 -9 -67 -14 -78 -5 -11 -12 -46 -15 -77 -4 -32 -10 -60 -15 -63 -4 -3
-11 -28 -15 -56 -4 -28 -13 -63 -21 -77 -8 -15 -14 -35 -14 -44 0 -9 -4 -20
-10 -23 -5 -3 -10 -16 -10 -28 -1 -12 -9 -40 -20 -62 -11 -22 -19 -51 -20 -66
0 -14 -4 -29 -9 -35 -5 -5 -26 -49 -46 -99 -45 -112 -152 -330 -182 -370 -12
-17 -26 -41 -32 -55 -13 -30 -30 -57 -52 -82 -8 -10 -42 -57 -74 -105 -33 -49
-64 -93 -70 -100 -5 -6 -21 -26 -35 -44 -14 -18 -41 -51 -61 -74 -19 -22 -48
-55 -65 -74 -73 -84 -279 -279 -379 -358 -32 -27 -67 -56 -77 -65 -10 -10 -24
-18 -31 -18 -8 0 -24 -11 -37 -25 -13 -13 -49 -41 -82 -62 -32 -20 -58 -41
-58 -45 0 -4 -6 -8 -14 -8 -8 0 -21 -6 -28 -13 -7 -7 -26 -20 -43 -28 -63 -33
-222 -118 -265 -143 -25 -14 -51 -26 -59 -26 -8 0 -41 -13 -75 -29 -126 -60
-154 -71 -178 -71 -13 0 -28 -4 -34 -8 -5 -5 -63 -26 -129 -46 -167 -52 -173
-54 -238 -62 -31 -3 -60 -10 -63 -15 -3 -5 -22 -9 -42 -9 -20 0 -53 -5 -72
-10 -31 -10 -145 -22 -345 -36 -113 -9 -226 -10 -238 -2 -6 4 -19 2 -29 -3
-13 -7 -30 -7 -52 1 -18 6 -92 12 -163 13 -90 2 -135 6 -146 16 -9 7 -20 10
-25 7 -11 -6 -247 36 -321 58 -30 9 -65 16 -77 16 -12 0 -24 5 -26 11 -2 6
-25 13 -51 16 -26 3 -52 12 -58 19 -6 8 -22 14 -35 14 -12 0 -25 4 -28 9 -4 5
-24 12 -46 16 -22 4 -42 11 -46 16 -3 5 -12 9 -20 9 -45 0 -531 249 -596 305
-13 11 -62 46 -111 78 -48 32 -87 61 -87 66 0 4 -16 16 -36 27 -21 10 -56 37
-80 59 -24 22 -82 76 -130 120 -47 44 -98 93 -113 109 -14 16 -48 52 -76 81
-27 28 -62 67 -77 86 -14 19 -46 59 -70 89 -47 59 -114 150 -141 190 -69 102
-106 162 -127 205 -13 28 -30 56 -37 63 -7 7 -20 35 -30 62 -10 28 -21 50 -25
50 -3 0 -9 13 -13 30 -4 16 -10 30 -14 30 -4 0 -13 17 -20 38 -7 20 -29 68
-47 106 -19 38 -37 85 -40 105 -4 20 -13 45 -20 56 -8 11 -14 32 -14 47 0 15
-4 29 -9 32 -11 7 -33 81 -55 181 -9 39 -20 90 -27 115 -6 25 -15 72 -20 105
-5 33 -13 71 -18 85 -8 23 -31 232 -37 340 -4 87 -3 333 2 341 2 4 9 81 14
170 6 88 13 166 18 173 4 6 12 40 19 76 10 58 24 122 53 245 5 22 16 58 24 80
8 22 15 50 16 63 0 12 4 30 9 40 27 55 40 91 45 123 4 21 13 42 21 49 8 7 15
20 15 29 0 9 7 25 15 35 8 11 15 27 15 36 0 9 33 82 74 161 103 202 124 240
151 269 22 24 39 52 69 117 9 17 20 35 26 38 6 4 37 43 70 88 65 90 77 104
153 190 131 146 280 289 407 388 60 47 64 50 99 79 13 11 30 20 38 20 7 0 13
4 13 9 0 21 399 261 435 261 3 0 23 11 45 25 22 14 64 34 93 46 28 11 66 26
84 34 17 8 35 15 41 15 5 0 15 7 22 15 7 8 22 15 34 15 12 0 51 11 86 25 35
14 73 25 85 25 11 0 29 6 40 14 11 7 45 17 75 21 30 4 60 11 65 15 6 4 28 10
50 13 22 3 60 10 85 16 25 6 68 13 95 17 28 3 59 11 69 17 11 5 72 12 135 15
64 2 123 8 131 13 17 10 421 6 515 -5z"/>
<path d="M4124 6711 c-21 -15 -49 -39 -61 -52 -26 -29 -83 -141 -83 -164 0 -9
-5 -25 -10 -35 -6 -11 -15 -50 -20 -87 -20 -148 -37 -243 -75 -423 -9 -43 -15
-124 -15 -191 0 -184 29 -239 127 -239 105 0 326 46 466 96 156 58 254 97 287
116 8 4 22 11 30 14 8 3 58 26 110 51 129 61 152 71 177 78 54 15 146 153 158
238 4 26 4 68 0 94 -6 39 -16 55 -63 103 -60 59 -137 101 -267 147 -71 25
-168 67 -195 84 -8 5 -24 14 -35 19 -11 6 -33 19 -50 30 -50 31 -227 117 -278
134 -26 9 -74 16 -106 16 -48 0 -65 -5 -97 -29z m208 -77 c56 -21 163 -75 241
-122 69 -42 144 -79 227 -112 30 -12 70 -28 88 -36 18 -8 37 -14 42 -14 5 0
35 -15 67 -34 73 -44 123 -113 123 -172 0 -70 -68 -145 -175 -194 -27 -12 -90
-41 -140 -65 -96 -45 -211 -98 -260 -120 -16 -7 -39 -15 -50 -18 -11 -3 -45
-15 -75 -27 -69 -27 -141 -48 -200 -60 -25 -5 -58 -13 -75 -18 -72 -24 -94
-23 -125 6 -58 52 -77 200 -39 308 24 71 46 180 59 294 8 72 25 142 57 244 16
49 53 104 89 128 45 32 85 35 146 12z"/>
<path d="M4697 6222 c-38 -40 -36 -82 4 -117 43 -36 103 -32 133 8 20 27 20
28 1 64 -20 37 -67 73 -96 73 -8 0 -27 -13 -42 -28z"/>
<path d="M4122 5915 c-45 -33 -9 -100 61 -112 89 -14 108 75 22 105 -16 5 -37
13 -45 16 -8 4 -25 -1 -38 -9z"/>
<path d="M4003 5390 c-21 -19 -23 -30 -24 -138 0 -64 -4 -153 -9 -197 -5 -44
-12 -120 -15 -170 -4 -49 -13 -131 -22 -181 -12 -73 -14 -148 -10 -365 5 -297
20 -424 68 -564 6 -16 14 -44 18 -60 4 -17 12 -39 18 -50 21 -40 35 -91 43
-150 5 -33 13 -80 19 -105 18 -84 24 -591 11 -1007 -7 -221 -10 -413 -6 -427
6 -26 29 -33 53 -18 20 13 42 277 48 587 10 565 27 948 42 972 16 24 55 37 85
27 41 -13 43 -42 35 -388 -8 -315 -8 -332 14 -449 23 -129 31 -194 49 -452 7
-88 16 -168 21 -177 11 -21 45 -24 51 -5 5 15 -7 398 -21 662 -17 317 -14 657
7 742 18 76 27 87 102 125 19 10 39 18 46 18 18 0 36 -27 55 -83 16 -45 18
-90 19 -322 1 -148 5 -382 10 -520 5 -137 12 -414 16 -615 6 -345 8 -367 27
-394 l20 -29 25 28 24 29 -6 220 c-16 597 -18 1018 -6 1331 10 270 15 333 28
348 19 22 35 22 55 -1 22 -25 47 -197 47 -332 0 -58 5 -148 11 -200 5 -52 14
-219 19 -370 10 -338 23 -393 74 -323 18 25 20 45 19 307 0 228 -4 294 -17
351 -13 54 -17 118 -17 281 0 185 2 220 20 277 11 36 25 76 32 89 22 42 28 53
50 93 21 37 23 51 20 177 -1 85 2 146 9 158 6 11 20 73 30 138 46 276 9 924
-57 1003 -7 8 -13 19 -13 24 0 10 -25 30 -65 52 -52 29 -219 44 -600 53 -203
6 -383 12 -400 16 -22 4 -36 0 -52 -16z m853 -115 c187 -15 194 -19 212 -113
18 -96 28 -671 13 -787 -7 -49 -17 -130 -24 -180 -6 -49 -12 -144 -12 -210 -2
-157 -1 -152 -30 -179 -41 -38 -266 -99 -462 -126 -34 -4 -67 -12 -75 -16 -17
-11 -252 -24 -300 -17 -32 5 -40 11 -56 47 -32 70 -52 139 -52 178 0 20 -7 70
-16 110 -21 96 -26 725 -6 773 20 46 33 157 40 337 5 116 11 171 20 180 7 7
48 16 90 19 105 9 473 0 658 -16z"/>
<path d="M6434 7703 c-35 -7 -85 -70 -91 -114 -8 -54 32 -113 93 -139 42 -19
46 -19 81 -2 48 22 69 43 88 88 13 31 13 40 0 71 -17 41 -56 80 -92 94 -25 9
-41 10 -79 2z m84 -71 c7 -5 15 -25 18 -44 5 -28 2 -40 -15 -57 -62 -62 -149
22 -89 86 22 23 62 30 86 15z"/>
<path d="M2293 7647 c-25 -11 -29 -27 -12 -44 6 -6 12 -28 12 -49 2 -32 6 -40
24 -42 21 -3 36 -18 91 -90 39 -51 96 -51 146 0 16 17 17 23 6 44 -15 27 -45
32 -54 9 -9 -24 -41 -17 -64 15 -25 33 -28 61 -10 90 10 15 9 22 -6 39 -15 16
-21 18 -37 8 -14 -9 -22 -9 -27 -1 -14 22 -46 32 -69 21z"/>
<path d="M6885 7330 c-22 -27 -42 -50 -46 -50 -3 0 -14 -18 -24 -40 -17 -39
-17 -41 0 -73 26 -47 118 -117 144 -110 12 3 21 10 21 15 0 6 29 40 65 77 66
68 75 87 53 109 -22 22 -46 12 -88 -38 -52 -62 -73 -75 -100 -60 -37 20 -26
65 30 118 51 49 59 69 38 90 -24 24 -53 12 -93 -38z"/>
<path d="M1984 7312 c-7 -4 -13 -16 -15 -27 -2 -11 -13 -24 -24 -30 -68 -35
-90 -78 -73 -145 12 -48 73 -100 116 -100 30 0 88 42 97 70 7 23 33 27 41 5
13 -32 -6 -63 -51 -85 -49 -24 -59 -52 -25 -70 30 -16 97 32 128 92 21 40 22
51 13 80 -6 18 -26 49 -43 69 -140 156 -141 157 -164 141z m54 -120 c33 -25
27 -77 -10 -100 -26 -15 -30 -15 -55 0 -21 12 -29 26 -31 53 -5 59 47 84 96
47z"/>
<path d="M7279 6897 c-38 -31 -62 -83 -54 -116 3 -15 21 -43 40 -61 41 -39 45
-60 12 -60 -30 0 -62 31 -78 75 -11 30 -18 35 -39 33 -61 -7 -13 -113 72 -158
l47 -25 38 20 c21 11 43 25 48 31 6 6 30 26 55 45 25 18 51 39 58 46 7 7 20
13 28 13 25 0 17 55 -11 70 -13 7 -27 23 -31 34 -3 12 -18 33 -32 49 -22 23
-34 27 -76 27 -38 -1 -58 -7 -77 -23z m123 -64 c24 -21 23 -58 -2 -83 -24 -24
-57 -26 -88 -4 -29 20 -28 49 3 79 28 29 61 32 87 8z"/>
<path d="M1523 6804 c-10 -14 -35 -46 -56 -69 -32 -37 -37 -47 -28 -64 6 -11
20 -23 31 -26 11 -3 20 -10 20 -15 0 -5 8 -11 18 -14 9 -3 40 -26 67 -51 l50
-44 24 24 c31 31 24 47 -42 89 -29 19 -58 46 -65 60 -11 24 -9 30 13 51 13 14
28 25 33 25 4 0 33 -22 64 -50 64 -57 104 -66 114 -26 8 33 6 35 -75 89 -85
57 -138 64 -168 21z"/>
<path d="M7769 6492 c-13 -10 -31 -22 -39 -26 -8 -4 -24 -12 -35 -19 -89 -53
-115 -67 -128 -67 -7 0 -24 -11 -36 -24 -19 -20 -21 -28 -12 -45 16 -30 56
-27 100 8 51 40 92 48 116 21 17 -19 18 -23 4 -45 -8 -14 -39 -37 -69 -52 -62
-32 -80 -55 -64 -80 12 -20 53 -30 63 -16 8 10 68 53 76 53 3 0 21 14 40 32
45 40 46 76 4 129 l-30 39 45 22 c50 24 54 32 30 66 -18 27 -34 28 -65 4z"/>
<path d="M1153 6409 c-30 -11 -39 -46 -17 -70 22 -24 46 -24 69 1 16 17 17 23
5 45 -16 29 -28 35 -57 24z"/>
<path d="M1243 6349 c-42 -15 -30 -53 27 -88 28 -17 53 -31 56 -31 3 0 17 -9
31 -20 29 -23 66 -26 80 -7 25 31 22 46 -13 66 -19 12 -40 21 -46 21 -6 0 -19
6 -27 13 -42 36 -86 55 -108 46z"/>
<path d="M938 5995 c-9 -21 -8 -28 7 -45 10 -11 23 -20 30 -20 12 0 173 -68
190 -80 6 -4 25 -12 43 -18 28 -10 36 -8 52 8 11 11 17 26 14 35 -6 14 -77 55
-96 55 -4 0 -51 20 -104 45 -52 25 -102 45 -110 45 -8 0 -20 -11 -26 -25z"/>
<path d="M8049 5955 c-27 -16 -36 -20 -94 -42 -22 -8 -55 -21 -73 -29 -18 -8
-43 -14 -56 -14 -13 0 -31 -9 -40 -19 -16 -18 -16 -21 2 -58 11 -21 23 -52 26
-69 10 -45 69 -94 113 -94 27 0 95 34 118 60 25 28 26 101 2 128 -27 30 -20
48 24 62 46 16 53 23 44 50 -10 31 -37 41 -66 25z m-71 -141 c50 -35 -1 -125
-62 -110 -38 9 -60 47 -45 79 20 44 69 58 107 31z"/>
<path d="M800 5591 c-27 -52 -1 -68 180 -110 19 -5 49 -16 65 -25 44 -23 73
-20 87 8 16 36 6 50 -48 64 -27 8 -67 20 -89 28 -23 8 -48 14 -57 14 -9 0 -35
9 -59 20 -55 25 -66 25 -79 1z"/>
<path d="M8072 5274 c-52 -35 -101 -64 -109 -64 -8 0 -19 13 -24 30 -22 63
-87 43 -75 -23 11 -59 79 -97 175 -97 23 0 54 -6 69 -14 15 -7 51 -17 79 -21
44 -6 54 -4 59 10 14 34 -12 62 -63 69 -108 16 -119 29 -50 64 45 22 87 57 87
72 0 23 -14 40 -34 39 -11 0 -63 -30 -114 -65z m-17 -90 c0 -10 -8 -20 -18
-22 -22 -4 -35 27 -16 39 20 12 34 5 34 -17z"/>
<path d="M834 5133 c-62 -31 -85 -142 -41 -194 27 -32 78 -59 109 -58 31 1 77
29 102 63 24 32 29 127 8 148 -23 23 -47 -4 -44 -47 3 -39 -22 -90 -38 -80
-13 8 -13 101 0 126 16 29 -4 59 -38 58 -15 0 -41 -7 -58 -16z m40 -120 c-12
-49 -38 -51 -42 -3 -3 24 2 38 14 47 27 20 39 1 28 -44z"/>
<path d="M8055 4177 c-38 -38 -55 -99 -36 -128 16 -28 14 -45 -11 -61 -30 -20
-19 -68 17 -68 13 0 28 7 33 17 10 16 21 14 55 -9 16 -11 21 -10 37 10 16 19
17 27 7 42 -8 15 -9 22 0 31 14 14 53 2 53 -15 0 -37 77 -61 104 -33 47 48 58
99 31 141 -22 33 -67 51 -93 37 -31 -16 -39 -14 -58 18 -35 59 -91 66 -139 18z
m95 -76 c-1 -31 -45 -70 -62 -53 -16 16 -12 64 6 78 27 19 56 6 56 -25z m60
-25 c0 -17 -14 -29 -23 -20 -8 8 3 34 14 34 5 0 9 -6 9 -14z m75 -9 c23 -17
12 -37 -21 -37 -19 0 -24 5 -24 25 0 28 17 32 45 12z"/>
<path d="M908 4070 c-26 -5 -53 -12 -60 -16 -7 -5 -49 -11 -93 -14 -79 -5 -80
-5 -83 -33 -5 -42 12 -58 49 -45 40 14 59 4 59 -30 0 -79 52 -132 129 -132 36
0 48 6 86 45 35 35 45 52 45 78 0 18 -5 38 -12 45 -7 7 -15 33 -18 60 -6 53
-15 57 -102 42z m44 -92 c25 -21 28 -45 7 -72 -26 -34 -52 -40 -88 -22 -35 19
-47 47 -29 75 19 31 81 41 110 19z"/>
<path d="M1050 3485 c-14 -8 -51 -21 -82 -30 -48 -14 -58 -21 -58 -38 0 -41
14 -50 65 -44 25 4 56 14 68 22 12 8 36 15 53 15 18 0 38 8 49 20 16 18 17 23
5 45 -15 29 -57 33 -100 10z"/>
<path d="M813 3413 c-7 -2 -13 -18 -13 -34 0 -22 6 -30 24 -35 42 -10 61 -1
64 30 5 39 -31 57 -75 39z"/>
<path d="M1175 3085 c-33 -19 -69 -34 -81 -35 -11 0 -31 -11 -43 -24 -19 -20
-21 -28 -12 -45 16 -28 38 -26 104 9 66 35 92 38 107 10 18 -33 2 -59 -48 -82
-88 -38 -97 -44 -100 -61 -4 -22 15 -47 36 -47 30 0 163 73 182 100 26 37 25
55 -10 120 -17 30 -30 60 -30 66 0 11 -23 25 -38 23 -4 0 -34 -16 -67 -34z"/>
<path d="M7732 3050 c-49 -48 -50 -100 -2 -100 19 0 33 8 45 26 13 21 22 25
43 19 39 -10 62 -34 62 -66 0 -42 35 -58 65 -29 19 18 27 20 45 10 16 -9 25
-9 36 1 24 19 16 50 -23 90 -32 33 -43 38 -69 33 -21 -4 -44 2 -79 20 -62 33
-87 33 -123 -4z m213 -66 c13 -5 14 -8 3 -15 -19 -13 -28 -11 -28 6 0 17 2 18
25 9z"/>
<path d="M1532 2640 c-27 -22 -52 -40 -56 -40 -7 0 -99 -62 -106 -72 -3 -4
-18 -11 -33 -17 -33 -13 -35 -38 -4 -71 12 -14 35 -44 51 -67 21 -32 37 -44
62 -49 54 -10 97 3 135 42 29 30 34 42 34 84 0 40 -5 54 -28 78 -31 32 -29 54
9 70 26 13 33 49 12 70 -17 17 -20 16 -76 -28z m10 -144 c28 -41 -14 -106 -69
-106 -42 0 -61 33 -47 82 8 25 16 34 39 38 35 7 67 1 77 -14z"/>
<path d="M7508 2644 c-11 -23 -10 -28 7 -40 11 -7 25 -18 32 -24 7 -5 15 -10
18 -10 20 0 75 -55 75 -76 0 -37 -54 -58 -82 -31 -17 17 -110 77 -118 77 -12
0 -33 -48 -27 -64 3 -8 37 -33 76 -55 88 -52 128 -54 165 -10 14 17 26 36 26
44 0 26 32 26 58 0 28 -28 39 -30 65 -11 31 24 21 54 -25 77 -24 12 -59 35
-79 50 -20 16 -40 29 -44 29 -3 0 -27 16 -52 35 -55 42 -79 44 -95 9z"/>
<path d="M7170 2162 c-43 -21 -60 -38 -84 -86 -17 -32 -18 -39 -5 -47 25 -16
39 -10 60 26 32 53 79 74 79 34 0 -11 -19 -38 -44 -60 -24 -22 -46 -49 -49
-60 -8 -29 41 -59 95 -59 38 0 49 5 83 40 35 36 40 47 40 88 0 59 -25 97 -83
123 -51 22 -47 22 -92 1z m110 -129 c0 -43 -47 -82 -65 -52 -8 13 36 79 53 79
6 0 12 -12 12 -27z"/>
<path d="M1813 2115 c-27 -19 -31 -79 -8 -109 19 -25 19 -66 2 -66 -8 0 -22
16 -33 35 -14 27 -25 35 -46 35 -43 0 -37 -39 13 -89 31 -31 49 -41 74 -41 59
0 84 62 50 126 -21 41 -19 56 7 52 14 -2 29 -18 42 -43 14 -26 28 -40 41 -40
17 0 20 6 19 39 -3 76 -106 141 -161 101z"/>
<path d="M6363 1495 c-25 -18 -23 -29 21 -94 42 -62 38 -121 -8 -121 -28 0
-42 15 -76 83 -30 59 -52 77 -77 61 -29 -18 -27 -41 7 -91 18 -26 34 -61 37
-79 4 -27 1 -35 -22 -50 -27 -17 -27 -17 -46 7 -11 13 -31 47 -44 75 -26 53
-53 71 -78 50 -26 -21 -26 -43 2 -77 14 -19 33 -46 40 -61 24 -47 58 -72 98
-72 31 0 42 7 77 48 36 41 46 46 68 41 20 -5 36 1 68 24 24 17 48 31 55 31 6
0 19 6 29 13 18 13 17 16 -10 58 -16 24 -42 71 -60 104 -33 65 -47 74 -81 50z"/>
<path d="M2650 1494 c-9 -3 -21 -17 -27 -32 -17 -38 -51 -97 -100 -171 -50
-73 -53 -97 -18 -113 30 -14 40 -6 76 62 13 24 48 80 77 124 52 79 58 108 28
128 -12 8 -12 8 -36 2z"/>
<path d="M2980 1268 c-11 -23 -20 -50 -20 -60 0 -10 -6 -21 -14 -24 -8 -3 -17
-26 -21 -51 -6 -41 -4 -49 18 -69 51 -47 151 -71 163 -39 9 22 -14 45 -46 45
-15 0 -38 9 -51 19 -19 16 -22 22 -11 32 10 11 18 11 45 0 63 -27 92 -25 116
4 42 54 18 119 -47 131 -20 4 -54 18 -74 31 l-38 23 -20 -42z m115 -62 c11 -8
16 -19 12 -30 -10 -25 -70 -18 -75 8 -7 32 31 46 63 22z"/>
<path d="M5655 1262 c-16 -11 -35 -25 -41 -33 -9 -12 -31 -205 -37 -324 -2
-36 22 -44 58 -21 23 15 25 23 25 86 0 38 4 71 9 75 5 3 27 -20 48 -50 21 -30
48 -58 60 -61 21 -6 63 10 63 24 0 4 -21 30 -47 57 -58 63 -123 148 -123 163
0 6 8 13 19 17 10 3 26 14 34 23 15 16 15 20 1 40 -18 27 -30 27 -69 4z m15
-192 c-8 -5 -19 -10 -23 -10 -12 0 -20 28 -13 47 6 15 9 14 29 -5 19 -19 20
-24 7 -32z"/>
<path d="M3500 1079 c-19 -34 -5 -48 51 -51 43 -2 55 -8 72 -30 17 -23 19 -31
9 -53 -6 -14 -23 -30 -37 -37 -20 -9 -32 -7 -70 13 -42 23 -45 23 -62 6 -23
-22 -10 -44 43 -74 72 -42 134 -25 180 49 43 67 26 127 -48 174 -50 32 -122
33 -138 3z"/>
<path d="M5035 1004 c-9 -9 -15 -26 -13 -38 2 -17 11 -22 43 -24 47 -4 55 -14
55 -66 0 -29 -6 -43 -25 -58 -33 -26 -32 -44 5 -56 16 -6 35 -23 42 -37 9 -21
18 -25 42 -23 26 3 31 7 31 30 0 15 6 33 13 39 18 19 15 38 -13 70 -15 19 -27
49 -31 79 -9 67 -40 100 -93 100 -23 0 -46 -7 -56 -16z"/>
<path d="M4056 988 c-8 -14 -16 -61 -19 -121 -4 -88 -2 -99 14 -108 36 -19 55
4 68 83 22 129 22 127 1 148 -26 26 -46 25 -64 -2z"/>
<path d="M4461 966 c-8 -10 -10 -41 -5 -104 6 -75 11 -94 30 -115 31 -34 61
-42 91 -26 22 12 27 11 38 -5 8 -10 11 -24 8 -32 -3 -8 -2 -25 1 -39 5 -21 12
-25 41 -25 l35 0 -2 178 -3 177 -29 3 c-39 5 -46 -10 -46 -95 0 -89 -5 -103
-39 -103 -42 0 -51 17 -51 96 0 40 -3 79 -6 88 -8 20 -47 21 -63 2z"/>
<path d="M4033 723 c-28 -19 -29 -44 -3 -68 17 -15 24 -16 45 -7 31 14 33 51
5 75 -24 20 -19 20 -47 0z"/>
</g>
</svg>
