<svg xmlns="http://www.w3.org/2000/svg" xmlns:xlink="http://www.w3.org/1999/xlink" width="336" zoomAndPan="magnify" viewBox="0 0 252 143.999998" height="192" preserveAspectRatio="xMidYMid meet" version="1.0"><defs><g/></defs><g fill="#ffffff" fill-opacity="1"><g transform="translate(91.792965, 91.749957)"><g><path d="M 6.398438 -15.710938 L 6.464844 -15.710938 L 6.464844 -15.644531 C 6.527344 -15.613281 6.558594 -15.550781 6.589844 -15.453125 C 6.65625 -15.390625 6.6875 -15.324219 6.6875 -15.261719 C 6.75 -15.199219 6.78125 -15.101562 6.78125 -15.003906 C 6.816406 -14.910156 6.847656 -14.78125 6.878906 -14.621094 C 6.910156 -14.460938 6.910156 -14.332031 6.910156 -14.207031 C 6.941406 -14.078125 6.941406 -13.949219 6.941406 -13.820312 C 6.976562 -13.726562 6.976562 -13.597656 6.976562 -13.40625 L 6.976562 -13.34375 C 6.941406 -13.308594 6.941406 -13.246094 6.941406 -13.148438 L 6.941406 -12.671875 C 6.910156 -12.574219 6.910156 -12.476562 6.910156 -12.382812 L 6.910156 -12.285156 C 6.878906 -12.222656 6.878906 -12.09375 6.847656 -11.871094 C 6.847656 -11.804688 6.847656 -11.710938 6.816406 -11.582031 C 6.816406 -11.484375 6.816406 -11.421875 6.78125 -11.390625 L 6.78125 -11.292969 C 6.75 -11.070312 6.71875 -10.878906 6.6875 -10.71875 C 6.6875 -10.65625 6.6875 -10.527344 6.65625 -10.367188 C 6.65625 -10.269531 6.65625 -10.207031 6.621094 -10.175781 L 6.621094 -10.078125 C 6.621094 -9.949219 6.589844 -9.757812 6.558594 -9.535156 L 6.558594 -9.4375 C 6.558594 -9.34375 6.527344 -9.152344 6.496094 -8.832031 C 6.496094 -8.636719 6.464844 -8.414062 6.398438 -8.125 C 6.398438 -7.933594 6.367188 -7.710938 6.335938 -7.421875 L 6.335938 -7.199219 C 6.335938 -6.71875 6.527344 -6.335938 6.878906 -6.046875 C 7.101562 -5.886719 7.359375 -5.824219 7.648438 -5.824219 C 7.808594 -5.824219 8 -5.855469 8.160156 -5.917969 C 8.605469 -6.144531 8.863281 -6.527344 8.894531 -7.101562 L 8.894531 -7.199219 C 8.894531 -7.261719 8.894531 -7.328125 8.925781 -7.390625 C 8.957031 -7.582031 8.957031 -7.742188 8.957031 -7.871094 C 8.957031 -7.933594 8.957031 -8 8.992188 -8.03125 C 9.023438 -8.191406 9.023438 -8.351562 9.023438 -8.511719 C 9.085938 -8.832031 9.117188 -9.054688 9.117188 -9.183594 C 9.117188 -9.246094 9.117188 -9.308594 9.152344 -9.34375 C 9.183594 -9.503906 9.183594 -9.664062 9.183594 -9.789062 L 9.183594 -10.046875 C 9.183594 -10.078125 9.183594 -10.140625 9.214844 -10.175781 C 9.246094 -10.269531 9.246094 -10.367188 9.246094 -10.398438 C 9.246094 -10.429688 9.246094 -10.460938 9.277344 -10.558594 C 9.277344 -10.65625 9.277344 -10.8125 9.308594 -11.007812 C 9.34375 -11.070312 9.34375 -11.167969 9.34375 -11.292969 C 9.375 -11.421875 9.375 -11.519531 9.375 -11.582031 C 9.40625 -11.871094 9.4375 -12.03125 9.4375 -12.0625 C 9.4375 -12.09375 9.4375 -12.09375 9.46875 -12.125 C 9.503906 -12.222656 9.503906 -12.285156 9.503906 -12.382812 C 9.503906 -12.414062 9.503906 -12.445312 9.535156 -12.511719 C 9.535156 -12.542969 9.535156 -12.605469 9.566406 -12.636719 C 9.597656 -12.734375 9.628906 -12.828125 9.664062 -12.957031 L 9.726562 -13.085938 C 9.757812 -13.148438 9.757812 -13.214844 9.789062 -13.308594 C 9.824219 -13.375 9.855469 -13.4375 9.886719 -13.5 L 9.949219 -13.695312 C 9.984375 -13.726562 9.984375 -13.757812 10.015625 -13.789062 C 10.078125 -13.855469 10.140625 -13.917969 10.175781 -14.015625 C 10.207031 -14.046875 10.207031 -14.078125 10.238281 -14.109375 C 10.335938 -14.207031 10.429688 -14.300781 10.496094 -14.398438 C 10.589844 -14.527344 10.6875 -14.652344 10.8125 -14.75 L 11.101562 -14.941406 C 11.132812 -14.972656 11.199219 -15.003906 11.230469 -15.039062 C 11.261719 -15.039062 11.292969 -15.039062 11.328125 -15.039062 L 11.519531 -15.039062 C 11.550781 -15.039062 11.550781 -15.039062 11.582031 -15.039062 C 11.582031 -15.039062 11.582031 -15.039062 11.613281 -15.003906 C 11.644531 -15.003906 11.644531 -15.003906 11.679688 -15.003906 C 11.710938 -14.972656 11.710938 -14.972656 11.742188 -14.941406 C 11.773438 -14.941406 11.773438 -14.941406 11.804688 -14.941406 C 11.839844 -14.910156 11.839844 -14.910156 11.871094 -14.878906 C 11.871094 -14.84375 11.871094 -14.84375 11.902344 -14.8125 C 11.964844 -14.78125 12 -14.71875 12.03125 -14.621094 C 12.09375 -14.558594 12.15625 -14.460938 12.191406 -14.332031 C 12.253906 -14.238281 12.316406 -14.109375 12.351562 -13.949219 C 12.414062 -13.820312 12.476562 -13.660156 12.511719 -13.5 C 12.574219 -13.40625 12.605469 -13.246094 12.605469 -13.054688 C 12.636719 -12.925781 12.671875 -12.734375 12.703125 -12.511719 C 12.734375 -12.351562 12.765625 -12.191406 12.765625 -12 C 12.796875 -11.839844 12.828125 -11.644531 12.828125 -11.421875 L 12.828125 -11.230469 C 12.863281 -11.132812 12.863281 -11.007812 12.863281 -10.847656 L 12.863281 -10.238281 C 12.894531 -10.046875 12.894531 -9.824219 12.894531 -9.566406 L 12.894531 -8.605469 C 12.925781 -8.445312 12.925781 -8.320312 12.925781 -8.191406 L 12.925781 -7.902344 C 12.957031 -7.742188 12.957031 -7.582031 12.957031 -7.421875 C 12.957031 -7.199219 12.988281 -6.941406 13.054688 -6.589844 C 13.085938 -6.335938 13.148438 -6.046875 13.246094 -5.726562 C 13.308594 -5.503906 13.40625 -5.277344 13.5 -5.054688 L 13.566406 -4.863281 C 13.597656 -4.800781 13.628906 -4.734375 13.660156 -4.671875 C 13.757812 -4.511719 13.886719 -4.320312 14.015625 -4.09375 C 14.140625 -3.933594 14.300781 -3.742188 14.527344 -3.488281 L 14.621094 -3.390625 C 14.84375 -3.167969 15.101562 -3.007812 15.390625 -2.945312 C 15.484375 -2.910156 15.582031 -2.910156 15.675781 -2.910156 C 15.871094 -2.910156 16.03125 -2.945312 16.15625 -3.039062 C 16.382812 -3.199219 16.574219 -3.390625 16.703125 -3.582031 C 16.828125 -3.742188 16.894531 -3.933594 16.894531 -4.160156 L 16.894531 -4.320312 C 16.863281 -4.640625 16.734375 -4.925781 16.476562 -5.152344 L 16.414062 -5.214844 C 16.285156 -5.375 16.191406 -5.503906 16.09375 -5.566406 C 16.03125 -5.695312 15.964844 -5.824219 15.902344 -5.917969 C 15.871094 -5.917969 15.871094 -5.917969 15.871094 -5.949219 C 15.804688 -6.144531 15.742188 -6.304688 15.675781 -6.398438 C 15.644531 -6.589844 15.613281 -6.78125 15.582031 -6.941406 C 15.550781 -7.199219 15.515625 -7.421875 15.484375 -7.582031 L 15.484375 -8.222656 C 15.484375 -8.382812 15.484375 -8.511719 15.453125 -8.636719 L 15.453125 -9.628906 C 15.453125 -9.757812 15.453125 -9.886719 15.421875 -10.015625 L 15.421875 -10.972656 C 15.421875 -11.230469 15.390625 -11.453125 15.359375 -11.613281 C 15.359375 -11.871094 15.359375 -12.09375 15.324219 -12.253906 C 15.292969 -12.511719 15.261719 -12.734375 15.230469 -12.925781 C 15.199219 -13.183594 15.164062 -13.375 15.132812 -13.535156 C 15.101562 -13.628906 15.101562 -13.726562 15.070312 -13.820312 C 15.039062 -13.980469 15.003906 -14.109375 14.972656 -14.207031 C 14.941406 -14.367188 14.878906 -14.527344 14.8125 -14.621094 C 14.78125 -14.71875 14.78125 -14.78125 14.75 -14.84375 C 14.6875 -15.101562 14.589844 -15.324219 14.492188 -15.484375 C 14.398438 -15.742188 14.269531 -15.933594 14.140625 -16.09375 C 13.980469 -16.347656 13.820312 -16.542969 13.660156 -16.636719 C 13.46875 -16.863281 13.277344 -17.019531 13.054688 -17.117188 C 12.796875 -17.308594 12.574219 -17.4375 12.351562 -17.46875 C 12.03125 -17.566406 11.742188 -17.597656 11.484375 -17.597656 C 11.167969 -17.597656 10.878906 -17.566406 10.65625 -17.5 C 10.335938 -17.40625 10.046875 -17.277344 9.789062 -17.148438 C 9.535156 -16.988281 9.308594 -16.828125 9.117188 -16.636719 C 9.085938 -16.605469 9.085938 -16.605469 9.054688 -16.574219 C 9.023438 -16.542969 8.992188 -16.542969 8.957031 -16.507812 C 8.894531 -16.636719 8.796875 -16.765625 8.703125 -16.894531 C 8.574219 -17.148438 8.445312 -17.339844 8.285156 -17.4375 C 8.09375 -17.660156 7.902344 -17.820312 7.679688 -17.917969 C 7.453125 -18.078125 7.230469 -18.171875 7.007812 -18.207031 C 6.71875 -18.300781 6.496094 -18.363281 6.304688 -18.363281 C 5.984375 -18.363281 5.695312 -18.332031 5.4375 -18.269531 C 5.152344 -18.207031 4.894531 -18.109375 4.671875 -17.980469 C 4.382812 -17.851562 4.160156 -17.691406 3.96875 -17.535156 C 3.742188 -17.339844 3.519531 -17.148438 3.328125 -16.957031 C 3.199219 -16.828125 3.070312 -16.703125 2.976562 -16.542969 C 2.976562 -16.636719 2.976562 -16.734375 2.945312 -16.828125 L 2.945312 -19.003906 C 2.945312 -19.164062 2.945312 -19.292969 2.910156 -19.355469 L 2.910156 -19.644531 C 2.878906 -20.0625 2.71875 -20.347656 2.464844 -20.539062 C 2.207031 -20.765625 1.917969 -20.859375 1.601562 -20.859375 C 1.246094 -20.859375 0.960938 -20.734375 0.671875 -20.445312 C 0.449219 -20.222656 0.351562 -19.933594 0.351562 -19.550781 L 0.351562 -19.261719 C 0.382812 -19.230469 0.382812 -19.164062 0.382812 -19.132812 C 0.382812 -19.070312 0.382812 -19.003906 0.382812 -18.941406 L 0.382812 -16.703125 C 0.414062 -16.605469 0.414062 -16.476562 0.414062 -16.347656 L 0.414062 -10.6875 C 0.449219 -10.65625 0.449219 -10.621094 0.449219 -10.589844 C 0.449219 -10.558594 0.449219 -10.496094 0.414062 -10.398438 C 0.414062 -10.300781 0.414062 -10.238281 0.382812 -10.175781 L 0.382812 -9.277344 C 0.382812 -9.085938 0.382812 -8.832031 0.351562 -8.511719 L 0.351562 -6.71875 C 0.320312 -6.558594 0.320312 -6.398438 0.320312 -6.238281 L 0.320312 -5.085938 C 0.320312 -4.542969 0.542969 -4.160156 0.960938 -3.902344 C 1.183594 -3.777344 1.40625 -3.710938 1.632812 -3.710938 C 1.855469 -3.710938 2.046875 -3.777344 2.238281 -3.871094 C 2.65625 -4.09375 2.878906 -4.511719 2.878906 -5.085938 L 2.878906 -6.207031 C 2.878906 -6.71875 2.976562 -7.648438 3.199219 -8.957031 C 3.199219 -9.023438 3.199219 -9.117188 3.230469 -9.246094 C 3.261719 -9.308594 3.261719 -9.375 3.261719 -9.4375 L 3.261719 -9.535156 C 3.296875 -9.628906 3.296875 -9.757812 3.328125 -9.917969 C 3.359375 -10.078125 3.390625 -10.238281 3.390625 -10.429688 C 3.421875 -10.460938 3.457031 -10.589844 3.488281 -10.8125 C 3.488281 -10.878906 3.488281 -10.941406 3.519531 -11.007812 L 3.519531 -11.101562 C 3.550781 -11.230469 3.617188 -11.390625 3.648438 -11.550781 C 3.679688 -11.644531 3.710938 -11.773438 3.742188 -11.871094 C 3.777344 -11.964844 3.777344 -12.0625 3.808594 -12.15625 C 3.871094 -12.414062 3.933594 -12.605469 4 -12.765625 C 4.03125 -12.828125 4.0625 -12.894531 4.0625 -12.957031 C 4.09375 -12.988281 4.09375 -13.054688 4.09375 -13.085938 C 4.09375 -13.117188 4.09375 -13.148438 4.128906 -13.183594 C 4.191406 -13.277344 4.222656 -13.34375 4.222656 -13.375 L 4.289062 -13.566406 C 4.320312 -13.660156 4.382812 -13.789062 4.449219 -13.949219 C 4.511719 -14.109375 4.574219 -14.238281 4.605469 -14.332031 C 4.640625 -14.367188 4.640625 -14.398438 4.671875 -14.429688 C 4.734375 -14.589844 4.832031 -14.75 4.925781 -14.878906 C 4.992188 -15.003906 5.085938 -15.132812 5.214844 -15.261719 C 5.34375 -15.359375 5.4375 -15.453125 5.535156 -15.550781 C 5.597656 -15.582031 5.664062 -15.613281 5.726562 -15.644531 L 5.855469 -15.710938 C 5.886719 -15.742188 5.949219 -15.773438 5.984375 -15.804688 C 6.015625 -15.804688 6.046875 -15.804688 6.078125 -15.804688 L 6.269531 -15.804688 L 6.269531 -15.773438 C 6.304688 -15.773438 6.335938 -15.773438 6.367188 -15.773438 C 6.367188 -15.742188 6.367188 -15.742188 6.398438 -15.710938 Z M 6.398438 -15.710938 "/></g></g></g><g fill="#ffffff" fill-opacity="1"><g transform="translate(108.972743, 91.749957)"><g><path d="M 7.871094 -13.46875 L 7.902344 -13.4375 L 7.871094 -13.4375 Z M 8.253906 -15.902344 C 8.0625 -15.902344 7.839844 -15.835938 7.582031 -15.742188 C 7.359375 -15.675781 7.136719 -15.515625 6.910156 -15.261719 C 6.78125 -15.132812 6.65625 -14.941406 6.527344 -14.652344 C 6.429688 -14.460938 6.398438 -14.207031 6.398438 -13.886719 C 6.398438 -13.628906 6.464844 -13.375 6.589844 -13.085938 C 6.71875 -12.894531 6.910156 -12.671875 7.136719 -12.445312 C 7.230469 -12.382812 7.328125 -12.316406 7.488281 -12.222656 C 7.550781 -12.191406 7.613281 -12.15625 7.679688 -12.125 L 7.808594 -12.0625 C 7.933594 -12.03125 8.0625 -11.964844 8.222656 -11.902344 C 8.253906 -11.902344 8.285156 -11.902344 8.320312 -11.871094 L 8.351562 -11.871094 C 8.351562 -11.839844 8.351562 -11.804688 8.382812 -11.773438 L 8.382812 -10.558594 C 8.382812 -10.367188 8.382812 -10.175781 8.351562 -9.984375 C 8.351562 -9.789062 8.320312 -9.628906 8.253906 -9.503906 C 8.222656 -9.308594 8.191406 -9.152344 8.160156 -8.992188 L 8.09375 -8.796875 C 8.0625 -8.703125 8.03125 -8.605469 8 -8.542969 C 7.964844 -8.414062 7.933594 -8.285156 7.871094 -8.160156 C 7.839844 -8.125 7.839844 -8.09375 7.839844 -8.0625 C 7.808594 -7.964844 7.742188 -7.902344 7.710938 -7.871094 C 7.679688 -7.839844 7.679688 -7.808594 7.648438 -7.773438 C 7.613281 -7.742188 7.582031 -7.679688 7.550781 -7.648438 L 7.453125 -7.550781 C 7.421875 -7.519531 7.359375 -7.453125 7.292969 -7.421875 C 7.261719 -7.390625 7.230469 -7.390625 7.199219 -7.359375 C 7.167969 -7.328125 7.136719 -7.328125 7.101562 -7.292969 C 7.039062 -7.261719 6.976562 -7.230469 6.941406 -7.199219 C 6.910156 -7.167969 6.847656 -7.136719 6.78125 -7.101562 L 6.496094 -7.007812 L 6.398438 -7.007812 C 6.367188 -6.976562 6.304688 -6.976562 6.269531 -6.976562 L 5.917969 -6.976562 C 5.886719 -6.976562 5.824219 -6.976562 5.726562 -7.007812 C 5.664062 -7.007812 5.597656 -7.007812 5.535156 -7.039062 C 5.375 -7.101562 5.246094 -7.136719 5.121094 -7.167969 L 4.925781 -7.292969 C 4.832031 -7.328125 4.765625 -7.359375 4.703125 -7.390625 L 4.511719 -7.519531 C 4.449219 -7.550781 4.382812 -7.582031 4.320312 -7.613281 C 4.222656 -7.710938 4.128906 -7.773438 4.03125 -7.839844 C 4 -7.902344 3.933594 -7.964844 3.902344 -8 C 3.871094 -8.0625 3.808594 -8.125 3.777344 -8.160156 L 3.710938 -8.285156 C 3.679688 -8.382812 3.648438 -8.445312 3.582031 -8.542969 C 3.519531 -8.703125 3.457031 -8.832031 3.390625 -8.957031 C 3.359375 -9.117188 3.296875 -9.246094 3.261719 -9.34375 L 3.230469 -9.4375 C 3.199219 -9.597656 3.167969 -9.726562 3.136719 -9.824219 C 3.101562 -9.855469 3.101562 -9.886719 3.101562 -9.917969 C 3.101562 -10.175781 3.070312 -10.367188 3.039062 -10.460938 C 3.039062 -10.496094 3.039062 -10.558594 3.039062 -10.589844 C 3.039062 -10.621094 3.039062 -10.65625 3.007812 -10.71875 C 3.007812 -10.8125 3.007812 -10.878906 2.976562 -10.910156 L 2.976562 -11.007812 C 2.976562 -11.132812 2.945312 -11.261719 2.910156 -11.421875 L 2.910156 -11.519531 C 2.910156 -11.679688 2.910156 -11.773438 2.878906 -11.871094 L 2.878906 -12.957031 C 2.910156 -13.023438 2.910156 -13.085938 2.910156 -13.148438 L 2.910156 -13.886719 C 2.910156 -14.078125 2.878906 -14.238281 2.847656 -14.367188 C 2.75 -14.75 2.558594 -15.039062 2.238281 -15.199219 C 2.015625 -15.324219 1.824219 -15.390625 1.601562 -15.390625 C 1.503906 -15.390625 1.40625 -15.390625 1.3125 -15.359375 C 1.023438 -15.292969 0.800781 -15.132812 0.574219 -14.84375 C 0.414062 -14.621094 0.351562 -14.367188 0.351562 -14.078125 L 0.351562 -12.796875 C 0.320312 -12.703125 0.320312 -12.605469 0.320312 -12.511719 L 0.320312 -11.773438 C 0.351562 -11.679688 0.351562 -11.519531 0.351562 -11.359375 L 0.351562 -11.261719 C 0.382812 -11.101562 0.414062 -10.910156 0.414062 -10.75 C 0.449219 -10.460938 0.480469 -10.269531 0.480469 -10.140625 C 0.511719 -10.015625 0.542969 -9.789062 0.574219 -9.503906 C 0.609375 -9.375 0.671875 -9.214844 0.703125 -9.023438 C 0.703125 -8.957031 0.703125 -8.894531 0.734375 -8.796875 C 0.800781 -8.703125 0.863281 -8.511719 0.929688 -8.222656 C 0.960938 -8.191406 0.960938 -8.160156 0.960938 -8.125 C 1.023438 -7.933594 1.121094 -7.679688 1.246094 -7.390625 L 1.3125 -7.292969 C 1.441406 -7.136719 1.566406 -6.941406 1.664062 -6.71875 C 1.726562 -6.621094 1.824219 -6.496094 1.917969 -6.398438 L 2.175781 -6.078125 C 2.367188 -5.917969 2.589844 -5.757812 2.816406 -5.566406 C 3.007812 -5.4375 3.230469 -5.3125 3.457031 -5.152344 C 3.550781 -5.121094 3.648438 -5.054688 3.742188 -4.992188 L 4.128906 -4.800781 L 4.382812 -4.734375 C 4.542969 -4.671875 4.703125 -4.605469 4.894531 -4.574219 C 5.023438 -4.542969 5.152344 -4.511719 5.277344 -4.480469 C 5.40625 -4.449219 5.535156 -4.449219 5.632812 -4.414062 L 6.367188 -4.414062 C 6.589844 -4.414062 6.847656 -4.449219 7.070312 -4.511719 C 7.101562 -4.542969 7.136719 -4.542969 7.167969 -4.542969 C 7.199219 -4.574219 7.261719 -4.574219 7.328125 -4.574219 C 7.488281 -4.640625 7.648438 -4.703125 7.808594 -4.765625 C 7.902344 -4.800781 8 -4.863281 8.09375 -4.925781 L 8.351562 -5.054688 C 8.542969 -5.183594 8.734375 -5.3125 8.925781 -5.472656 C 9.085938 -5.597656 9.246094 -5.726562 9.375 -5.886719 C 9.535156 -6.046875 9.695312 -6.238281 9.824219 -6.429688 C 9.917969 -6.558594 9.984375 -6.6875 10.078125 -6.847656 C 10.109375 -6.910156 10.140625 -6.976562 10.175781 -7.039062 C 10.269531 -7.230469 10.367188 -7.453125 10.429688 -7.679688 C 10.496094 -7.871094 10.558594 -8.09375 10.621094 -8.320312 C 10.65625 -8.414062 10.6875 -8.542969 10.71875 -8.703125 C 10.75 -8.796875 10.75 -8.894531 10.78125 -8.992188 C 10.847656 -9.214844 10.878906 -9.4375 10.878906 -9.695312 L 10.878906 -9.789062 C 10.910156 -10.015625 10.941406 -10.207031 10.941406 -10.398438 L 10.941406 -11.582031 C 11.007812 -11.582031 11.070312 -11.582031 11.132812 -11.613281 L 11.644531 -11.613281 C 11.773438 -11.644531 11.902344 -11.644531 12.03125 -11.644531 C 12.0625 -11.644531 12.15625 -11.644531 12.285156 -11.679688 C 12.414062 -11.679688 12.574219 -11.679688 12.734375 -11.710938 C 12.925781 -11.742188 13.183594 -11.773438 13.5 -11.773438 C 13.726562 -11.804688 13.980469 -11.839844 14.300781 -11.839844 C 14.527344 -11.871094 14.8125 -11.871094 15.132812 -11.871094 C 15.421875 -11.902344 15.675781 -11.933594 15.964844 -11.933594 C 16.253906 -11.964844 16.507812 -12 16.765625 -12 C 16.957031 -12.03125 17.179688 -12.03125 17.4375 -12.03125 C 18.011719 -12.0625 18.398438 -12.316406 18.589844 -12.734375 C 18.683594 -12.957031 18.75 -13.148438 18.75 -13.34375 C 18.75 -13.566406 18.683594 -13.789062 18.523438 -14.015625 C 18.300781 -14.398438 17.980469 -14.589844 17.5 -14.589844 L 17.277344 -14.589844 C 17.148438 -14.589844 17.019531 -14.589844 16.863281 -14.558594 L 16.574219 -14.558594 C 16.316406 -14.558594 16.0625 -14.527344 15.773438 -14.492188 C 15.484375 -14.492188 15.230469 -14.460938 14.972656 -14.429688 C 14.8125 -14.429688 14.652344 -14.429688 14.527344 -14.398438 L 14.140625 -14.398438 C 13.820312 -14.398438 13.535156 -14.367188 13.277344 -14.332031 C 12.925781 -14.332031 12.671875 -14.300781 12.445312 -14.269531 C 12.09375 -14.238281 11.871094 -14.207031 11.804688 -14.171875 L 10.972656 -14.171875 C 10.878906 -14.140625 10.75 -14.140625 10.65625 -14.140625 L 10.429688 -14.140625 C 10.429688 -14.171875 10.429688 -14.207031 10.429688 -14.238281 C 10.398438 -14.269531 10.398438 -14.269531 10.367188 -14.300781 C 10.269531 -14.527344 10.109375 -14.75 9.917969 -15.003906 C 9.789062 -15.199219 9.597656 -15.390625 9.34375 -15.550781 C 9.117188 -15.710938 8.832031 -15.804688 8.511719 -15.871094 C 8.445312 -15.902344 8.351562 -15.902344 8.253906 -15.902344 Z M 8.253906 -15.902344 "/></g></g></g><g fill="#ffffff" fill-opacity="1"><g transform="translate(125.09678, 91.749957)"><g><path d="M 5.824219 -6.589844 L 5.792969 -6.589844 L 5.757812 -6.558594 C 5.695312 -6.527344 5.664062 -6.496094 5.632812 -6.464844 L 5.535156 -6.464844 C 5.503906 -6.429688 5.472656 -6.429688 5.4375 -6.429688 L 5.34375 -6.429688 C 5.3125 -6.464844 5.3125 -6.464844 5.277344 -6.464844 C 5.246094 -6.464844 5.214844 -6.464844 5.183594 -6.464844 C 5.121094 -6.527344 5.054688 -6.558594 4.992188 -6.558594 C 4.960938 -6.589844 4.925781 -6.621094 4.863281 -6.65625 L 4.863281 -6.6875 L 4.832031 -6.6875 L 4.832031 -6.75 C 4.832031 -6.78125 4.832031 -6.78125 4.863281 -6.78125 C 4.863281 -6.78125 4.863281 -6.78125 4.863281 -6.816406 L 4.863281 -6.847656 L 4.894531 -6.878906 C 4.894531 -6.910156 4.894531 -6.910156 4.925781 -6.941406 C 4.925781 -6.941406 4.925781 -6.941406 4.960938 -6.976562 L 5.085938 -7.101562 C 5.121094 -7.136719 5.121094 -7.136719 5.152344 -7.167969 C 5.183594 -7.167969 5.183594 -7.167969 5.214844 -7.167969 C 5.3125 -7.230469 5.4375 -7.261719 5.566406 -7.292969 C 5.695312 -7.359375 5.824219 -7.390625 5.984375 -7.421875 C 6.015625 -7.453125 6.015625 -7.453125 6.046875 -7.453125 C 6.046875 -7.453125 6.046875 -7.453125 6.078125 -7.453125 L 6.078125 -7.292969 C 6.109375 -7.230469 6.109375 -7.199219 6.109375 -7.167969 C 6.109375 -7.136719 6.109375 -7.070312 6.109375 -7.039062 L 6.109375 -7.007812 C 6.078125 -6.976562 6.078125 -6.941406 6.078125 -6.910156 L 5.984375 -6.816406 C 5.984375 -6.78125 5.984375 -6.78125 5.949219 -6.75 C 5.949219 -6.71875 5.949219 -6.71875 5.917969 -6.6875 C 5.886719 -6.65625 5.855469 -6.621094 5.824219 -6.589844 Z M 4.449219 -18.398438 C 4.382812 -18.398438 4.289062 -18.398438 4.160156 -18.363281 C 3.96875 -18.363281 3.710938 -18.332031 3.390625 -18.238281 C 3.359375 -18.207031 3.296875 -18.207031 3.230469 -18.171875 C 3.070312 -18.140625 2.878906 -18.078125 2.65625 -17.980469 C 2.464844 -17.886719 2.238281 -17.757812 1.953125 -17.566406 C 1.757812 -17.46875 1.566406 -17.277344 1.34375 -17.019531 C 1.214844 -16.863281 1.054688 -16.636719 0.894531 -16.382812 C 0.800781 -16.222656 0.734375 -16.0625 0.640625 -15.902344 L 0.542969 -15.710938 C 0.511719 -15.613281 0.480469 -15.453125 0.449219 -15.292969 L 0.382812 -15.039062 C 0.351562 -14.84375 0.320312 -14.589844 0.320312 -14.269531 L 0.320312 -14.171875 C 0.351562 -13.980469 0.414062 -13.757812 0.449219 -13.5 C 0.511719 -13.34375 0.609375 -13.117188 0.734375 -12.863281 L 0.863281 -12.671875 C 0.929688 -12.574219 0.992188 -12.445312 1.085938 -12.285156 C 1.152344 -12.191406 1.214844 -12.125 1.3125 -12.03125 C 1.375 -11.933594 1.441406 -11.871094 1.535156 -11.773438 L 1.664062 -11.644531 C 1.757812 -11.550781 1.855469 -11.453125 1.953125 -11.359375 C 1.984375 -11.359375 2.046875 -11.292969 2.175781 -11.199219 C 2.207031 -11.132812 2.273438 -11.070312 2.367188 -11.007812 C 2.464844 -10.972656 2.558594 -10.878906 2.71875 -10.78125 C 2.75 -10.75 2.816406 -10.6875 2.878906 -10.65625 C 2.910156 -10.621094 2.945312 -10.621094 2.976562 -10.589844 C 3.070312 -10.496094 3.199219 -10.398438 3.359375 -10.300781 C 3.457031 -10.238281 3.550781 -10.175781 3.648438 -10.109375 L 3.902344 -9.917969 C 4.03125 -9.855469 4.191406 -9.757812 4.351562 -9.597656 C 4.253906 -9.566406 4.160156 -9.535156 4.09375 -9.46875 C 3.839844 -9.34375 3.617188 -9.214844 3.421875 -9.054688 C 3.390625 -9.023438 3.328125 -8.957031 3.261719 -8.925781 C 3.136719 -8.765625 3.007812 -8.636719 2.910156 -8.511719 C 2.75 -8.320312 2.625 -8.125 2.527344 -7.902344 C 2.464844 -7.679688 2.398438 -7.453125 2.335938 -7.261719 C 2.304688 -7.007812 2.273438 -6.75 2.273438 -6.527344 C 2.335938 -6.304688 2.367188 -6.078125 2.398438 -5.886719 L 2.71875 -5.246094 C 2.75 -5.214844 2.785156 -5.183594 2.816406 -5.152344 C 2.976562 -4.960938 3.101562 -4.800781 3.230469 -4.671875 C 3.457031 -4.511719 3.648438 -4.382812 3.839844 -4.253906 L 4.480469 -4 C 4.703125 -3.96875 4.894531 -3.933594 5.054688 -3.902344 C 5.121094 -3.871094 5.183594 -3.871094 5.214844 -3.871094 C 5.34375 -3.871094 5.472656 -3.871094 5.597656 -3.902344 L 5.886719 -3.902344 L 6.144531 -3.96875 C 6.304688 -4 6.429688 -4.03125 6.527344 -4.0625 C 6.78125 -4.191406 6.976562 -4.289062 7.136719 -4.382812 C 7.390625 -4.542969 7.582031 -4.703125 7.710938 -4.832031 C 7.933594 -5.054688 8.0625 -5.246094 8.125 -5.40625 C 8.160156 -5.4375 8.160156 -5.472656 8.191406 -5.503906 C 8.320312 -5.695312 8.414062 -5.886719 8.480469 -6.046875 C 8.574219 -6.367188 8.636719 -6.621094 8.636719 -6.847656 C 8.671875 -7.007812 8.671875 -7.136719 8.671875 -7.261719 C 8.671875 -7.390625 8.671875 -7.488281 8.636719 -7.582031 C 8.636719 -7.679688 8.636719 -7.742188 8.605469 -7.773438 L 8.605469 -7.871094 C 8.765625 -7.902344 8.925781 -7.933594 9.117188 -7.964844 C 9.308594 -8.03125 9.566406 -8.09375 9.917969 -8.160156 C 10.015625 -8.191406 10.109375 -8.222656 10.207031 -8.253906 C 10.367188 -8.285156 10.496094 -8.351562 10.65625 -8.414062 C 10.75 -8.445312 10.847656 -8.480469 10.941406 -8.511719 C 11.070312 -8.542969 11.199219 -8.605469 11.359375 -8.671875 C 11.582031 -8.796875 11.804688 -8.894531 12.0625 -8.992188 C 12.15625 -9.054688 12.285156 -9.152344 12.445312 -9.246094 C 12.511719 -9.277344 12.574219 -9.34375 12.671875 -9.375 C 12.796875 -9.46875 12.988281 -9.597656 13.214844 -9.726562 C 13.40625 -9.855469 13.597656 -10.015625 13.789062 -10.207031 C 13.917969 -10.300781 14.078125 -10.429688 14.238281 -10.621094 L 14.429688 -10.8125 C 14.492188 -10.910156 14.589844 -11.007812 14.6875 -11.101562 C 14.78125 -11.199219 14.910156 -11.328125 15.039062 -11.484375 C 15.070312 -11.519531 15.070312 -11.550781 15.101562 -11.582031 C 15.132812 -11.613281 15.132812 -11.644531 15.164062 -11.679688 C 15.199219 -11.710938 15.199219 -11.710938 15.230469 -11.742188 C 15.453125 -12.03125 15.550781 -12.285156 15.550781 -12.574219 C 15.550781 -12.894531 15.484375 -13.148438 15.324219 -13.308594 C 15.164062 -13.5 14.972656 -13.660156 14.71875 -13.757812 C 14.589844 -13.855469 14.429688 -13.886719 14.269531 -13.886719 C 14.171875 -13.886719 14.046875 -13.886719 13.949219 -13.855469 C 13.695312 -13.789062 13.4375 -13.597656 13.214844 -13.308594 L 13.085938 -13.183594 C 13.054688 -13.148438 13.054688 -13.117188 13.023438 -13.085938 C 12.925781 -12.988281 12.828125 -12.894531 12.765625 -12.796875 C 12.671875 -12.703125 12.605469 -12.636719 12.574219 -12.574219 L 12.476562 -12.476562 C 12.316406 -12.316406 12.191406 -12.191406 12.09375 -12.125 C 12 -12 11.871094 -11.902344 11.742188 -11.839844 C 11.710938 -11.804688 11.644531 -11.773438 11.613281 -11.742188 C 11.484375 -11.644531 11.390625 -11.582031 11.292969 -11.550781 C 11.199219 -11.453125 11.101562 -11.390625 11.007812 -11.359375 C 10.941406 -11.328125 10.878906 -11.292969 10.847656 -11.261719 C 10.78125 -11.230469 10.71875 -11.199219 10.65625 -11.167969 C 10.558594 -11.132812 10.460938 -11.070312 10.367188 -11.039062 C 10.140625 -10.972656 9.949219 -10.910156 9.824219 -10.8125 C 9.566406 -10.75 9.375 -10.6875 9.214844 -10.621094 C 8.992188 -10.589844 8.832031 -10.527344 8.703125 -10.496094 L 8.574219 -10.460938 C 8.285156 -10.398438 8.09375 -10.367188 7.964844 -10.367188 C 7.742188 -10.335938 7.519531 -10.300781 7.328125 -10.269531 L 7.292969 -10.269531 C 7.261719 -10.335938 7.199219 -10.398438 7.136719 -10.429688 C 6.941406 -10.71875 6.75 -10.910156 6.589844 -11.039062 C 6.335938 -11.261719 6.144531 -11.421875 5.984375 -11.550781 C 5.757812 -11.742188 5.566406 -11.902344 5.375 -12.03125 C 5.3125 -12.0625 5.246094 -12.09375 5.214844 -12.125 C 5.085938 -12.222656 4.960938 -12.316406 4.832031 -12.382812 C 4.734375 -12.445312 4.671875 -12.511719 4.605469 -12.542969 C 4.511719 -12.605469 4.449219 -12.671875 4.382812 -12.703125 C 4.191406 -12.828125 4.0625 -12.925781 4 -12.988281 L 3.648438 -13.277344 L 3.359375 -13.566406 C 3.296875 -13.660156 3.230469 -13.726562 3.167969 -13.789062 C 3.136719 -13.820312 3.136719 -13.820312 3.136719 -13.855469 C 3.101562 -13.917969 3.039062 -13.980469 3.007812 -14.015625 C 2.976562 -14.109375 2.945312 -14.171875 2.910156 -14.207031 C 2.910156 -14.238281 2.910156 -14.269531 2.910156 -14.300781 C 2.910156 -14.332031 2.910156 -14.332031 2.878906 -14.367188 L 2.878906 -14.527344 C 2.910156 -14.621094 2.945312 -14.71875 2.945312 -14.8125 C 2.976562 -14.878906 3.007812 -14.941406 3.070312 -15.039062 C 3.136719 -15.164062 3.199219 -15.230469 3.230469 -15.261719 L 3.457031 -15.484375 C 3.550781 -15.550781 3.648438 -15.613281 3.710938 -15.644531 C 3.839844 -15.710938 3.96875 -15.742188 4.0625 -15.773438 C 4.09375 -15.804688 4.160156 -15.804688 4.191406 -15.804688 C 4.222656 -15.835938 4.289062 -15.835938 4.320312 -15.835938 L 4.574219 -15.835938 C 4.640625 -15.835938 4.703125 -15.835938 4.734375 -15.835938 C 4.765625 -15.804688 4.800781 -15.804688 4.832031 -15.773438 C 4.894531 -15.773438 4.960938 -15.742188 5.023438 -15.710938 L 5.054688 -15.710938 L 5.214844 -15.613281 C 5.246094 -15.613281 5.246094 -15.613281 5.277344 -15.613281 C 5.277344 -15.582031 5.277344 -15.582031 5.277344 -15.550781 C 5.597656 -15.324219 5.886719 -15.230469 6.144531 -15.230469 L 6.269531 -15.230469 C 6.589844 -15.324219 6.847656 -15.484375 7.070312 -15.710938 C 7.292969 -15.902344 7.390625 -16.15625 7.390625 -16.445312 L 7.390625 -16.574219 C 7.390625 -16.957031 7.230469 -17.277344 6.878906 -17.535156 C 6.878906 -17.597656 6.816406 -17.660156 6.65625 -17.726562 C 6.621094 -17.726562 6.589844 -17.726562 6.558594 -17.757812 C 6.527344 -17.820312 6.496094 -17.851562 6.464844 -17.851562 C 6.335938 -17.949219 6.175781 -18.046875 5.984375 -18.109375 C 5.886719 -18.140625 5.792969 -18.207031 5.632812 -18.238281 C 5.597656 -18.238281 5.535156 -18.238281 5.472656 -18.269531 C 5.3125 -18.332031 5.121094 -18.363281 4.863281 -18.363281 C 4.765625 -18.398438 4.605469 -18.398438 4.449219 -18.398438 Z M 4.449219 -18.398438 "/></g></g></g><g fill="#ffffff" fill-opacity="1"><g transform="translate(138.053597, 91.749957)"><g><path d="M 1.664062 -18.652344 C 1.375 -18.652344 1.121094 -18.558594 0.863281 -18.398438 C 0.640625 -18.207031 0.480469 -17.949219 0.382812 -17.597656 L 0.382812 -17.46875 C 0.351562 -17.375 0.351562 -17.277344 0.351562 -17.179688 L 0.351562 -17.117188 C 0.320312 -17.019531 0.320312 -16.894531 0.320312 -16.796875 C 0.320312 -16.605469 0.351562 -16.414062 0.449219 -16.222656 C 0.609375 -15.964844 0.800781 -15.804688 1.023438 -15.710938 C 1.28125 -15.613281 1.535156 -15.582031 1.792969 -15.582031 C 2.046875 -15.613281 2.273438 -15.742188 2.464844 -15.933594 C 2.6875 -16.15625 2.816406 -16.445312 2.878906 -16.765625 L 2.878906 -16.828125 C 2.910156 -16.957031 2.910156 -17.054688 2.910156 -17.117188 C 2.945312 -17.214844 2.945312 -17.277344 2.945312 -17.375 C 2.945312 -17.726562 2.847656 -17.980469 2.625 -18.207031 C 2.367188 -18.492188 2.046875 -18.652344 1.664062 -18.652344 Z M 0.414062 -13.246094 L 0.414062 -10.941406 C 0.449219 -10.847656 0.449219 -10.71875 0.449219 -10.558594 C 0.449219 -10.429688 0.480469 -10.238281 0.511719 -10.015625 L 0.511719 -9.917969 C 0.511719 -9.886719 0.511719 -9.824219 0.542969 -9.789062 C 0.574219 -9.628906 0.609375 -9.4375 0.640625 -9.214844 C 0.703125 -9.023438 0.769531 -8.765625 0.832031 -8.445312 C 0.929688 -8.222656 1.023438 -7.964844 1.085938 -7.710938 C 1.214844 -7.488281 1.3125 -7.261719 1.40625 -7.007812 C 1.503906 -6.878906 1.601562 -6.71875 1.695312 -6.527344 L 1.824219 -6.269531 L 1.917969 -6.175781 C 2.046875 -6.015625 2.207031 -5.824219 2.367188 -5.597656 C 2.429688 -5.535156 2.496094 -5.472656 2.589844 -5.40625 C 2.6875 -5.3125 2.847656 -5.183594 3.007812 -5.054688 C 3.199219 -4.925781 3.421875 -4.800781 3.648438 -4.671875 L 4.289062 -4.414062 C 4.382812 -4.382812 4.511719 -4.351562 4.640625 -4.320312 C 4.703125 -4.289062 4.765625 -4.289062 4.863281 -4.253906 C 5.054688 -4.222656 5.277344 -4.191406 5.503906 -4.160156 C 5.695312 -4.160156 5.917969 -4.160156 6.207031 -4.191406 C 6.429688 -4.222656 6.621094 -4.289062 6.816406 -4.351562 L 6.910156 -4.382812 C 7.070312 -4.414062 7.261719 -4.511719 7.453125 -4.605469 C 7.613281 -4.703125 7.808594 -4.832031 8 -4.992188 C 8.160156 -5.121094 8.320312 -5.277344 8.511719 -5.4375 L 8.925781 -5.855469 C 9.023438 -5.949219 9.117188 -6.046875 9.214844 -6.175781 C 9.246094 -6.207031 9.277344 -6.269531 9.308594 -6.304688 C 9.4375 -6.496094 9.566406 -6.65625 9.695312 -6.816406 C 9.726562 -6.847656 9.726562 -6.878906 9.757812 -6.910156 C 9.855469 -7.007812 9.949219 -7.136719 10.046875 -7.292969 C 10.207031 -7.488281 10.300781 -7.679688 10.367188 -7.839844 L 10.429688 -7.902344 C 10.496094 -8 10.589844 -8.160156 10.6875 -8.351562 C 10.8125 -8.542969 10.910156 -8.734375 10.972656 -8.925781 L 11.070312 -9.117188 C 11.101562 -9.214844 11.167969 -9.308594 11.261719 -9.46875 C 11.359375 -9.664062 11.453125 -9.824219 11.550781 -9.984375 C 11.582031 -10.015625 11.613281 -10.078125 11.644531 -10.109375 C 11.679688 -10.207031 11.742188 -10.300781 11.839844 -10.398438 L 11.871094 -10.460938 C 12.0625 -10.75 12.15625 -11.039062 12.15625 -11.328125 C 12.15625 -11.644531 12.0625 -11.902344 11.902344 -12.0625 C 11.742188 -12.253906 11.519531 -12.382812 11.292969 -12.476562 C 11.199219 -12.542969 11.070312 -12.574219 10.910156 -12.574219 C 10.78125 -12.574219 10.65625 -12.542969 10.527344 -12.511719 C 10.238281 -12.445312 9.984375 -12.253906 9.789062 -11.964844 L 9.726562 -11.871094 C 9.664062 -11.773438 9.597656 -11.679688 9.535156 -11.582031 C 9.46875 -11.453125 9.40625 -11.359375 9.34375 -11.261719 C 9.214844 -11.070312 9.117188 -10.878906 9.023438 -10.6875 C 8.925781 -10.527344 8.863281 -10.398438 8.796875 -10.300781 L 8.703125 -10.109375 C 8.671875 -10.078125 8.671875 -10.046875 8.671875 -10.015625 C 8.605469 -9.917969 8.542969 -9.789062 8.445312 -9.628906 L 8.351562 -9.4375 C 8.285156 -9.277344 8.222656 -9.183594 8.191406 -9.152344 C 8.160156 -9.117188 8.125 -9.054688 8.09375 -9.023438 C 8.0625 -8.925781 8 -8.832031 7.902344 -8.734375 L 7.773438 -8.542969 C 7.710938 -8.445312 7.648438 -8.382812 7.613281 -8.320312 C 7.550781 -8.253906 7.453125 -8.125 7.328125 -7.933594 C 7.292969 -7.902344 7.261719 -7.839844 7.230469 -7.808594 C 7.136719 -7.710938 7.070312 -7.613281 7.039062 -7.582031 L 6.71875 -7.261719 C 6.6875 -7.230469 6.621094 -7.199219 6.589844 -7.167969 C 6.558594 -7.136719 6.496094 -7.070312 6.464844 -7.039062 C 6.429688 -7.007812 6.398438 -7.007812 6.367188 -6.976562 C 6.335938 -6.941406 6.269531 -6.910156 6.238281 -6.878906 L 6.046875 -6.78125 L 5.984375 -6.78125 C 5.949219 -6.75 5.886719 -6.75 5.824219 -6.71875 L 5.597656 -6.71875 C 5.566406 -6.75 5.503906 -6.75 5.40625 -6.75 C 5.3125 -6.816406 5.183594 -6.847656 5.085938 -6.847656 C 4.992188 -6.878906 4.894531 -6.910156 4.832031 -6.941406 C 4.765625 -7.007812 4.671875 -7.070312 4.542969 -7.136719 C 4.480469 -7.167969 4.414062 -7.230469 4.382812 -7.261719 C 4.320312 -7.292969 4.253906 -7.359375 4.222656 -7.390625 C 4.191406 -7.453125 4.128906 -7.519531 4.09375 -7.550781 C 4.0625 -7.613281 4 -7.679688 3.96875 -7.710938 C 3.902344 -7.808594 3.839844 -7.902344 3.777344 -8 L 3.710938 -8.09375 C 3.648438 -8.285156 3.582031 -8.480469 3.488281 -8.636719 C 3.457031 -8.734375 3.421875 -8.832031 3.390625 -8.925781 C 3.359375 -9.023438 3.296875 -9.117188 3.261719 -9.214844 C 3.230469 -9.375 3.199219 -9.503906 3.167969 -9.597656 L 3.136719 -9.726562 C 3.101562 -9.949219 3.070312 -10.109375 3.039062 -10.238281 C 3.039062 -10.367188 3.039062 -10.460938 3.007812 -10.558594 L 3.007812 -10.75 C 3.007812 -10.847656 3.007812 -10.941406 2.976562 -11.039062 L 2.976562 -13.246094 C 2.976562 -13.695312 2.847656 -14.015625 2.589844 -14.238281 C 2.367188 -14.492188 2.046875 -14.621094 1.695312 -14.621094 C 1.375 -14.621094 1.085938 -14.492188 0.800781 -14.269531 C 0.542969 -14.046875 0.414062 -13.695312 0.414062 -13.246094 Z M 0.414062 -13.246094 "/></g></g></g><g fill="#ffffff" fill-opacity="1"><g transform="translate(147.651241, 91.749957)"><g><path d="M 6.207031 -13.308594 C 6.335938 -13.214844 6.429688 -13.148438 6.496094 -13.085938 L 6.527344 -13.085938 L 6.464844 -13.085938 C 6.464844 -13.117188 6.464844 -13.117188 6.398438 -13.117188 C 6.335938 -13.148438 6.304688 -13.148438 6.238281 -13.148438 L 5.984375 -13.148438 C 5.855469 -13.148438 5.757812 -13.148438 5.632812 -13.117188 C 5.535156 -13.117188 5.4375 -13.117188 5.277344 -13.054688 C 5.152344 -13.023438 4.992188 -12.957031 4.832031 -12.894531 C 4.765625 -12.894531 4.640625 -12.828125 4.480469 -12.734375 C 4.414062 -12.703125 4.320312 -12.636719 4.191406 -12.542969 L 3.902344 -12.253906 C 3.839844 -12.191406 3.742188 -12.09375 3.617188 -11.933594 C 3.519531 -11.804688 3.421875 -11.644531 3.328125 -11.519531 C 3.261719 -11.390625 3.167969 -11.261719 3.101562 -11.132812 C 3.070312 -11.039062 3.039062 -10.910156 2.976562 -10.75 C 2.976562 -10.65625 2.945312 -10.527344 2.910156 -10.367188 C 2.910156 -10.175781 2.878906 -10.015625 2.878906 -9.886719 C 2.878906 -9.726562 2.910156 -9.566406 2.910156 -9.4375 C 2.945312 -9.375 2.976562 -9.246094 3.007812 -9.085938 C 3.070312 -8.992188 3.101562 -8.863281 3.167969 -8.703125 C 3.230469 -8.605469 3.328125 -8.480469 3.390625 -8.320312 C 3.457031 -8.253906 3.550781 -8.125 3.679688 -7.964844 L 4.0625 -7.582031 C 4.128906 -7.519531 4.222656 -7.453125 4.351562 -7.359375 C 4.449219 -7.328125 4.542969 -7.261719 4.671875 -7.199219 L 4.960938 -7.101562 C 5.054688 -7.101562 5.152344 -7.101562 5.246094 -7.070312 C 5.375 -7.070312 5.503906 -7.039062 5.664062 -7.007812 C 5.792969 -7.007812 5.886719 -7.039062 6.015625 -7.039062 C 6.144531 -7.070312 6.269531 -7.101562 6.335938 -7.136719 C 6.398438 -7.167969 6.527344 -7.199219 6.65625 -7.261719 C 6.75 -7.328125 6.847656 -7.359375 6.941406 -7.421875 C 7.039062 -7.488281 7.167969 -7.582031 7.292969 -7.710938 C 7.359375 -7.742188 7.488281 -7.839844 7.679688 -8.03125 C 7.742188 -8.09375 7.808594 -8.160156 7.902344 -8.222656 C 8.03125 -8.320312 8.09375 -8.382812 8.09375 -8.382812 C 8.253906 -8.511719 8.382812 -8.605469 8.445312 -8.703125 L 8.796875 -9.054688 C 8.863281 -9.117188 8.992188 -9.277344 9.152344 -9.46875 C 9.246094 -9.566406 9.375 -9.695312 9.503906 -9.855469 C 9.628906 -9.984375 9.757812 -10.140625 9.917969 -10.335938 C 10.109375 -10.589844 10.269531 -10.75 10.335938 -10.847656 L 10.8125 -11.328125 C 10.972656 -11.484375 11.167969 -11.644531 11.359375 -11.804688 C 11.519531 -11.933594 11.710938 -12.0625 11.964844 -12.253906 C 12.09375 -12.351562 12.253906 -12.476562 12.511719 -12.636719 C 12.636719 -12.734375 12.828125 -12.863281 13.085938 -13.023438 C 13.34375 -13.183594 13.628906 -13.246094 13.855469 -13.246094 L 13.980469 -13.246094 C 14.269531 -13.246094 14.460938 -13.117188 14.652344 -12.925781 C 14.84375 -12.734375 15.003906 -12.542969 15.070312 -12.285156 C 15.101562 -12.15625 15.132812 -12.0625 15.132812 -11.933594 C 15.132812 -11.804688 15.101562 -11.679688 15.039062 -11.519531 C 14.941406 -11.261719 14.75 -11.007812 14.429688 -10.8125 C 14.238281 -10.6875 14.078125 -10.589844 13.980469 -10.527344 C 13.726562 -10.367188 13.566406 -10.238281 13.4375 -10.175781 C 13.246094 -10.046875 13.117188 -9.917969 12.988281 -9.824219 C 12.863281 -9.695312 12.734375 -9.597656 12.605469 -9.46875 C 12.414062 -9.308594 12.285156 -9.183594 12.222656 -9.085938 C 12.222656 -9.085938 12.09375 -8.957031 11.871094 -8.703125 C 11.710938 -8.511719 11.582031 -8.382812 11.484375 -8.253906 C 11.328125 -8.0625 11.199219 -7.902344 11.070312 -7.773438 C 10.878906 -7.550781 10.75 -7.390625 10.65625 -7.328125 C 10.527344 -7.167969 10.398438 -7.007812 10.238281 -6.878906 L 9.789062 -6.429688 C 9.789062 -6.429688 9.726562 -6.429688 9.597656 -6.304688 C 9.503906 -6.207031 9.40625 -6.144531 9.34375 -6.078125 C 9.085938 -5.855469 8.957031 -5.726562 8.894531 -5.664062 C 8.703125 -5.535156 8.511719 -5.40625 8.351562 -5.277344 C 8.160156 -5.152344 7.933594 -5.054688 7.742188 -4.960938 C 7.488281 -4.832031 7.292969 -4.734375 7.101562 -4.671875 C 6.847656 -4.605469 6.589844 -4.574219 6.367188 -4.511719 C 6.109375 -4.480469 5.886719 -4.480469 5.632812 -4.480469 C 5.40625 -4.480469 5.183594 -4.511719 4.992188 -4.511719 C 4.734375 -4.542969 4.480469 -4.574219 4.289062 -4.640625 C 4.03125 -4.703125 3.777344 -4.800781 3.582031 -4.863281 C 3.328125 -4.992188 3.136719 -5.121094 2.945312 -5.214844 C 2.6875 -5.40625 2.496094 -5.566406 2.304688 -5.726562 L 1.757812 -6.269531 C 1.566406 -6.527344 1.40625 -6.71875 1.28125 -6.910156 C 1.121094 -7.167969 0.992188 -7.390625 0.863281 -7.582031 C 0.734375 -7.871094 0.640625 -8.09375 0.574219 -8.285156 C 0.480469 -8.605469 0.414062 -8.894531 0.382812 -9.117188 C 0.351562 -9.375 0.320312 -9.628906 0.320312 -9.855469 C 0.320312 -10.140625 0.351562 -10.398438 0.351562 -10.621094 C 0.414062 -10.941406 0.449219 -11.230469 0.511719 -11.421875 C 0.609375 -11.742188 0.703125 -12.03125 0.800781 -12.222656 C 0.929688 -12.476562 1.054688 -12.703125 1.152344 -12.894531 C 1.3125 -13.117188 1.441406 -13.308594 1.566406 -13.46875 C 1.757812 -13.726562 1.953125 -13.917969 2.078125 -14.046875 C 2.304688 -14.300781 2.496094 -14.460938 2.625 -14.589844 C 2.878906 -14.78125 3.070312 -14.910156 3.261719 -15.003906 C 3.519531 -15.132812 3.777344 -15.261719 3.96875 -15.324219 C 4.191406 -15.421875 4.414062 -15.484375 4.605469 -15.515625 C 4.863281 -15.582031 5.085938 -15.644531 5.277344 -15.675781 C 5.535156 -15.710938 5.726562 -15.710938 5.917969 -15.710938 L 6.527344 -15.710938 C 6.75 -15.675781 6.941406 -15.644531 7.070312 -15.582031 C 7.261719 -15.550781 7.390625 -15.515625 7.519531 -15.453125 C 7.773438 -15.359375 7.933594 -15.230469 8.03125 -15.101562 C 8.285156 -14.878906 8.414062 -14.652344 8.445312 -14.332031 C 8.480469 -14.238281 8.480469 -14.171875 8.480469 -14.078125 C 8.480469 -13.886719 8.414062 -13.726562 8.320312 -13.566406 C 8.191406 -13.34375 8 -13.183594 7.773438 -13.023438 C 7.613281 -12.925781 7.421875 -12.863281 7.199219 -12.863281 L 7.039062 -12.863281 C 6.75 -12.925781 6.464844 -13.054688 6.207031 -13.308594 Z M 6.207031 -13.308594 "/></g></g></g></svg>