<svg xmlns="http://www.w3.org/2000/svg" xmlns:xlink="http://www.w3.org/1999/xlink" width="336" zoomAndPan="magnify" viewBox="0 0 252 143.999998" height="192" preserveAspectRatio="xMidYMid meet" version="1.0"><defs><g/></defs><g fill="#000000" fill-opacity="1"><g transform="translate(88.289059, 91.749957)"><g><path d="M 5.054688 -9.023438 L 5.121094 -9.023438 L 5.121094 -8.957031 L 5.246094 -8.832031 L 5.277344 -8.832031 L 5.277344 -8.796875 C 5.3125 -8.765625 5.3125 -8.765625 5.3125 -8.765625 C 5.3125 -8.734375 5.3125 -8.734375 5.3125 -8.703125 L 5.277344 -8.734375 L 5.277344 -8.671875 C 5.277344 -8.636719 5.277344 -8.636719 5.277344 -8.605469 C 5.246094 -8.574219 5.246094 -8.574219 5.214844 -8.542969 C 5.183594 -8.480469 5.121094 -8.414062 5.023438 -8.320312 C 4.992188 -8.285156 4.992188 -8.253906 4.960938 -8.222656 C 4.894531 -8.125 4.832031 -8.0625 4.800781 -8.03125 C 4.765625 -7.964844 4.671875 -7.902344 4.542969 -7.839844 C 4.542969 -7.902344 4.511719 -7.964844 4.480469 -8.03125 C 4.449219 -8.160156 4.414062 -8.285156 4.382812 -8.382812 C 4.382812 -8.480469 4.382812 -8.542969 4.351562 -8.574219 L 4.351562 -8.636719 C 4.351562 -8.671875 4.351562 -8.703125 4.382812 -8.734375 L 4.382812 -8.832031 L 4.414062 -8.863281 L 4.414062 -8.925781 L 4.449219 -8.925781 L 4.449219 -8.957031 C 4.480469 -8.992188 4.511719 -8.992188 4.542969 -9.023438 C 4.574219 -9.023438 4.574219 -9.023438 4.605469 -9.054688 C 4.640625 -9.085938 4.640625 -9.085938 4.671875 -9.085938 C 4.703125 -9.117188 4.703125 -9.117188 4.734375 -9.117188 L 4.832031 -9.117188 L 4.863281 -9.085938 C 4.992188 -9.085938 5.054688 -9.054688 5.054688 -9.023438 Z M 2.078125 -6.941406 C 1.953125 -6.941406 1.792969 -6.941406 1.632812 -6.910156 C 1.054688 -6.910156 0.671875 -6.6875 0.449219 -6.238281 C 0.351562 -6.046875 0.289062 -5.855469 0.289062 -5.632812 C 0.289062 -5.40625 0.351562 -5.183594 0.480469 -4.960938 C 0.734375 -4.542969 1.152344 -4.351562 1.726562 -4.351562 C 1.792969 -4.351562 1.855469 -4.351562 1.886719 -4.382812 C 2.046875 -4.414062 2.207031 -4.414062 2.367188 -4.414062 C 2.65625 -4.449219 2.910156 -4.480469 3.136719 -4.511719 C 3.328125 -4.542969 3.519531 -4.605469 3.679688 -4.671875 C 3.742188 -4.703125 3.808594 -4.703125 3.902344 -4.734375 L 3.933594 -4.734375 C 4 -4.703125 4.0625 -4.671875 4.09375 -4.640625 C 4.382812 -4.480469 4.605469 -4.351562 4.800781 -4.222656 C 4.960938 -4.128906 5.121094 -4.0625 5.277344 -4.03125 C 5.375 -4 5.472656 -3.933594 5.566406 -3.902344 L 6.238281 -3.679688 C 6.304688 -3.679688 6.367188 -3.679688 6.398438 -3.648438 L 6.78125 -3.582031 C 6.941406 -3.550781 7.101562 -3.519531 7.261719 -3.488281 C 7.328125 -3.488281 7.390625 -3.488281 7.488281 -3.457031 C 7.773438 -3.421875 8 -3.421875 8.191406 -3.421875 C 8.414062 -3.421875 8.605469 -3.421875 8.765625 -3.457031 L 9.214844 -3.457031 L 9.664062 -3.519531 C 9.917969 -3.550781 10.140625 -3.582031 10.335938 -3.617188 C 10.78125 -3.777344 11.132812 -3.902344 11.359375 -4.03125 C 11.582031 -4.191406 11.804688 -4.320312 11.964844 -4.414062 C 12 -4.449219 12.0625 -4.480469 12.09375 -4.511719 C 12.382812 -4.734375 12.605469 -4.960938 12.765625 -5.183594 C 12.988281 -5.4375 13.117188 -5.664062 13.183594 -5.855469 C 13.308594 -6.175781 13.375 -6.429688 13.40625 -6.621094 C 13.46875 -6.941406 13.5 -7.199219 13.5 -7.421875 C 13.5 -7.710938 13.46875 -7.964844 13.375 -8.191406 C 13.308594 -8.480469 13.246094 -8.703125 13.183594 -8.894531 C 13.085938 -9.152344 12.988281 -9.375 12.863281 -9.535156 C 12.765625 -9.757812 12.671875 -9.949219 12.542969 -10.109375 C 12.382812 -10.367188 12.253906 -10.558594 12.125 -10.6875 C 12.03125 -10.847656 11.902344 -11.007812 11.710938 -11.199219 C 11.550781 -11.453125 11.390625 -11.644531 11.261719 -11.742188 C 11.070312 -11.933594 10.910156 -12.09375 10.75 -12.222656 C 10.558594 -12.414062 10.367188 -12.574219 10.175781 -12.703125 C 9.917969 -12.894531 9.726562 -13.023438 9.566406 -13.117188 C 9.375 -13.246094 9.183594 -13.375 8.957031 -13.46875 C 8.957031 -13.5 8.765625 -13.628906 8.382812 -13.855469 C 8.285156 -13.917969 8.222656 -13.980469 8.160156 -14.015625 C 8.0625 -14.078125 8 -14.140625 7.933594 -14.171875 C 7.839844 -14.269531 7.742188 -14.332031 7.648438 -14.398438 C 7.613281 -14.429688 7.550781 -14.460938 7.519531 -14.492188 L 7.390625 -14.621094 C 7.328125 -14.71875 7.261719 -14.78125 7.167969 -14.84375 C 7.101562 -14.972656 7.007812 -15.070312 6.910156 -15.164062 C 6.847656 -15.292969 6.78125 -15.421875 6.71875 -15.515625 C 6.65625 -15.675781 6.589844 -15.804688 6.527344 -15.871094 L 6.429688 -16.253906 C 6.398438 -16.445312 6.367188 -16.574219 6.335938 -16.667969 C 6.335938 -16.765625 6.335938 -16.828125 6.304688 -16.894531 L 6.304688 -17.308594 C 6.335938 -17.40625 6.335938 -17.46875 6.367188 -17.5 C 6.367188 -17.535156 6.367188 -17.566406 6.367188 -17.597656 L 6.464844 -17.789062 C 6.464844 -17.820312 6.464844 -17.851562 6.496094 -17.886719 C 6.558594 -18.011719 6.621094 -18.109375 6.6875 -18.171875 C 6.71875 -18.207031 6.78125 -18.269531 6.816406 -18.332031 C 6.847656 -18.363281 6.878906 -18.429688 6.910156 -18.460938 C 6.976562 -18.492188 7.039062 -18.523438 7.070312 -18.558594 C 7.136719 -18.589844 7.199219 -18.652344 7.230469 -18.683594 C 7.359375 -18.78125 7.488281 -18.84375 7.613281 -18.910156 C 7.710938 -18.941406 7.773438 -18.972656 7.839844 -19.003906 C 7.933594 -19.035156 8 -19.035156 8.0625 -19.070312 C 8.222656 -19.132812 8.351562 -19.164062 8.445312 -19.164062 L 8.863281 -19.164062 C 9.023438 -19.164062 9.183594 -19.132812 9.308594 -19.101562 C 9.46875 -19.070312 9.566406 -19.035156 9.628906 -19.003906 C 9.664062 -18.972656 9.695312 -18.972656 9.726562 -18.972656 C 9.824219 -18.941406 9.886719 -18.878906 9.917969 -18.84375 C 9.949219 -18.8125 9.984375 -18.8125 10.015625 -18.78125 C 10.078125 -18.75 10.140625 -18.71875 10.175781 -18.683594 L 10.300781 -18.558594 C 10.367188 -18.492188 10.429688 -18.429688 10.460938 -18.363281 C 10.496094 -18.332031 10.496094 -18.332031 10.527344 -18.332031 C 10.527344 -18.300781 10.527344 -18.300781 10.527344 -18.269531 C 10.75 -17.789062 11.101562 -17.5 11.550781 -17.4375 L 11.773438 -17.4375 C 12.125 -17.4375 12.445312 -17.566406 12.703125 -17.851562 C 12.925781 -18.109375 13.023438 -18.363281 13.023438 -18.652344 C 13.023438 -18.8125 12.988281 -19.003906 12.925781 -19.195312 C 12.894531 -19.324219 12.828125 -19.453125 12.734375 -19.582031 C 12.703125 -19.675781 12.636719 -19.773438 12.511719 -19.902344 C 12.476562 -19.996094 12.382812 -20.09375 12.253906 -20.222656 L 12.15625 -20.316406 C 12.0625 -20.414062 11.964844 -20.539062 11.804688 -20.636719 C 11.679688 -20.765625 11.519531 -20.894531 11.292969 -21.019531 C 11.132812 -21.148438 10.910156 -21.246094 10.65625 -21.339844 C 10.460938 -21.4375 10.207031 -21.5 9.886719 -21.566406 C 9.664062 -21.660156 9.40625 -21.691406 9.117188 -21.691406 C 9.023438 -21.722656 8.863281 -21.722656 8.703125 -21.722656 L 8.285156 -21.722656 C 8.03125 -21.722656 7.742188 -21.660156 7.390625 -21.53125 C 7.167969 -21.46875 6.910156 -21.371094 6.589844 -21.246094 C 6.367188 -21.179688 6.109375 -21.050781 5.855469 -20.859375 C 5.664062 -20.734375 5.4375 -20.574219 5.183594 -20.347656 C 5.054688 -20.222656 4.925781 -20.0625 4.765625 -19.867188 C 4.734375 -19.835938 4.703125 -19.804688 4.671875 -19.773438 C 4.574219 -19.644531 4.480469 -19.484375 4.351562 -19.324219 C 4.320312 -19.261719 4.289062 -19.195312 4.253906 -19.132812 C 4.160156 -18.941406 4.0625 -18.71875 3.96875 -18.429688 C 3.933594 -18.332031 3.871094 -18.171875 3.839844 -17.980469 C 3.839844 -17.886719 3.839844 -17.820312 3.808594 -17.726562 C 3.777344 -17.535156 3.742188 -17.277344 3.742188 -16.988281 C 3.742188 -16.828125 3.742188 -16.667969 3.777344 -16.445312 C 3.808594 -16.414062 3.808594 -16.347656 3.808594 -16.285156 C 3.808594 -16.253906 3.808594 -16.191406 3.839844 -16.15625 C 3.871094 -16.03125 3.902344 -15.871094 3.933594 -15.675781 C 4 -15.484375 4.0625 -15.261719 4.128906 -14.972656 C 4.160156 -14.878906 4.222656 -14.75 4.320312 -14.589844 L 4.449219 -14.332031 L 4.542969 -14.171875 C 4.640625 -14.015625 4.734375 -13.855469 4.832031 -13.695312 C 4.960938 -13.535156 5.121094 -13.34375 5.277344 -13.148438 C 5.4375 -12.988281 5.597656 -12.796875 5.792969 -12.605469 C 5.984375 -12.511719 6.175781 -12.351562 6.367188 -12.15625 C 6.464844 -12.09375 6.558594 -12.03125 6.65625 -11.964844 C 6.75 -11.871094 6.878906 -11.804688 7.007812 -11.710938 C 7.359375 -11.519531 7.550781 -11.390625 7.613281 -11.292969 C 7.808594 -11.230469 8 -11.101562 8.191406 -10.941406 C 8.320312 -10.878906 8.480469 -10.78125 8.671875 -10.621094 C 8.796875 -10.558594 8.925781 -10.460938 9.054688 -10.300781 C 9.183594 -10.207031 9.308594 -10.078125 9.4375 -9.917969 C 9.535156 -9.855469 9.628906 -9.757812 9.726562 -9.628906 C 9.726562 -9.597656 9.726562 -9.597656 9.757812 -9.566406 C 9.949219 -9.40625 10.078125 -9.246094 10.140625 -9.117188 C 10.175781 -9.085938 10.238281 -8.992188 10.300781 -8.894531 L 10.367188 -8.765625 C 10.460938 -8.671875 10.558594 -8.542969 10.589844 -8.414062 L 10.621094 -8.351562 C 10.65625 -8.285156 10.71875 -8.191406 10.75 -8.0625 C 10.75 -8.03125 10.75 -7.964844 10.78125 -7.933594 C 10.8125 -7.902344 10.8125 -7.839844 10.847656 -7.808594 C 10.878906 -7.742188 10.878906 -7.679688 10.910156 -7.613281 L 10.910156 -7.582031 C 10.941406 -7.519531 10.941406 -7.453125 10.941406 -7.390625 L 10.941406 -7.328125 C 10.941406 -7.292969 10.941406 -7.230469 10.910156 -7.167969 C 10.878906 -7.136719 10.878906 -7.136719 10.878906 -7.101562 C 10.878906 -7.070312 10.878906 -7.039062 10.878906 -7.007812 C 10.847656 -6.976562 10.847656 -6.910156 10.8125 -6.878906 C 10.8125 -6.847656 10.78125 -6.78125 10.75 -6.71875 L 10.6875 -6.65625 C 10.6875 -6.621094 10.65625 -6.589844 10.589844 -6.558594 C 10.558594 -6.558594 10.558594 -6.558594 10.527344 -6.527344 C 10.496094 -6.496094 10.496094 -6.496094 10.460938 -6.496094 C 10.367188 -6.429688 10.269531 -6.367188 10.109375 -6.269531 C 10.046875 -6.238281 9.949219 -6.175781 9.824219 -6.144531 C 9.789062 -6.144531 9.726562 -6.144531 9.695312 -6.109375 C 9.664062 -6.109375 9.597656 -6.109375 9.566406 -6.078125 C 9.40625 -6.046875 9.214844 -6.015625 8.992188 -5.984375 L 8.253906 -5.984375 C 8.125 -5.984375 7.964844 -5.984375 7.773438 -6.015625 C 7.710938 -6.046875 7.648438 -6.046875 7.582031 -6.046875 C 7.390625 -6.078125 7.199219 -6.109375 6.976562 -6.144531 C 6.878906 -6.175781 6.75 -6.207031 6.621094 -6.238281 L 6.816406 -6.429688 C 6.878906 -6.527344 6.941406 -6.589844 6.976562 -6.65625 C 7.039062 -6.75 7.101562 -6.816406 7.136719 -6.878906 C 7.261719 -7.039062 7.359375 -7.167969 7.421875 -7.261719 C 7.582031 -7.550781 7.679688 -7.808594 7.742188 -8 C 7.839844 -8.222656 7.871094 -8.445312 7.871094 -8.605469 C 7.871094 -8.703125 7.871094 -8.765625 7.839844 -8.832031 C 7.839844 -9.183594 7.773438 -9.46875 7.679688 -9.695312 C 7.648438 -9.726562 7.648438 -9.789062 7.613281 -9.855469 C 7.519531 -10.046875 7.421875 -10.207031 7.328125 -10.335938 C 7.136719 -10.589844 6.976562 -10.78125 6.816406 -10.910156 C 6.589844 -11.132812 6.367188 -11.261719 6.144531 -11.328125 C 5.949219 -11.421875 5.757812 -11.519531 5.597656 -11.550781 L 5.503906 -11.582031 C 5.214844 -11.644531 4.960938 -11.679688 4.734375 -11.679688 C 4.480469 -11.679688 4.222656 -11.644531 4 -11.550781 C 3.742188 -11.484375 3.519531 -11.390625 3.328125 -11.261719 C 3.101562 -11.132812 2.878906 -10.972656 2.6875 -10.78125 C 2.429688 -10.558594 2.238281 -10.300781 2.113281 -10.046875 C 2.015625 -9.789062 1.917969 -9.535156 1.855469 -9.277344 C 1.824219 -8.992188 1.792969 -8.765625 1.792969 -8.574219 C 1.792969 -8.320312 1.824219 -8.0625 1.886719 -7.839844 C 1.953125 -7.582031 2.015625 -7.359375 2.078125 -7.167969 C 2.113281 -7.101562 2.144531 -7.039062 2.144531 -6.976562 L 2.113281 -6.976562 Z M 2.078125 -6.941406 "/></g></g></g><g fill="#000000" fill-opacity="1"><g transform="translate(102.077666, 91.749957)"><g><path d="M 10.300781 -6.144531 L 10.300781 -6.109375 L 10.175781 -6.109375 C 10.175781 -6.144531 10.175781 -6.144531 10.175781 -6.175781 C 10.140625 -6.175781 10.109375 -6.175781 10.078125 -6.175781 L 10.078125 -6.238281 L 10.015625 -6.304688 C 9.949219 -6.464844 9.917969 -6.558594 9.917969 -6.621094 L 9.917969 -6.6875 C 9.886719 -6.847656 9.855469 -7.007812 9.855469 -7.167969 C 9.855469 -7.230469 9.855469 -7.328125 9.824219 -7.488281 C 9.824219 -7.613281 9.824219 -7.710938 9.789062 -7.773438 L 9.789062 -7.871094 C 9.789062 -8.160156 9.757812 -8.414062 9.726562 -8.574219 C 9.726562 -8.863281 9.695312 -9.117188 9.628906 -9.308594 C 9.628906 -9.566406 9.597656 -9.789062 9.535156 -9.984375 C 9.503906 -10.269531 9.46875 -10.496094 9.4375 -10.6875 C 9.40625 -10.78125 9.40625 -10.878906 9.375 -10.972656 C 9.34375 -11.132812 9.308594 -11.261719 9.277344 -11.359375 C 9.214844 -11.613281 9.152344 -11.839844 9.085938 -12.03125 C 9.023438 -12.253906 8.957031 -12.445312 8.894531 -12.605469 C 8.863281 -12.636719 8.863281 -12.636719 8.863281 -12.671875 C 8.734375 -12.925781 8.636719 -13.117188 8.542969 -13.277344 C 8.414062 -13.566406 8.285156 -13.757812 8.125 -13.886719 C 7.933594 -14.140625 7.742188 -14.332031 7.550781 -14.429688 C 7.328125 -14.621094 7.101562 -14.75 6.878906 -14.8125 C 6.621094 -14.941406 6.398438 -15.003906 6.175781 -15.039062 C 5.917969 -15.101562 5.664062 -15.132812 5.4375 -15.132812 C 5.214844 -15.132812 5.023438 -15.101562 4.800781 -15.070312 C 4.542969 -15.070312 4.320312 -15.039062 4.09375 -14.941406 C 3.808594 -14.84375 3.550781 -14.75 3.359375 -14.652344 L 3.261719 -14.589844 C 3.230469 -14.589844 3.230469 -14.589844 3.230469 -14.558594 C 3.199219 -14.527344 3.167969 -14.527344 3.136719 -14.492188 C 3.101562 -14.492188 3.101562 -14.492188 3.070312 -14.460938 L 3.070312 -14.78125 C 3.070312 -14.910156 3.070312 -15.039062 3.101562 -15.164062 L 3.101562 -15.453125 C 3.136719 -15.710938 3.136719 -15.902344 3.136719 -16.0625 C 3.167969 -16.414062 3.167969 -16.636719 3.167969 -16.734375 L 3.167969 -16.925781 C 3.199219 -17.019531 3.199219 -17.179688 3.199219 -17.375 L 3.199219 -17.949219 C 3.230469 -18.171875 3.230469 -18.363281 3.230469 -18.492188 C 3.230469 -18.589844 3.230469 -18.71875 3.261719 -18.8125 L 3.261719 -19.003906 C 3.261719 -19.101562 3.261719 -19.195312 3.296875 -19.292969 L 3.296875 -19.421875 C 3.296875 -19.515625 3.296875 -19.613281 3.328125 -19.675781 L 3.328125 -19.773438 C 3.328125 -19.867188 3.328125 -19.964844 3.359375 -19.996094 L 3.359375 -20.222656 L 3.390625 -20.253906 C 3.421875 -20.414062 3.457031 -20.605469 3.457031 -20.765625 C 3.457031 -21.050781 3.359375 -21.277344 3.199219 -21.46875 C 2.945312 -21.820312 2.589844 -21.980469 2.175781 -21.980469 C 1.535156 -21.980469 1.121094 -21.660156 0.929688 -20.988281 C 0.929688 -20.957031 0.929688 -20.925781 0.929688 -20.894531 C 0.894531 -20.859375 0.894531 -20.796875 0.863281 -20.765625 C 0.863281 -20.734375 0.863281 -20.667969 0.832031 -20.574219 C 0.832031 -20.507812 0.832031 -20.445312 0.800781 -20.378906 C 0.800781 -20.347656 0.800781 -20.316406 0.800781 -20.253906 C 0.800781 -20.1875 0.800781 -20.125 0.769531 -20.0625 C 0.769531 -19.964844 0.769531 -19.835938 0.734375 -19.613281 L 0.734375 -19.421875 C 0.703125 -19.324219 0.703125 -19.230469 0.703125 -19.132812 L 0.703125 -18.941406 C 0.671875 -18.84375 0.671875 -18.75 0.671875 -18.621094 C 0.671875 -18.460938 0.671875 -18.269531 0.640625 -18.046875 L 0.640625 -17.4375 C 0.640625 -17.214844 0.640625 -17.054688 0.609375 -16.957031 L 0.609375 -16.828125 C 0.609375 -16.765625 0.609375 -16.574219 0.574219 -16.253906 C 0.574219 -16.0625 0.574219 -15.835938 0.542969 -15.582031 C 0.542969 -15.421875 0.542969 -15.199219 0.511719 -14.910156 C 0.511719 -14.71875 0.511719 -14.492188 0.480469 -14.207031 L 0.480469 -13.214844 C 0.449219 -13.085938 0.449219 -12.957031 0.449219 -12.828125 L 0.449219 -12.542969 C 0.414062 -12.382812 0.414062 -12.253906 0.414062 -12.09375 C 0.414062 -11.902344 0.414062 -11.679688 0.382812 -11.390625 L 0.382812 -10.621094 C 0.382812 -10.429688 0.382812 -10.175781 0.351562 -9.886719 L 0.351562 -7.328125 C 0.320312 -7.167969 0.320312 -7.039062 0.320312 -6.878906 L 0.320312 -6.046875 C 0.351562 -5.984375 0.351562 -5.886719 0.351562 -5.757812 C 0.382812 -5.183594 0.609375 -4.800781 1.023438 -4.574219 C 1.214844 -4.480469 1.40625 -4.449219 1.601562 -4.449219 C 1.855469 -4.449219 2.078125 -4.511719 2.304688 -4.640625 C 2.6875 -4.863281 2.878906 -5.214844 2.878906 -5.664062 L 2.878906 -6.847656 C 2.847656 -7.359375 2.847656 -7.839844 2.847656 -8.253906 C 2.847656 -8.957031 2.878906 -9.535156 2.945312 -9.984375 C 3.007812 -10.335938 3.136719 -10.65625 3.296875 -10.972656 C 3.328125 -11.070312 3.359375 -11.167969 3.390625 -11.199219 L 3.421875 -11.261719 C 3.457031 -11.328125 3.488281 -11.390625 3.519531 -11.421875 L 3.550781 -11.484375 C 3.617188 -11.582031 3.679688 -11.679688 3.742188 -11.742188 C 3.777344 -11.773438 3.839844 -11.804688 3.871094 -11.839844 C 3.902344 -11.871094 3.933594 -11.902344 3.96875 -11.933594 C 4.0625 -12.03125 4.160156 -12.125 4.289062 -12.222656 C 4.320312 -12.253906 4.382812 -12.285156 4.449219 -12.316406 L 4.574219 -12.382812 C 4.671875 -12.445312 4.734375 -12.476562 4.832031 -12.476562 C 4.925781 -12.511719 5.023438 -12.542969 5.121094 -12.542969 C 5.246094 -12.574219 5.34375 -12.574219 5.4375 -12.574219 C 5.503906 -12.574219 5.597656 -12.574219 5.695312 -12.542969 C 5.757812 -12.542969 5.824219 -12.511719 5.886719 -12.476562 C 5.917969 -12.476562 5.949219 -12.476562 5.984375 -12.476562 C 6.015625 -12.445312 6.015625 -12.414062 6.046875 -12.382812 C 6.078125 -12.351562 6.078125 -12.351562 6.078125 -12.316406 L 6.175781 -12.222656 C 6.207031 -12.191406 6.238281 -12.15625 6.269531 -12.125 C 6.304688 -12.09375 6.304688 -12.03125 6.335938 -11.964844 C 6.367188 -11.933594 6.398438 -11.871094 6.429688 -11.773438 L 6.496094 -11.644531 C 6.558594 -11.519531 6.621094 -11.390625 6.65625 -11.230469 C 6.71875 -11.101562 6.75 -10.941406 6.78125 -10.71875 C 6.847656 -10.589844 6.878906 -10.398438 6.910156 -10.175781 C 6.976562 -10.046875 7.007812 -9.855469 7.007812 -9.597656 C 7.070312 -9.4375 7.101562 -9.246094 7.101562 -8.992188 C 7.136719 -8.796875 7.167969 -8.574219 7.167969 -8.320312 C 7.199219 -8.160156 7.230469 -7.933594 7.230469 -7.648438 C 7.261719 -7.613281 7.261719 -7.488281 7.261719 -7.292969 C 7.292969 -7.136719 7.292969 -7.039062 7.292969 -6.976562 C 7.328125 -6.71875 7.359375 -6.464844 7.390625 -6.175781 C 7.453125 -5.949219 7.550781 -5.664062 7.648438 -5.34375 C 7.742188 -5.085938 7.871094 -4.832031 8.0625 -4.574219 C 8.222656 -4.414062 8.414062 -4.222656 8.671875 -4.03125 C 8.863281 -3.902344 9.117188 -3.777344 9.40625 -3.679688 C 9.628906 -3.617188 9.855469 -3.582031 10.109375 -3.550781 C 10.269531 -3.550781 10.460938 -3.582031 10.6875 -3.617188 L 10.78125 -3.617188 C 11.007812 -3.648438 11.199219 -3.710938 11.390625 -3.777344 C 11.484375 -3.808594 11.613281 -3.871094 11.710938 -3.933594 C 11.773438 -3.96875 11.839844 -4 11.902344 -4.03125 C 12.0625 -4.128906 12.222656 -4.222656 12.414062 -4.351562 C 12.542969 -4.480469 12.671875 -4.605469 12.828125 -4.734375 L 13.214844 -5.121094 C 13.34375 -5.246094 13.46875 -5.375 13.566406 -5.503906 C 13.660156 -5.632812 13.757812 -5.757812 13.886719 -5.917969 C 13.980469 -6.015625 14.046875 -6.109375 14.109375 -6.207031 C 14.140625 -6.238281 14.207031 -6.304688 14.238281 -6.367188 L 14.527344 -6.78125 C 14.621094 -6.941406 14.71875 -7.070312 14.78125 -7.167969 L 14.84375 -7.261719 C 14.972656 -7.421875 15.070312 -7.582031 15.164062 -7.773438 C 15.199219 -7.808594 15.230469 -7.839844 15.261719 -7.871094 C 15.292969 -7.902344 15.292969 -7.964844 15.324219 -8.03125 C 15.359375 -8.09375 15.390625 -8.160156 15.421875 -8.191406 L 15.453125 -8.253906 C 15.644531 -8.542969 15.742188 -8.703125 15.742188 -8.734375 C 15.773438 -8.832031 15.835938 -8.925781 15.933594 -9.054688 C 15.964844 -9.085938 15.996094 -9.152344 16.03125 -9.183594 C 16.125 -9.308594 16.222656 -9.46875 16.316406 -9.628906 C 16.414062 -9.726562 16.507812 -9.855469 16.636719 -10.046875 C 16.667969 -10.078125 16.703125 -10.109375 16.734375 -10.140625 C 16.796875 -10.238281 16.863281 -10.300781 16.894531 -10.398438 C 17.117188 -10.6875 17.246094 -10.941406 17.246094 -11.230469 L 17.246094 -11.421875 C 17.246094 -11.644531 17.179688 -11.839844 17.054688 -11.964844 C 16.894531 -12.191406 16.703125 -12.351562 16.445312 -12.445312 C 16.316406 -12.542969 16.15625 -12.574219 15.996094 -12.574219 C 15.902344 -12.574219 15.773438 -12.574219 15.675781 -12.542969 C 15.421875 -12.476562 15.164062 -12.316406 14.910156 -12.03125 L 14.84375 -11.933594 C 14.75 -11.773438 14.652344 -11.644531 14.558594 -11.550781 C 14.460938 -11.453125 14.398438 -11.359375 14.332031 -11.261719 C 14.300781 -11.167969 14.238281 -11.101562 14.207031 -11.070312 C 14.109375 -10.878906 14.015625 -10.71875 13.886719 -10.589844 C 13.820312 -10.496094 13.757812 -10.429688 13.726562 -10.335938 C 13.660156 -10.238281 13.597656 -10.140625 13.566406 -10.078125 C 13.5 -9.984375 13.40625 -9.824219 13.277344 -9.566406 L 13.148438 -9.375 C 13.085938 -9.246094 13.023438 -9.152344 12.957031 -9.085938 C 12.894531 -8.925781 12.796875 -8.796875 12.703125 -8.671875 C 12.671875 -8.605469 12.574219 -8.480469 12.414062 -8.253906 C 12.414062 -8.222656 12.414062 -8.222656 12.414062 -8.191406 C 12.382812 -8.160156 12.351562 -8.125 12.316406 -8.0625 L 12.285156 -8.03125 C 12.222656 -7.933594 12.15625 -7.871094 12.125 -7.839844 C 12.09375 -7.742188 12.03125 -7.679688 11.964844 -7.613281 C 11.933594 -7.582031 11.933594 -7.550781 11.902344 -7.519531 C 11.773438 -7.390625 11.679688 -7.261719 11.613281 -7.167969 C 11.550781 -7.070312 11.453125 -6.976562 11.359375 -6.878906 C 11.292969 -6.78125 11.230469 -6.71875 11.199219 -6.6875 L 11.101562 -6.589844 C 11.007812 -6.527344 10.910156 -6.464844 10.847656 -6.398438 C 10.8125 -6.367188 10.8125 -6.367188 10.78125 -6.335938 C 10.75 -6.304688 10.71875 -6.304688 10.6875 -6.269531 L 10.496094 -6.175781 L 10.398438 -6.175781 C 10.367188 -6.144531 10.335938 -6.144531 10.300781 -6.144531 Z M 10.300781 -6.144531 "/></g></g></g><g fill="#000000" fill-opacity="1"><g transform="translate(116.76206, 91.749957)"><g><path d="M 3.839844 -11.773438 C 3.871094 -11.773438 3.902344 -11.773438 3.902344 -11.773438 C 3.902344 -11.742188 3.902344 -11.742188 3.902344 -11.710938 L 4.09375 -11.644531 C 4.191406 -11.582031 4.320312 -11.519531 4.449219 -11.484375 C 4.511719 -11.453125 4.605469 -11.453125 4.703125 -11.421875 C 4.800781 -11.390625 4.894531 -11.359375 4.992188 -11.328125 L 5.472656 -11.261719 C 5.632812 -11.230469 5.824219 -11.199219 6.015625 -11.167969 C 6.109375 -11.167969 6.207031 -11.167969 6.304688 -11.132812 C 6.335938 -11.101562 6.335938 -11.101562 6.367188 -11.101562 C 6.398438 -11.070312 6.429688 -11.070312 6.464844 -11.039062 C 6.496094 -11.007812 6.496094 -10.941406 6.496094 -10.910156 C 6.589844 -10.78125 6.65625 -10.621094 6.71875 -10.429688 C 6.78125 -10.300781 6.847656 -10.175781 6.910156 -10.015625 C 6.976562 -9.855469 7.007812 -9.695312 7.007812 -9.566406 C 7.039062 -9.46875 7.070312 -9.40625 7.070312 -9.34375 C 7.070312 -9.277344 7.070312 -9.214844 7.039062 -9.183594 C 7.039062 -9.023438 7.039062 -8.894531 7.007812 -8.734375 C 7.007812 -8.605469 6.976562 -8.480469 6.910156 -8.320312 C 6.910156 -8.191406 6.878906 -8.0625 6.78125 -7.933594 L 6.71875 -7.808594 C 6.6875 -7.742188 6.65625 -7.679688 6.621094 -7.613281 C 6.558594 -7.488281 6.496094 -7.390625 6.429688 -7.328125 C 6.398438 -7.292969 6.367188 -7.292969 6.335938 -7.261719 C 6.304688 -7.230469 6.269531 -7.199219 6.238281 -7.167969 C 6.207031 -7.136719 6.175781 -7.136719 6.144531 -7.101562 C 6.109375 -7.070312 6.078125 -7.039062 6.046875 -7.007812 C 5.949219 -6.976562 5.855469 -6.941406 5.726562 -6.910156 C 5.695312 -6.910156 5.664062 -6.910156 5.632812 -6.878906 C 5.535156 -6.847656 5.472656 -6.847656 5.4375 -6.847656 L 5.023438 -6.847656 C 4.960938 -6.878906 4.894531 -6.878906 4.863281 -6.878906 C 4.765625 -6.910156 4.640625 -6.941406 4.511719 -6.976562 C 4.382812 -7.039062 4.253906 -7.101562 4.160156 -7.136719 C 4.03125 -7.230469 3.933594 -7.292969 3.839844 -7.359375 C 3.808594 -7.390625 3.742188 -7.453125 3.710938 -7.488281 C 3.679688 -7.519531 3.617188 -7.550781 3.582031 -7.582031 C 3.488281 -7.742188 3.390625 -7.839844 3.328125 -7.902344 C 3.296875 -7.964844 3.296875 -8.03125 3.261719 -8.0625 C 3.230469 -8.125 3.199219 -8.191406 3.167969 -8.253906 C 3.136719 -8.320312 3.136719 -8.382812 3.101562 -8.414062 C 3.070312 -8.480469 3.039062 -8.542969 3.007812 -8.605469 C 2.976562 -8.832031 2.945312 -8.957031 2.910156 -9.023438 C 2.910156 -9.117188 2.910156 -9.214844 2.878906 -9.308594 L 2.878906 -9.855469 C 2.878906 -9.886719 2.878906 -9.949219 2.910156 -9.984375 C 2.945312 -10.109375 2.945312 -10.207031 2.945312 -10.300781 C 3.007812 -10.527344 3.039062 -10.65625 3.039062 -10.71875 L 3.136719 -11.007812 C 3.199219 -11.132812 3.230469 -11.199219 3.261719 -11.230469 C 3.328125 -11.328125 3.390625 -11.390625 3.457031 -11.453125 C 3.488281 -11.484375 3.550781 -11.550781 3.582031 -11.582031 C 3.617188 -11.613281 3.679688 -11.644531 3.710938 -11.679688 L 3.808594 -11.773438 Z M 5.085938 -14.878906 C 4.960938 -14.878906 4.800781 -14.84375 4.574219 -14.8125 C 4.382812 -14.8125 4.160156 -14.75 3.933594 -14.589844 C 3.871094 -14.558594 3.777344 -14.492188 3.679688 -14.429688 C 3.648438 -14.429688 3.648438 -14.429688 3.617188 -14.429688 C 3.582031 -14.398438 3.550781 -14.398438 3.519531 -14.367188 C 3.328125 -14.332031 3.101562 -14.269531 2.847656 -14.140625 C 2.6875 -14.078125 2.496094 -13.949219 2.238281 -13.757812 C 2.078125 -13.660156 1.886719 -13.5 1.695312 -13.308594 C 1.601562 -13.214844 1.472656 -13.054688 1.3125 -12.894531 C 1.28125 -12.863281 1.246094 -12.796875 1.214844 -12.765625 C 1.085938 -12.605469 0.960938 -12.382812 0.832031 -12.125 C 0.769531 -11.933594 0.671875 -11.710938 0.574219 -11.421875 L 0.542969 -11.292969 C 0.511719 -11.167969 0.449219 -11.007812 0.414062 -10.78125 C 0.414062 -10.589844 0.382812 -10.367188 0.351562 -10.078125 L 0.351562 -9.789062 C 0.320312 -9.628906 0.320312 -9.503906 0.320312 -9.375 C 0.320312 -9.214844 0.351562 -8.992188 0.382812 -8.734375 L 0.382812 -8.636719 C 0.414062 -8.511719 0.449219 -8.351562 0.480469 -8.191406 L 0.542969 -7.933594 C 0.609375 -7.742188 0.703125 -7.519531 0.832031 -7.230469 C 0.863281 -7.136719 0.929688 -7.039062 0.960938 -6.941406 L 1.152344 -6.558594 C 1.183594 -6.527344 1.214844 -6.464844 1.246094 -6.429688 C 1.34375 -6.304688 1.472656 -6.144531 1.632812 -5.949219 L 2.207031 -5.375 C 2.398438 -5.277344 2.625 -5.121094 2.847656 -4.925781 C 2.945312 -4.863281 3.070312 -4.800781 3.230469 -4.734375 C 3.328125 -4.703125 3.457031 -4.640625 3.582031 -4.605469 C 3.648438 -4.574219 3.710938 -4.542969 3.808594 -4.511719 C 3.933594 -4.480469 4.0625 -4.414062 4.222656 -4.382812 C 4.449219 -4.351562 4.703125 -4.320312 4.960938 -4.289062 L 5.664062 -4.289062 C 5.886719 -4.320312 6.144531 -4.382812 6.398438 -4.449219 C 6.621094 -4.511719 6.847656 -4.605469 7.101562 -4.703125 C 7.328125 -4.800781 7.550781 -4.925781 7.773438 -5.121094 C 7.964844 -5.277344 8.160156 -5.4375 8.351562 -5.632812 C 8.414062 -5.726562 8.511719 -5.855469 8.605469 -5.949219 C 8.671875 -6.046875 8.734375 -6.144531 8.796875 -6.238281 C 8.925781 -6.429688 9.023438 -6.65625 9.117188 -6.878906 C 9.246094 -7.101562 9.34375 -7.359375 9.375 -7.613281 C 9.4375 -7.839844 9.503906 -8.0625 9.535156 -8.320312 C 9.566406 -8.574219 9.597656 -8.832031 9.597656 -9.117188 L 9.597656 -9.308594 C 9.597656 -9.535156 9.566406 -9.757812 9.535156 -9.984375 C 9.535156 -10.207031 9.46875 -10.496094 9.34375 -10.78125 C 9.308594 -10.910156 9.277344 -11.039062 9.214844 -11.167969 L 9.308594 -11.167969 C 9.46875 -11.199219 9.664062 -11.199219 9.917969 -11.199219 C 10.078125 -11.230469 10.300781 -11.261719 10.558594 -11.261719 L 10.910156 -11.261719 C 11.070312 -11.292969 11.199219 -11.292969 11.261719 -11.292969 C 11.421875 -11.328125 11.644531 -11.328125 11.902344 -11.328125 L 12.09375 -11.328125 C 12.191406 -11.359375 12.382812 -11.359375 12.605469 -11.390625 L 12.894531 -11.390625 C 13.023438 -11.421875 13.148438 -11.421875 13.277344 -11.421875 L 13.566406 -11.421875 C 13.695312 -11.453125 13.820312 -11.453125 13.949219 -11.453125 L 15.261719 -11.453125 C 15.390625 -11.453125 15.582031 -11.453125 15.871094 -11.421875 C 15.902344 -11.421875 15.996094 -11.421875 16.09375 -11.390625 C 16.191406 -11.390625 16.347656 -11.390625 16.507812 -11.359375 C 16.636719 -11.359375 16.796875 -11.328125 16.988281 -11.292969 L 17.085938 -11.292969 C 17.179688 -11.292969 17.277344 -11.292969 17.308594 -11.261719 L 17.660156 -11.261719 C 18.078125 -11.261719 18.429688 -11.421875 18.652344 -11.710938 C 18.84375 -11.964844 18.941406 -12.222656 18.941406 -12.511719 C 18.941406 -12.671875 18.910156 -12.828125 18.84375 -12.988281 C 18.683594 -13.46875 18.300781 -13.726562 17.726562 -13.789062 C 17.628906 -13.820312 17.535156 -13.820312 17.40625 -13.820312 C 17.117188 -13.886719 16.894531 -13.917969 16.703125 -13.917969 C 16.347656 -13.949219 16.125 -13.949219 16.0625 -13.949219 C 15.773438 -13.980469 15.515625 -14.015625 15.359375 -14.015625 L 13.855469 -14.015625 C 13.726562 -14.015625 13.597656 -14.015625 13.4375 -13.980469 L 13.148438 -13.980469 C 12.894531 -13.980469 12.671875 -13.949219 12.445312 -13.917969 C 12.125 -13.917969 11.933594 -13.917969 11.839844 -13.886719 L 11.773438 -13.886719 C 11.519531 -13.886719 11.292969 -13.886719 11.070312 -13.855469 L 11.007812 -13.855469 L 10.910156 -13.886719 L 10.75 -13.855469 C 10.65625 -13.855469 10.589844 -13.855469 10.527344 -13.820312 L 10.429688 -13.820312 C 10.175781 -13.820312 9.949219 -13.789062 9.726562 -13.757812 C 9.46875 -13.757812 9.246094 -13.726562 9.054688 -13.695312 L 8.445312 -13.660156 L 7.902344 -13.628906 L 7.808594 -13.628906 C 7.773438 -13.597656 7.710938 -13.597656 7.679688 -13.597656 C 7.613281 -13.695312 7.550781 -13.757812 7.453125 -13.820312 C 7.292969 -13.980469 7.101562 -14.140625 6.847656 -14.300781 C 6.65625 -14.429688 6.429688 -14.558594 6.144531 -14.652344 C 5.917969 -14.75 5.664062 -14.8125 5.375 -14.84375 C 5.277344 -14.878906 5.183594 -14.878906 5.085938 -14.878906 Z M 5.085938 -14.878906 "/></g></g></g><g fill="#000000" fill-opacity="1"><g transform="translate(133.110035, 91.749957)"><g><path d="M 10.8125 -15.742188 C 10.621094 -15.742188 10.429688 -15.710938 10.175781 -15.613281 C 9.984375 -15.550781 9.757812 -15.421875 9.535156 -15.230469 C 9.34375 -15.003906 9.183594 -14.6875 9.085938 -14.300781 L 9.085938 -14.140625 C 9.085938 -13.917969 9.152344 -13.628906 9.277344 -13.34375 C 9.40625 -13.183594 9.566406 -12.988281 9.757812 -12.796875 C 9.886719 -12.734375 10.046875 -12.636719 10.238281 -12.511719 C 10.367188 -12.445312 10.527344 -12.382812 10.71875 -12.316406 C 10.847656 -12.285156 11.039062 -12.222656 11.230469 -12.15625 C 11.328125 -12.15625 11.421875 -12.125 11.550781 -12.09375 C 11.582031 -12 11.613281 -11.902344 11.644531 -11.773438 C 11.710938 -11.613281 11.710938 -11.453125 11.710938 -11.328125 C 11.742188 -11.230469 11.742188 -11.132812 11.742188 -11.007812 L 11.742188 -10.847656 C 11.742188 -10.6875 11.710938 -10.460938 11.679688 -10.207031 C 11.644531 -9.984375 11.613281 -9.789062 11.582031 -9.597656 C 11.582031 -9.40625 11.550781 -9.214844 11.484375 -9.023438 C 11.484375 -8.832031 11.453125 -8.671875 11.390625 -8.511719 C 11.359375 -8.351562 11.328125 -8.222656 11.261719 -8.09375 C 11.230469 -7.964844 11.199219 -7.839844 11.132812 -7.710938 C 11.101562 -7.648438 11.070312 -7.550781 11.007812 -7.453125 C 10.941406 -7.390625 10.910156 -7.328125 10.847656 -7.261719 C 10.8125 -7.199219 10.75 -7.136719 10.6875 -7.070312 C 10.621094 -7.039062 10.558594 -6.976562 10.429688 -6.910156 C 10.367188 -6.847656 10.269531 -6.816406 10.175781 -6.75 C 10.078125 -6.6875 9.984375 -6.65625 9.917969 -6.621094 C 9.855469 -6.621094 9.757812 -6.589844 9.628906 -6.558594 C 9.566406 -6.558594 9.535156 -6.527344 9.503906 -6.527344 C 9.4375 -6.558594 9.40625 -6.558594 9.375 -6.558594 C 9.308594 -6.589844 9.246094 -6.621094 9.183594 -6.621094 C 9.085938 -6.6875 9.023438 -6.75 8.925781 -6.816406 C 8.863281 -6.878906 8.765625 -6.941406 8.703125 -7.007812 C 8.636719 -7.070312 8.605469 -7.167969 8.542969 -7.230469 C 8.480469 -7.359375 8.445312 -7.453125 8.382812 -7.582031 C 8.320312 -7.742188 8.285156 -7.871094 8.253906 -7.964844 C 8.191406 -8.160156 8.160156 -8.320312 8.125 -8.445312 C 8.09375 -8.636719 8.0625 -8.796875 8.03125 -8.925781 C 8.03125 -9.085938 8 -9.246094 7.964844 -9.375 L 7.964844 -9.628906 C 7.964844 -9.757812 7.933594 -9.855469 7.933594 -9.917969 C 7.933594 -10.140625 7.902344 -10.335938 7.871094 -10.460938 C 7.871094 -10.589844 7.839844 -10.75 7.808594 -10.910156 C 7.808594 -11.039062 7.808594 -11.132812 7.773438 -11.261719 L 7.773438 -11.644531 C 7.773438 -11.773438 7.742188 -11.871094 7.742188 -11.902344 L 7.742188 -12.222656 C 7.742188 -12.671875 7.648438 -12.957031 7.359375 -13.214844 C 7.136719 -13.4375 6.878906 -13.566406 6.589844 -13.566406 L 6.496094 -13.566406 C 6.175781 -13.566406 5.886719 -13.4375 5.597656 -13.246094 C 5.472656 -13.148438 5.3125 -13.023438 5.183594 -12.828125 C 5.085938 -12.671875 5.023438 -12.542969 4.960938 -12.414062 C 4.960938 -12.285156 4.925781 -12.191406 4.894531 -12.09375 L 4.894531 -11.773438 C 4.894531 -11.550781 4.863281 -11.359375 4.863281 -11.199219 C 4.894531 -10.878906 4.894531 -10.6875 4.894531 -10.621094 L 4.894531 -10.078125 C 4.894531 -9.949219 4.863281 -9.789062 4.863281 -9.566406 C 4.863281 -9.34375 4.832031 -9.152344 4.800781 -8.992188 C 4.800781 -8.796875 4.765625 -8.605469 4.734375 -8.445312 C 4.734375 -8.285156 4.703125 -8.160156 4.671875 -8.0625 C 4.671875 -7.964844 4.640625 -7.871094 4.574219 -7.773438 C 4.574219 -7.710938 4.511719 -7.648438 4.449219 -7.550781 C 4.449219 -7.519531 4.414062 -7.488281 4.382812 -7.421875 C 4.320312 -7.390625 4.253906 -7.328125 4.191406 -7.261719 C 4.191406 -7.261719 4.160156 -7.261719 4.128906 -7.230469 C 4.128906 -7.230469 4.09375 -7.199219 4.0625 -7.199219 L 4.0625 -7.167969 L 4.03125 -7.167969 C 4 -7.199219 3.933594 -7.230469 3.839844 -7.230469 C 3.742188 -7.292969 3.648438 -7.359375 3.582031 -7.390625 C 3.519531 -7.453125 3.421875 -7.519531 3.359375 -7.582031 C 3.296875 -7.679688 3.261719 -7.742188 3.199219 -7.808594 C 3.167969 -7.933594 3.136719 -8.03125 3.070312 -8.09375 C 3.039062 -8.285156 3.007812 -8.414062 2.976562 -8.511719 C 2.945312 -8.703125 2.910156 -8.863281 2.910156 -8.992188 C 2.910156 -9.183594 2.878906 -9.34375 2.878906 -9.4375 C 2.878906 -9.46875 2.910156 -9.695312 2.910156 -10.078125 L 2.910156 -10.6875 C 2.945312 -10.941406 2.945312 -11.132812 2.945312 -11.292969 C 2.945312 -11.519531 2.976562 -11.710938 2.976562 -11.839844 C 2.976562 -12.0625 3.007812 -12.222656 3.007812 -12.351562 C 3.007812 -12.542969 3.039062 -12.703125 3.039062 -12.828125 L 3.039062 -13.277344 C 3.070312 -13.4375 3.070312 -13.566406 3.070312 -13.628906 L 3.070312 -14.078125 C 3.070312 -14.652344 2.878906 -15.070312 2.429688 -15.292969 C 2.238281 -15.421875 2.015625 -15.484375 1.792969 -15.484375 C 1.601562 -15.484375 1.375 -15.421875 1.152344 -15.292969 C 0.734375 -15.070312 0.511719 -14.652344 0.511719 -14.078125 L 0.511719 -13.726562 C 0.511719 -13.660156 0.511719 -13.535156 0.480469 -13.375 L 0.480469 -13.023438 C 0.480469 -12.894531 0.449219 -12.703125 0.449219 -12.511719 C 0.449219 -12.382812 0.414062 -12.222656 0.414062 -11.964844 C 0.414062 -11.839844 0.382812 -11.644531 0.382812 -11.390625 C 0.382812 -11.230469 0.382812 -11.039062 0.351562 -10.78125 L 0.351562 -10.140625 C 0.351562 -9.824219 0.320312 -9.628906 0.320312 -9.503906 C 0.320312 -9.308594 0.351562 -9.085938 0.351562 -8.765625 C 0.382812 -8.574219 0.414062 -8.320312 0.449219 -8.03125 C 0.511719 -7.839844 0.574219 -7.613281 0.640625 -7.328125 C 0.703125 -7.136719 0.832031 -6.878906 0.960938 -6.621094 C 1.085938 -6.429688 1.214844 -6.207031 1.40625 -5.949219 C 1.566406 -5.757812 1.757812 -5.597656 1.984375 -5.40625 C 2.175781 -5.277344 2.398438 -5.121094 2.65625 -4.992188 C 2.878906 -4.863281 3.136719 -4.765625 3.390625 -4.703125 C 3.648438 -4.640625 3.933594 -4.640625 4.253906 -4.640625 C 4.511719 -4.640625 4.800781 -4.703125 5.085938 -4.832031 C 5.277344 -4.925781 5.472656 -5.054688 5.695312 -5.183594 C 5.824219 -5.3125 5.984375 -5.4375 6.144531 -5.597656 C 6.238281 -5.664062 6.335938 -5.757812 6.398438 -5.855469 C 6.496094 -5.726562 6.621094 -5.535156 6.75 -5.34375 C 6.878906 -5.214844 7.070312 -5.023438 7.292969 -4.832031 C 7.453125 -4.703125 7.648438 -4.574219 7.871094 -4.449219 C 8.0625 -4.351562 8.285156 -4.253906 8.542969 -4.128906 C 8.765625 -4.0625 9.023438 -4.03125 9.277344 -4 C 9.535156 -4 9.789062 -4 10.078125 -4.03125 C 10.269531 -4.09375 10.496094 -4.128906 10.71875 -4.191406 C 10.910156 -4.253906 11.101562 -4.351562 11.292969 -4.449219 C 11.453125 -4.542969 11.644531 -4.640625 11.839844 -4.765625 C 12.03125 -4.894531 12.191406 -4.992188 12.316406 -5.121094 C 12.476562 -5.246094 12.636719 -5.40625 12.765625 -5.535156 C 12.894531 -5.664062 13.023438 -5.855469 13.148438 -6.046875 C 13.277344 -6.238281 13.375 -6.429688 13.46875 -6.65625 C 13.535156 -6.816406 13.628906 -7.007812 13.695312 -7.261719 C 13.757812 -7.453125 13.820312 -7.679688 13.886719 -7.933594 C 13.949219 -8.125 13.980469 -8.320312 14.015625 -8.574219 C 14.078125 -8.765625 14.109375 -8.992188 14.109375 -9.246094 C 14.171875 -9.4375 14.207031 -9.664062 14.207031 -9.917969 C 14.238281 -10.175781 14.269531 -10.429688 14.269531 -10.621094 C 14.300781 -10.78125 14.300781 -10.910156 14.300781 -11.070312 C 14.300781 -11.199219 14.300781 -11.359375 14.269531 -11.519531 C 14.269531 -11.613281 14.269531 -11.710938 14.238281 -11.804688 L 14.398438 -11.804688 C 14.589844 -11.804688 14.84375 -11.773438 15.101562 -11.742188 L 15.871094 -11.742188 C 15.964844 -11.742188 16.191406 -11.773438 16.574219 -11.773438 L 17.980469 -11.773438 C 18.011719 -11.804688 18.269531 -11.839844 18.71875 -11.839844 L 18.941406 -11.839844 C 19.515625 -11.902344 19.902344 -12.09375 20.09375 -12.542969 C 20.1875 -12.734375 20.253906 -12.957031 20.253906 -13.148438 C 20.253906 -13.375 20.15625 -13.597656 20.027344 -13.820312 C 19.804688 -14.207031 19.421875 -14.398438 18.910156 -14.398438 L 18.269531 -14.398438 C 18.109375 -14.398438 17.980469 -14.367188 17.886719 -14.332031 L 16.507812 -14.332031 C 16.125 -14.332031 15.933594 -14.300781 15.871094 -14.300781 L 15.230469 -14.300781 C 14.972656 -14.332031 14.75 -14.367188 14.558594 -14.367188 C 14.300781 -14.367188 14.078125 -14.398438 13.886719 -14.398438 C 13.660156 -14.429688 13.46875 -14.429688 13.277344 -14.429688 L 13.214844 -14.429688 C 13.214844 -14.460938 13.183594 -14.460938 13.183594 -14.460938 C 13.117188 -14.527344 13.085938 -14.589844 13.023438 -14.652344 C 12.863281 -14.84375 12.636719 -15.039062 12.382812 -15.230469 C 12.191406 -15.359375 11.964844 -15.484375 11.679688 -15.582031 C 11.484375 -15.675781 11.230469 -15.742188 10.910156 -15.742188 Z M 10.75 -13.214844 C 10.78125 -13.214844 10.8125 -13.214844 10.8125 -13.183594 C 10.8125 -13.183594 10.78125 -13.214844 10.75 -13.214844 Z M 10.75 -13.214844 "/></g></g></g><g fill="#000000" fill-opacity="1"><g transform="translate(150.737701, 91.749957)"><g><path d="M 5.824219 -6.589844 L 5.792969 -6.589844 L 5.757812 -6.558594 C 5.695312 -6.527344 5.664062 -6.496094 5.632812 -6.464844 L 5.535156 -6.464844 C 5.503906 -6.429688 5.472656 -6.429688 5.4375 -6.429688 L 5.34375 -6.429688 C 5.3125 -6.464844 5.3125 -6.464844 5.277344 -6.464844 C 5.246094 -6.464844 5.214844 -6.464844 5.183594 -6.464844 C 5.121094 -6.527344 5.054688 -6.558594 4.992188 -6.558594 C 4.960938 -6.589844 4.925781 -6.621094 4.863281 -6.65625 L 4.863281 -6.6875 L 4.832031 -6.6875 L 4.832031 -6.75 C 4.832031 -6.78125 4.832031 -6.78125 4.863281 -6.78125 C 4.863281 -6.78125 4.863281 -6.78125 4.863281 -6.816406 L 4.863281 -6.847656 L 4.894531 -6.878906 C 4.894531 -6.910156 4.894531 -6.910156 4.925781 -6.941406 C 4.925781 -6.941406 4.925781 -6.941406 4.960938 -6.976562 L 5.085938 -7.101562 C 5.121094 -7.136719 5.121094 -7.136719 5.152344 -7.167969 C 5.183594 -7.167969 5.183594 -7.167969 5.214844 -7.167969 C 5.3125 -7.230469 5.4375 -7.261719 5.566406 -7.292969 C 5.695312 -7.359375 5.824219 -7.390625 5.984375 -7.421875 C 6.015625 -7.453125 6.015625 -7.453125 6.046875 -7.453125 C 6.046875 -7.453125 6.046875 -7.453125 6.078125 -7.453125 L 6.078125 -7.292969 C 6.109375 -7.230469 6.109375 -7.199219 6.109375 -7.167969 C 6.109375 -7.136719 6.109375 -7.070312 6.109375 -7.039062 L 6.109375 -7.007812 C 6.078125 -6.976562 6.078125 -6.941406 6.078125 -6.910156 L 5.984375 -6.816406 C 5.984375 -6.78125 5.984375 -6.78125 5.949219 -6.75 C 5.949219 -6.71875 5.949219 -6.71875 5.917969 -6.6875 C 5.886719 -6.65625 5.855469 -6.621094 5.824219 -6.589844 Z M 4.449219 -18.398438 C 4.382812 -18.398438 4.289062 -18.398438 4.160156 -18.363281 C 3.96875 -18.363281 3.710938 -18.332031 3.390625 -18.238281 C 3.359375 -18.207031 3.296875 -18.207031 3.230469 -18.171875 C 3.070312 -18.140625 2.878906 -18.078125 2.65625 -17.980469 C 2.464844 -17.886719 2.238281 -17.757812 1.953125 -17.566406 C 1.757812 -17.46875 1.566406 -17.277344 1.34375 -17.019531 C 1.214844 -16.863281 1.054688 -16.636719 0.894531 -16.382812 C 0.800781 -16.222656 0.734375 -16.0625 0.640625 -15.902344 L 0.542969 -15.710938 C 0.511719 -15.613281 0.480469 -15.453125 0.449219 -15.292969 L 0.382812 -15.039062 C 0.351562 -14.84375 0.320312 -14.589844 0.320312 -14.269531 L 0.320312 -14.171875 C 0.351562 -13.980469 0.414062 -13.757812 0.449219 -13.5 C 0.511719 -13.34375 0.609375 -13.117188 0.734375 -12.863281 L 0.863281 -12.671875 C 0.929688 -12.574219 0.992188 -12.445312 1.085938 -12.285156 C 1.152344 -12.191406 1.214844 -12.125 1.3125 -12.03125 C 1.375 -11.933594 1.441406 -11.871094 1.535156 -11.773438 L 1.664062 -11.644531 C 1.757812 -11.550781 1.855469 -11.453125 1.953125 -11.359375 C 1.984375 -11.359375 2.046875 -11.292969 2.175781 -11.199219 C 2.207031 -11.132812 2.273438 -11.070312 2.367188 -11.007812 C 2.464844 -10.972656 2.558594 -10.878906 2.71875 -10.78125 C 2.75 -10.75 2.816406 -10.6875 2.878906 -10.65625 C 2.910156 -10.621094 2.945312 -10.621094 2.976562 -10.589844 C 3.070312 -10.496094 3.199219 -10.398438 3.359375 -10.300781 C 3.457031 -10.238281 3.550781 -10.175781 3.648438 -10.109375 L 3.902344 -9.917969 C 4.03125 -9.855469 4.191406 -9.757812 4.351562 -9.597656 C 4.253906 -9.566406 4.160156 -9.535156 4.09375 -9.46875 C 3.839844 -9.34375 3.617188 -9.214844 3.421875 -9.054688 C 3.390625 -9.023438 3.328125 -8.957031 3.261719 -8.925781 C 3.136719 -8.765625 3.007812 -8.636719 2.910156 -8.511719 C 2.75 -8.320312 2.625 -8.125 2.527344 -7.902344 C 2.464844 -7.679688 2.398438 -7.453125 2.335938 -7.261719 C 2.304688 -7.007812 2.273438 -6.75 2.273438 -6.527344 C 2.335938 -6.304688 2.367188 -6.078125 2.398438 -5.886719 L 2.71875 -5.246094 C 2.75 -5.214844 2.785156 -5.183594 2.816406 -5.152344 C 2.976562 -4.960938 3.101562 -4.800781 3.230469 -4.671875 C 3.457031 -4.511719 3.648438 -4.382812 3.839844 -4.253906 L 4.480469 -4 C 4.703125 -3.96875 4.894531 -3.933594 5.054688 -3.902344 C 5.121094 -3.871094 5.183594 -3.871094 5.214844 -3.871094 C 5.34375 -3.871094 5.472656 -3.871094 5.597656 -3.902344 L 5.886719 -3.902344 L 6.144531 -3.96875 C 6.304688 -4 6.429688 -4.03125 6.527344 -4.0625 C 6.78125 -4.191406 6.976562 -4.289062 7.136719 -4.382812 C 7.390625 -4.542969 7.582031 -4.703125 7.710938 -4.832031 C 7.933594 -5.054688 8.0625 -5.246094 8.125 -5.40625 C 8.160156 -5.4375 8.160156 -5.472656 8.191406 -5.503906 C 8.320312 -5.695312 8.414062 -5.886719 8.480469 -6.046875 C 8.574219 -6.367188 8.636719 -6.621094 8.636719 -6.847656 C 8.671875 -7.007812 8.671875 -7.136719 8.671875 -7.261719 C 8.671875 -7.390625 8.671875 -7.488281 8.636719 -7.582031 C 8.636719 -7.679688 8.636719 -7.742188 8.605469 -7.773438 L 8.605469 -7.871094 C 8.765625 -7.902344 8.925781 -7.933594 9.117188 -7.964844 C 9.308594 -8.03125 9.566406 -8.09375 9.917969 -8.160156 C 10.015625 -8.191406 10.109375 -8.222656 10.207031 -8.253906 C 10.367188 -8.285156 10.496094 -8.351562 10.65625 -8.414062 C 10.75 -8.445312 10.847656 -8.480469 10.941406 -8.511719 C 11.070312 -8.542969 11.199219 -8.605469 11.359375 -8.671875 C 11.582031 -8.796875 11.804688 -8.894531 12.0625 -8.992188 C 12.15625 -9.054688 12.285156 -9.152344 12.445312 -9.246094 C 12.511719 -9.277344 12.574219 -9.34375 12.671875 -9.375 C 12.796875 -9.46875 12.988281 -9.597656 13.214844 -9.726562 C 13.40625 -9.855469 13.597656 -10.015625 13.789062 -10.207031 C 13.917969 -10.300781 14.078125 -10.429688 14.238281 -10.621094 L 14.429688 -10.8125 C 14.492188 -10.910156 14.589844 -11.007812 14.6875 -11.101562 C 14.78125 -11.199219 14.910156 -11.328125 15.039062 -11.484375 C 15.070312 -11.519531 15.070312 -11.550781 15.101562 -11.582031 C 15.132812 -11.613281 15.132812 -11.644531 15.164062 -11.679688 C 15.199219 -11.710938 15.199219 -11.710938 15.230469 -11.742188 C 15.453125 -12.03125 15.550781 -12.285156 15.550781 -12.574219 C 15.550781 -12.894531 15.484375 -13.148438 15.324219 -13.308594 C 15.164062 -13.5 14.972656 -13.660156 14.71875 -13.757812 C 14.589844 -13.855469 14.429688 -13.886719 14.269531 -13.886719 C 14.171875 -13.886719 14.046875 -13.886719 13.949219 -13.855469 C 13.695312 -13.789062 13.4375 -13.597656 13.214844 -13.308594 L 13.085938 -13.183594 C 13.054688 -13.148438 13.054688 -13.117188 13.023438 -13.085938 C 12.925781 -12.988281 12.828125 -12.894531 12.765625 -12.796875 C 12.671875 -12.703125 12.605469 -12.636719 12.574219 -12.574219 L 12.476562 -12.476562 C 12.316406 -12.316406 12.191406 -12.191406 12.09375 -12.125 C 12 -12 11.871094 -11.902344 11.742188 -11.839844 C 11.710938 -11.804688 11.644531 -11.773438 11.613281 -11.742188 C 11.484375 -11.644531 11.390625 -11.582031 11.292969 -11.550781 C 11.199219 -11.453125 11.101562 -11.390625 11.007812 -11.359375 C 10.941406 -11.328125 10.878906 -11.292969 10.847656 -11.261719 C 10.78125 -11.230469 10.71875 -11.199219 10.65625 -11.167969 C 10.558594 -11.132812 10.460938 -11.070312 10.367188 -11.039062 C 10.140625 -10.972656 9.949219 -10.910156 9.824219 -10.8125 C 9.566406 -10.75 9.375 -10.6875 9.214844 -10.621094 C 8.992188 -10.589844 8.832031 -10.527344 8.703125 -10.496094 L 8.574219 -10.460938 C 8.285156 -10.398438 8.09375 -10.367188 7.964844 -10.367188 C 7.742188 -10.335938 7.519531 -10.300781 7.328125 -10.269531 L 7.292969 -10.269531 C 7.261719 -10.335938 7.199219 -10.398438 7.136719 -10.429688 C 6.941406 -10.71875 6.75 -10.910156 6.589844 -11.039062 C 6.335938 -11.261719 6.144531 -11.421875 5.984375 -11.550781 C 5.757812 -11.742188 5.566406 -11.902344 5.375 -12.03125 C 5.3125 -12.0625 5.246094 -12.09375 5.214844 -12.125 C 5.085938 -12.222656 4.960938 -12.316406 4.832031 -12.382812 C 4.734375 -12.445312 4.671875 -12.511719 4.605469 -12.542969 C 4.511719 -12.605469 4.449219 -12.671875 4.382812 -12.703125 C 4.191406 -12.828125 4.0625 -12.925781 4 -12.988281 L 3.648438 -13.277344 L 3.359375 -13.566406 C 3.296875 -13.660156 3.230469 -13.726562 3.167969 -13.789062 C 3.136719 -13.820312 3.136719 -13.820312 3.136719 -13.855469 C 3.101562 -13.917969 3.039062 -13.980469 3.007812 -14.015625 C 2.976562 -14.109375 2.945312 -14.171875 2.910156 -14.207031 C 2.910156 -14.238281 2.910156 -14.269531 2.910156 -14.300781 C 2.910156 -14.332031 2.910156 -14.332031 2.878906 -14.367188 L 2.878906 -14.527344 C 2.910156 -14.621094 2.945312 -14.71875 2.945312 -14.8125 C 2.976562 -14.878906 3.007812 -14.941406 3.070312 -15.039062 C 3.136719 -15.164062 3.199219 -15.230469 3.230469 -15.261719 L 3.457031 -15.484375 C 3.550781 -15.550781 3.648438 -15.613281 3.710938 -15.644531 C 3.839844 -15.710938 3.96875 -15.742188 4.0625 -15.773438 C 4.09375 -15.804688 4.160156 -15.804688 4.191406 -15.804688 C 4.222656 -15.835938 4.289062 -15.835938 4.320312 -15.835938 L 4.574219 -15.835938 C 4.640625 -15.835938 4.703125 -15.835938 4.734375 -15.835938 C 4.765625 -15.804688 4.800781 -15.804688 4.832031 -15.773438 C 4.894531 -15.773438 4.960938 -15.742188 5.023438 -15.710938 L 5.054688 -15.710938 L 5.214844 -15.613281 C 5.246094 -15.613281 5.246094 -15.613281 5.277344 -15.613281 C 5.277344 -15.582031 5.277344 -15.582031 5.277344 -15.550781 C 5.597656 -15.324219 5.886719 -15.230469 6.144531 -15.230469 L 6.269531 -15.230469 C 6.589844 -15.324219 6.847656 -15.484375 7.070312 -15.710938 C 7.292969 -15.902344 7.390625 -16.15625 7.390625 -16.445312 L 7.390625 -16.574219 C 7.390625 -16.957031 7.230469 -17.277344 6.878906 -17.535156 C 6.878906 -17.597656 6.816406 -17.660156 6.65625 -17.726562 C 6.621094 -17.726562 6.589844 -17.726562 6.558594 -17.757812 C 6.527344 -17.820312 6.496094 -17.851562 6.464844 -17.851562 C 6.335938 -17.949219 6.175781 -18.046875 5.984375 -18.109375 C 5.886719 -18.140625 5.792969 -18.207031 5.632812 -18.238281 C 5.597656 -18.238281 5.535156 -18.238281 5.472656 -18.269531 C 5.3125 -18.332031 5.121094 -18.363281 4.863281 -18.363281 C 4.765625 -18.398438 4.605469 -18.398438 4.449219 -18.398438 Z M 4.449219 -18.398438 "/></g></g></g></svg>